<?xml version="1.0" standalone="no"?>
<!DOCTYPE svg PUBLIC "-//W3C//DTD SVG 1.1//EN" "http://www.w3.org/Graphics/SVG/1.1/DTD/svg11.dtd" >
<svg xmlns="http://www.w3.org/2000/svg" xmlns:xlink="http://www.w3.org/1999/xlink" version="1.1">
<metadata>
Created by FontForge 20201107 at Mon Feb 19 11:28:34 2024
 By 
Copyright (c) 2016 by Thomas Gillett. All rights reserved. |DCNT
</metadata>
<defs>
<font id="Gordita-Light" horiz-adv-x="1392" >
  <font-face 
    font-family="Gordita Light"
    font-weight="300"
    font-stretch="normal"
    units-per-em="2048"
    panose-1="0 0 0 0 0 0 0 0 0 0"
    ascent="1544"
    descent="-504"
    x-height="1094"
    cap-height="1604"
    bbox="-342 -547 2576 2300"
    underline-thickness="102"
    underline-position="-204"
    unicode-range="U+0020-FB04"
  />
<missing-glyph horiz-adv-x="1636" 
d="M184 0v1604h1352v-1604h-1352zM258 1522l1192 -1448v1448h-1192z" />
    <glyph glyph-name="ff" unicode="ff" horiz-adv-x="1277" 
d="M338 1094h528v268q0 138 77 224.5t206 86.5q58 0 108 -20v-76q-53 18 -108 18q-94 0 -148.5 -60t-54.5 -175v-266h301v-74h-301v-1020h-80v1020h-528v-1020h-82v1020h-201v74h201v268q0 137 78 224t207 87q58 0 108 -20v-76q-53 18 -108 18q-93 0 -148 -60.5t-55 -174.5
v-266z" />
    <glyph glyph-name="fi" unicode="fi" horiz-adv-x="1142" 
d="M256 1020h-201v74h201v268q0 137 78 224t207 87q58 0 108 -20v-76q-53 18 -108 18q-93 0 -148 -60.5t-55 -174.5v-266h610v-1094h-82v1020h-528v-1020h-82v1020zM850 1413q-23 25 -23 59.5t23 57.5q25 25 57.5 25t55.5 -25q23 -23 23 -57.5t-23 -59.5q-23 -23 -55.5 -23
t-57.5 23z" />
    <glyph glyph-name="fl" unicode="fl" horiz-adv-x="1142" 
d="M55 1020v74h201v268q0 139 76.5 225t208.5 86q58 0 108 -20v-76q-53 18 -108 18q-94 0 -148.5 -60t-54.5 -175v-266h528v575h80v-1669h-80v1020h-528v-1020h-82v1020h-201z" />
    <glyph glyph-name="ffi" unicode="ffi" horiz-adv-x="1755" 
d="M868 1020h-530v-1020h-82v1020h-201v74h201v268q0 137 78 224t207 87q58 0 108 -20v-76q-53 18 -108 18q-93 0 -148 -60.5t-55 -174.5v-266h530v268q0 137 77 224t206 87q61 0 111 -20v-76q-52 18 -109 18q-95 0 -150 -60.5t-55 -174.5v-266h611l2 -1094h-82v1020h-531
v-1020h-80v1020zM1464 1413q-23 25 -23 59.5t23 57.5q23 25 55.5 25t55.5 -25q25 -23 25 -57.5t-25 -59.5q-23 -23 -55.5 -23t-55.5 23z" />
    <glyph glyph-name="ffl" unicode="ffl" horiz-adv-x="1751" 
d="M338 1020v-1020h-82v1020h-201v74h201v268q0 137 78 224t207 87q58 0 108 -20v-76q-53 18 -108 18q-93 0 -148 -60.5t-55 -174.5v-266h528v268q0 138 77 224.5t206 86.5q58 0 108 -20v-76q-53 18 -108 18q-94 0 -148.5 -60t-54.5 -175v-266h531v575h79v-1669h-79v1020
h-531v-1020h-80v1020h-528z" />
    <glyph glyph-name=".notdef" horiz-adv-x="1636" 
d="M184 0v1604h1352v-1604h-1352zM258 1522l1192 -1448v1448h-1192z" />
    <glyph glyph-name=".null" horiz-adv-x="0" 
 />
    <glyph glyph-name="nonmarkingreturn" horiz-adv-x="682" 
 />
    <glyph glyph-name="space" unicode=" " horiz-adv-x="600" 
 />
    <glyph glyph-name="exclam" unicode="!" horiz-adv-x="534" 
d="M307 426h-78l-4 1178h86zM209 6q-23 25 -23 57.5t23 57.5q25 25 57.5 25t55.5 -25q25 -23 25 -57.5t-25 -59.5q-23 -23 -55.5 -23t-57.5 25z" />
    <glyph glyph-name="quotedbl" unicode="&#x22;" horiz-adv-x="727" 
d="M260 1524l-24 -443h-50q-24 408 -24 443q0 69 49 69t49 -69zM565 1524l-24 -443h-49q-25 425 -25 443q0 69 49 69t49 -69z" />
    <glyph glyph-name="numbersign" unicode="#" horiz-adv-x="1619" 
d="M285 0l92 446h-291v76h305l117 561h-293v74h307l92 447h78l-90 -447h574l92 447h80l-91 -447h277v-74h-291l-115 -561h277v-76h-293l-92 -446h-80l90 446h-571l-94 -446h-80zM473 520h571l117 563h-573z" />
    <glyph glyph-name="dollar" unicode="$" horiz-adv-x="1212" 
d="M1102 436q0 -187 -127 -311q-128 -122 -326 -131v-203h-82v203q-329 21 -473 397l72 37q67 -162 162 -253.5t241 -104.5v731q-227 60 -333 147q-103 86 -103 254q0 176 125 295t309 131v197h82v-197q163 -10 275.5 -99t171.5 -233l-70 -39q-114 272 -379 293v-686
q232 -65 343.5 -166t111.5 -262zM217 1204q0 -127 79.5 -197t272.5 -122v665q-140 -12 -247 -108q-105 -94 -105 -238zM647 780v-710q155 9 264 104q107 94 107 260q0 124 -89 206.5t-282 139.5z" />
    <glyph glyph-name="percent" unicode="%" horiz-adv-x="1769" 
d="M696 1004q-105 -105 -254 -105q-148 0 -256 105q-104 107 -104 256t104 253q107 107 256 107q150 0 254 -107q107 -104 107 -253t-107 -256zM315 0l1045 1604h88l-1040 -1604h-93zM647 1464q-86 86 -205 86q-118 0 -204 -86q-86 -83 -86 -204t86 -207q87 -84 204 -84
q118 0 205 84q86 86 86 207t-86 204zM1581 94q-104 -104 -254 -104q-149 0 -256 104q-104 104 -104 254t104 254q107 107 256 107q150 0 254 -107q107 -104 107 -254t-107 -254zM1036 348q0 -118 84 -205q87 -84 207 -84q121 0 205 84q86 86 86 205q0 122 -86 205
q-83 86 -205 86q-121 0 -207 -86q-84 -84 -84 -205z" />
    <glyph glyph-name="ampersand" unicode="&#x26;" horiz-adv-x="1427" 
d="M1362 0h-107l-213 231q-217 -245 -483 -245h-8q-183 0 -307 100q-127 103 -127 279q0 66 30 141q7 15 24 38t36 46.5t24 30.5q24 24 58 51l53 43q6 6 59 43l54 39l43 30l-90 97q-170 188 -170 338q0 147 104 251q107 107 268 107q170 0 271 -104q102 -105 102 -252
q0 -102 -60.5 -184t-183.5 -171l-129 -94l432 -467q124 167 213 393l70 -24q-96 -252 -231 -424zM467 975l92 -105l141 103q205 147 205 293q0 124 -84 202t-215 78q-122 0 -205 -80q-84 -78 -84 -194v-4q0 -69 33.5 -135t116.5 -158zM559 59q239 0 432 228l-442 483
l-86 -59q-264 -176 -264 -338v-8q0 -145 106 -226q109 -80 254 -80z" />
    <glyph glyph-name="quotesingle" unicode="'" horiz-adv-x="423" 
d="M260 1524l-24 -443h-50q-24 408 -24 443q0 69 49 69t49 -69z" />
    <glyph glyph-name="parenleft" unicode="(" horiz-adv-x="811" 
d="M725 1769l33 -55q-276 -165 -415.5 -396t-139.5 -550v-18q0 -619 555 -947l-33 -55q-292 167 -449 422.5t-157 572.5v33q0 317 157 571.5t449 421.5z" />
    <glyph glyph-name="parenright" unicode=")" horiz-adv-x="811" 
d="M53 1714l35 55q292 -167 449 -421.5t157 -571.5v-33q0 -317 -157 -572.5t-449 -422.5l-35 55q557 329 557 947v18q0 320 -139.5 550.5t-417.5 395.5z" />
    <glyph glyph-name="asterisk" unicode="*" horiz-adv-x="1056" 
d="M494 1604h71l-12 -396l362 131l23 -65l-375 -117l240 -299l-55 -41l-220 305l-219 -305l-55 41l240 299l-375 117l22 65l363 -131z" />
    <glyph glyph-name="plus" unicode="+" horiz-adv-x="1216" 
d="M575 807v457h80v-457h451v-76h-451v-463h-80v463h-462v76h462z" />
    <glyph glyph-name="comma" unicode="," horiz-adv-x="534" 
d="M254 -10q-38 0 -61 23t-23 61t25 63t61 25q48 0 76 -35t28 -96v-8q0 -157 -151 -269l-47 43q118 93 127 199q-15 -6 -35 -6z" />
    <glyph glyph-name="hyphen" unicode="-" horiz-adv-x="927" 
d="M764 688v-78h-600v78h600z" />
    <glyph glyph-name="period" unicode="." horiz-adv-x="503" 
d="M315 10q-26 -26 -63.5 -26t-63.5 26q-25 26 -25 63t25 62q26 26 63.5 26t63.5 -26q26 -25 26 -62t-26 -63z" />
    <glyph glyph-name="slash" unicode="/" horiz-adv-x="940" 
d="M764 1667h88l-672 -1677h-88z" />
    <glyph glyph-name="zero" unicode="0" horiz-adv-x="1564" 
d="M782 -16q-96 -1 -182.5 26.5t-154 76t-122.5 115.5t-92.5 144t-60.5 162q-61 215 -29.5 440.5t148.5 407.5q77 120 205 192q130 74 288 74q159 0 289 -74q91 -51 162 -133.5t114.5 -182t66 -208t22.5 -219.5q0 -119 -25 -235t-78 -222t-128.5 -187t-184.5 -129t-238 -48z
M1032 1475q-112 69 -252 69.5t-252 -67.5q-197 -118 -278 -412q-71 -257 0 -518q81 -298 280 -420q115 -68 254 -68q138 0 250 68q200 120 281 412q71 260 0 520q-80 294 -283 416z" />
    <glyph glyph-name="one" unicode="1" horiz-adv-x="819" 
d="M580 1604v-1604h-84v1513l-416 -245l-37 61l455 275h82z" />
    <glyph glyph-name="two" unicode="2" horiz-adv-x="1271" 
d="M119 0v78l594 543q190 178 264 294q76 119 76 240q0 162 -115 277q-112 112 -295 112q-135 0 -235 -69q-134 -90 -193 -267l-76 33q49 163 183 272q136 109 323 109q213 0 352 -133q140 -134 140 -332q0 -131 -70 -256q-79 -136 -303 -338l-533 -485h918v-78h-1030z" />
    <glyph glyph-name="three" unicode="3" horiz-adv-x="1261" 
d="M623 1622q223 0 354 -125t131 -293q0 -122 -80 -231q-79 -107 -227 -148q166 -36 254 -145t88 -260q0 -180 -144 -309q-145 -127 -376 -127q-191 0 -328 104q-138 108 -193 270l72 37q64 -163 182 -250q116 -84 265 -84q186 0 311 101q127 103 127 258q0 166 -116 262
t-318 96h-164v78h162q174 0 286 100q115 103 115 248q0 142 -113 240q-109 100 -290 100q-136 0 -236 -69q-131 -91 -190 -261l-74 33q48 160 182 269q130 106 320 106z" />
    <glyph glyph-name="four" unicode="4" horiz-adv-x="1337" 
d="M915 1604h97v-1129h252v-78h-252v-397h-84v397h-873v88zM928 1493l-785 -1018h785v1018z" />
    <glyph glyph-name="five" unicode="5" horiz-adv-x="1261" 
d="M616 -16q-167 0 -307 96q-146 109 -203 272l72 39q66 -163 180 -246q119 -84 260 -84q169 0 308 121q137 119 137 320q0 194 -127 303q-126 108 -311 108q-242 0 -398 -194l-75 29l124 856h805v-78h-737l-104 -705q150 170 393 170q229 0 373 -135q143 -131 143 -352
q0 -226 -156 -373t-377 -147z" />
    <glyph glyph-name="six" unicode="6" horiz-adv-x="1341" 
d="M694 -16q-284 0 -452 241q-109 157 -109 488q0 254 70 452q71 209 226 333t366 124q234 0 424 -190l-48 -64q-182 176 -378 176q-192 0 -330 -117q-244 -203 -250 -735h2q43 99 113.5 171t148.5 102q129 53 228 53q221 0 372 -148q152 -149 152 -352q0 -200 -154 -368
q-150 -166 -381 -166zM690 942q-171 0 -315 -123q-142 -121 -142 -305q0 -187 140 -321t317 -134q188 0 320 138q133 139 133 319q0 182 -133 303q-132 123 -320 123z" />
    <glyph glyph-name="seven" unicode="7" horiz-adv-x="1148" 
d="M1096 1528l-744 -1528h-94l743 1528h-948v76h1043v-76z" />
    <glyph glyph-name="eight" unicode="8" horiz-adv-x="1349" 
d="M676 -18q-233 0 -389 114q-156 117 -156 324q0 131 98 244q99 114 281 161q-166 48 -249 146.5t-83 230.5q0 128 80 228q76 96 186.5 143t233.5 47q186 0 340 -115q156 -114 156 -303q0 -127 -85 -228t-247 -149q184 -47 278 -161q99 -114 99 -244q0 -208 -162 -324
q-163 -114 -381 -114zM1085 1204q0 144 -116 238q-116 98 -295 98q-176 0 -295 -96q-117 -94 -117 -242q0 -155 127 -250q125 -94 287 -94q169 0 291 96q118 93 118 250zM1133 420q0 157 -136 260q-134 104 -323 104q-191 0 -326 -102q-133 -103 -133 -264q0 -163 135 -262
q139 -97 326 -97q188 0 323 97q134 100 134 264z" />
    <glyph glyph-name="nine" unicode="9" horiz-adv-x="1341" 
d="M645 1622q284 0 453 -242q108 -156 108 -487q0 -257 -67 -455q-68 -202 -217 -327q-151 -127 -363 -127q-134 0 -233.5 48.5t-200.5 149.5l47 64q100 -99 189 -142t200 -43q258 0 402 209q160 232 163 633h-2q-43 -99 -113.5 -170.5t-148.5 -103.5q-131 -51 -227 -51
q-224 0 -375 145q-149 146 -149 364q0 203 153 369q156 166 381 166zM649 653q181 0 318 125q139 127 139 314q0 188 -139 321t-318 133q-188 0 -319 -137q-133 -139 -133 -319q0 -189 131 -314q132 -123 321 -123z" />
    <glyph glyph-name="colon" unicode=":" horiz-adv-x="503" 
d="M164 1022q0 36 26 62t62 26q37 0 63.5 -26.5t26.5 -61.5q0 -37 -26.5 -63.5t-63.5 -26.5t-62.5 26.5t-25.5 63.5zM315 10q-26 -26 -63.5 -26t-63.5 26q-25 26 -25 63t25 62q26 26 63.5 26t63.5 -26q26 -25 26 -62t-26 -63z" />
    <glyph glyph-name="semicolon" unicode=";" horiz-adv-x="544" 
d="M180 1022q0 36 26 62t62 26q37 0 63.5 -26.5t26.5 -61.5q0 -37 -26.5 -63.5t-63.5 -26.5t-62.5 26.5t-25.5 63.5zM264 -10q-38 0 -61 23t-23 61t25 63t61 25q48 0 76.5 -35t28.5 -96v-8q0 -157 -152 -269l-47 43q118 93 127 199q-15 -6 -35 -6z" />
    <glyph glyph-name="less" unicode="&#x3c;" horiz-adv-x="1323" 
d="M1145 188l-1061 537v80l1061 538v-83l-977 -494l977 -490v-88z" />
    <glyph glyph-name="equal" unicode="=" horiz-adv-x="1280" 
d="M1110 1051v-78h-940v78h940zM1110 567v-78h-940v78h940z" />
    <glyph glyph-name="greater" unicode="&#x3e;" horiz-adv-x="1320" 
d="M1237 725l-1061 -537v86l977 492l-977 491v86l1061 -538v-80z" />
    <glyph glyph-name="question" unicode="?" horiz-adv-x="1001" 
d="M479 377h-84v119q0 123 47 200q54 84 156 170l61 52q84 73 124 143.5t40 167.5q0 131 -92 223t-235 92q-119 0 -214.5 -75.5t-138.5 -204.5l-73 36q51 148 167.5 235t258.5 87q177 0 295 -115q118 -112 118 -278q0 -120 -52.5 -209t-168.5 -184q-111 -87 -164 -168
q-45 -68 -45 -174v-117zM379 4q-23 25 -23 59.5t23 57.5q25 25 57.5 25t55.5 -25q38 -33 22 -78.5t-57 -57.5t-78 19z" />
    <glyph glyph-name="at" unicode="@" horiz-adv-x="1785" 
d="M819 260q-143 0 -237 105q-93 107 -93 247q0 175 117 310q119 137 299 137q100 0 181 -52.5t112 -146.5h2l33 191h82l-94 -570q-12 -61 11.5 -103t86.5 -42q100 0 176 98q82 103 111 217q16 75 16 133q0 270 -195 447q-194 176 -477 176q-314 0 -532 -225
q-219 -227 -219 -535q0 -315 209 -524q213 -207 530 -207q112 0 237 43.5t211 112.5l41 -62q-83 -72 -229 -121q-139 -47 -260 -47q-351 0 -582 228q-231 231 -231 577q0 343 242 588q242 248 581 248q312 0 531 -195t219 -502q0 -110 -49 -235q-46 -124 -140 -209
q-88 -82 -202 -82q-88 0 -131 55q-41 59 -35 115h-2q-39 -69 -131 -119.5t-189 -50.5zM922 981q-151 0 -254 -109q-99 -108 -99 -262q0 -112 74 -192q77 -80 191 -80q131 0 225 88q97 91 115 217q6 50 6 76q0 108 -76 184q-75 78 -182 78z" />
    <glyph glyph-name="A" unicode="A" horiz-adv-x="1538" 
d="M815 1604l709 -1604h-92l-199 457h-930l-201 -457h-88l709 1604h92zM338 535h860l-432 976z" />
    <glyph glyph-name="B" unicode="B" horiz-adv-x="1482" 
d="M238 0v1604h524q271 0 397 -117q127 -118 127 -285q0 -113 -72 -223q-69 -106 -229 -154q187 -30 281 -149q96 -119 96 -250q0 -194 -151 -310t-429 -116h-544zM324 1528v-672h452q204 0 315 94t111 248q0 150 -115 240t-327 90h-436zM324 778v-700h462q233 0 361.5 92.5
t128.5 255.5q0 161 -126.5 256.5t-354.5 95.5h-471z" />
    <glyph glyph-name="C" unicode="C" horiz-adv-x="1716" 
d="M1550 522l74 -35q-64 -180 -229 -329q-87 -80 -215.5 -127t-274.5 -47q-344 0 -563 235q-221 238 -221 582q0 346 223 581q225 240 565 240q142 0 267.5 -45.5t212.5 -122.5q167 -145 231 -334l-74 -35q-60 168 -205 301q-77 74 -190.5 116t-245.5 42q-302 0 -502 -215
q-196 -214 -196 -522q0 -311 196 -528q202 -220 504 -220q138 0 257 47t196 127q132 138 190 289z" />
    <glyph glyph-name="D" unicode="D" horiz-adv-x="1640" 
d="M238 0v1604h428q370 0 612 -230q244 -229 244 -573q0 -352 -244 -578q-241 -223 -612 -223h-428zM324 1528v-1450h344q331 0 549 203q219 204 219 518q0 315 -219 522t-551 207h-342z" />
    <glyph glyph-name="E" unicode="E" horiz-adv-x="1337" 
d="M324 856h806v-78h-806v-700h886v-78h-972v1604h962v-76h-876v-672z" />
    <glyph glyph-name="F" unicode="F" horiz-adv-x="1271" 
d="M322 0h-84v1604h952v-76h-868v-690h798v-78h-798v-760z" />
    <glyph glyph-name="G" unicode="G" horiz-adv-x="1751" 
d="M819 748h823v-78q0 -295 -204 -490q-205 -196 -533 -196q-345 0 -565 233q-219 236 -219 584q0 345 221 583t569 238q271 0 453 -147q183 -148 250 -338l-74 -35q-59 160 -207 293q-75 69 -186 109t-238 40q-309 0 -506 -215q-196 -214 -196 -522q0 -320 194 -535
q198 -213 508 -213q269 0 459 166q191 170 191 439v6h-740v78z" />
    <glyph glyph-name="H" unicode="H" horiz-adv-x="1687" 
d="M324 1604v-748h1040v748h86v-1604h-86v778h-1040v-778h-86v1604h86z" />
    <glyph glyph-name="I" unicode="I" horiz-adv-x="561" 
d="M324 1604v-1604h-86v1604h86z" />
    <glyph glyph-name="J" unicode="J" horiz-adv-x="1159" 
d="M510 59q165 0 254.5 97.5t89.5 275.5v1172h86v-1172q0 -208 -114 -328t-314 -120q-294 0 -432 344l72 41q120 -310 358 -310z" />
    <glyph glyph-name="K" unicode="K" horiz-adv-x="1325" 
d="M324 858h8l827 746h123l-856 -764l903 -840h-125l-872 813h-8v-813h-86v1604h86v-746z" />
    <glyph glyph-name="L" unicode="L" horiz-adv-x="1181" 
d="M1122 0h-884v1604h84v-1526h800v-78z" />
    <glyph glyph-name="M" unicode="M" horiz-adv-x="2109" 
d="M238 1604h112l705 -1508l702 1508h115v-1604h-84v1483l-690 -1483h-86l-690 1477v-1477h-84v1604z" />
    <glyph glyph-name="N" unicode="N" horiz-adv-x="1742" 
d="M1421 121v1483h84v-1604h-96l-1087 1491v-1491h-84v1604h102z" />
    <glyph glyph-name="O" unicode="O" horiz-adv-x="1818" 
d="M907 -16q-340 0 -563 235t-223 582q0 346 223 581q225 240 565 240t566 -238q223 -235 223 -579q0 -347 -225 -584t-566 -237zM907 1544q-301 0 -501 -215q-199 -214 -199 -522q0 -314 199 -531t505 -217q302 0 502 215q199 217 199 525q0 307 -201 526t-504 219z" />
    <glyph glyph-name="P" unicode="P" horiz-adv-x="1357" 
d="M238 0v1604h452q300 0 445 -136q143 -131 143 -331q0 -208 -154 -344t-452 -136h-348v-657h-86zM324 1528v-791h350q266 0 391 113q127 115 127 285q0 164 -123 278q-121 115 -387 115h-358z" />
    <glyph glyph-name="Q" unicode="Q" horiz-adv-x="1822" 
d="M1714 43l-55 -61l-227 198q-221 -194 -525 -194q-340 0 -563 235t-223 580q0 346 223 581q226 238 565 238q340 0 566 -238q223 -235 223 -577q0 -336 -209 -565zM207 807q0 -311 199 -528q200 -218 505 -218q266 0 459 172l-321 281l57 64l321 -285q185 212 185 506
q0 305 -201 524t-504 219q-301 0 -501 -215q-199 -211 -199 -520z" />
    <glyph glyph-name="R" unicode="R" horiz-adv-x="1431" 
d="M238 0v1604h481q298 0 438 -134q139 -133 139 -323q0 -191 -126 -312t-363 -147l539 -688h-109l-530 680h-383v-680h-86zM324 1528v-770h374q261 0 387 114q127 115 127 273q0 161 -118 270q-116 113 -381 113h-389z" />
    <glyph glyph-name="S" unicode="S" horiz-adv-x="1251" 
d="M1124 428q0 -198 -139 -322q-137 -122 -350 -122q-368 0 -518 399l71 37q62 -148 152 -246q112 -115 297 -115q162 0 285 97q118 93 118 270q0 133 -101.5 218t-324.5 142q-245 65 -352 150q-106 84 -106 258q0 186 139 307q142 121 336 121q178 0 301 -90t186 -244
l-69 -39q-123 295 -422 295q-155 0 -271 -98t-116 -250q0 -135 90 -207q88 -70 301 -123q251 -65 372 -168.5t121 -269.5z" />
    <glyph glyph-name="T" unicode="T" horiz-adv-x="1253" 
d="M1204 1604v-76h-530v-1528h-84v1528h-541v76h1155z" />
    <glyph glyph-name="U" unicode="U" horiz-adv-x="1597" 
d="M1296 1604h84v-975q0 -296 -151 -473q-149 -174 -428 -174q-285 0 -434 174q-152 178 -152 469v979h86v-977q0 -274 133 -421t369 -147q243 0 368 149t125 417v979z" />
    <glyph glyph-name="V" unicode="V" horiz-adv-x="1536" 
d="M1479 1604l-666 -1604h-90l-666 1604h90l621 -1506l621 1506h90z" />
    <glyph glyph-name="W" unicode="W" horiz-adv-x="2258" 
d="M68 1604h90l458 -1495l474 1495h79l478 -1495l458 1495h86l-499 -1604h-95l-469 1466l-469 -1466h-94z" />
    <glyph glyph-name="X" unicode="X" horiz-adv-x="1411" 
d="M150 1604l555 -727l557 727h100l-604 -785l628 -819h-100l-581 760l-580 -760h-100l630 817l-606 787h101z" />
    <glyph glyph-name="Y" unicode="Y" horiz-adv-x="1468" 
d="M735 766l570 838h100l-629 -916v-688h-84v688l-629 916h103z" />
    <glyph glyph-name="Z" unicode="Z" horiz-adv-x="1257" 
d="M96 1604h1082v-78l-1020 -1448h1022v-78h-1117v78l1020 1450h-987v76z" />
    <glyph glyph-name="bracketleft" unicode="[" horiz-adv-x="831" 
d="M756 -158v-71h-533v1978h533v-72h-453v-1835h453z" />
    <glyph glyph-name="backslash" unicode="\" horiz-adv-x="940" 
d="M848 -10h-88l-672 1677h88z" />
    <glyph glyph-name="bracketright" unicode="]" horiz-adv-x="831" 
d="M608 1749v-1978h-532v71h452v1835h-452v72h532z" />
    <glyph glyph-name="asciicircum" unicode="^" horiz-adv-x="1138" 
d="M1014 924h-90l-355 602l-354 -602h-90l405 680h82z" />
    <glyph glyph-name="underscore" unicode="_" horiz-adv-x="1071" 
d="M0 -170h1071v-72h-1071v72z" />
    <glyph glyph-name="grave" unicode="`" horiz-adv-x="376" 
d="M350 1280h-74l-247 352h92z" />
    <glyph glyph-name="a" unicode="a" horiz-adv-x="1157" 
d="M979 0h-82v242q-61 -123 -172.5 -191.5t-243.5 -68.5q-158 0 -262 79q-104 82 -104 232q0 156 127 233q130 80 301 80h354v76q0 167 -87 260.5t-247 93.5q-251 0 -364 -223l-72 41q57 121 168 189.5t266 68.5q193 0 305.5 -112t112.5 -312v-688zM899 449v83h-352
q-135 0 -244 -59q-104 -58 -104 -178q0 -113 78 -175.5t206 -62.5q176 0 295 107q121 109 121 285z" />
    <glyph glyph-name="b" unicode="b" horiz-adv-x="1376" 
d="M195 1667h79v-870q58 142 181.5 228.5t279.5 86.5q231 0 381 -166t150 -397q0 -229 -150 -399q-147 -166 -381 -166q-157 0 -280.5 86t-180.5 225v-295h-79v1667zM731 61q203 0 326 138q125 137 125 346v2q0 207 -127 346q-126 141 -324 141q-202 0 -332 -145
q-129 -144 -129 -338v-6q0 -197 131 -340q132 -144 330 -144z" />
    <glyph glyph-name="c" unicode="c" horiz-adv-x="1239" 
d="M659 -18q-234 0 -391 161q-157 165 -157 402q0 239 159 403t389 164q179 0 304 -86.5t174 -230.5l-76 -33q-99 274 -402 274q-200 0 -331 -143t-131 -344t133 -346q137 -146 332 -146q293 0 401 279l76 -33q-52 -143 -177 -232t-303 -89z" />
    <glyph glyph-name="d" unicode="d" horiz-adv-x="1376" 
d="M1182 0h-78v299q-60 -141 -182 -227q-122 -88 -281 -88q-236 0 -383 166q-145 168 -145 399q0 235 149 397q150 166 379 166q157 0 279.5 -84.5t183.5 -226.5v866h78v-1667zM645 61q201 0 330 144q131 143 131 340v6q0 194 -129 338q-130 145 -332 145q-201 0 -326 -137
q-124 -136 -124 -344v-2q0 -211 124 -350q128 -140 326 -140z" />
    <glyph glyph-name="e" unicode="e" horiz-adv-x="1243" 
d="M1139 551v-19h-942q3 -193 131 -333q130 -142 329 -142q123 0 224 61t157 165l70 -45q-63 -118 -185 -187t-270 -69q-234 0 -389 165q-153 169 -153 402v4q0 220 151 391q152 168 375 168q252 0 377 -162t125 -399zM197 606h858q-3 62 -18.5 120.5t-48.5 115.5t-80 99.5
t-118 68.5t-157 26q-171 0 -299 -131t-137 -299z" />
    <glyph glyph-name="f" unicode="f" horiz-adv-x="669" 
d="M649 1653v-76q-53 18 -108 18q-93 0 -148 -60.5t-55 -174.5v-266h301v-74h-301v-1020h-82v1020h-201v74h201v268q0 137 78 224t207 87q58 0 108 -20z" />
    <glyph glyph-name="g" unicode="g" horiz-adv-x="1374" 
d="M1100 1094h80v-1090q0 -279 -150 -414q-149 -137 -387 -137q-193 0 -321 83t-209 253l71 41q34 -70 67 -115.5t85 -87.5q110 -96 305 -96q215 0 337 120.5t122 348.5v307q-58 -139 -182 -225t-277 -86q-240 0 -383 162q-145 165 -145 397q0 231 147 395q146 162 381 162
q154 0 277.5 -83.5t181.5 -221.5v287zM1104 553v4q0 195 -129 336t-332 141q-198 0 -324 -135q-122 -134 -122 -342v-2q0 -207 122 -344q125 -137 324 -137q201 0 330 141q131 140 131 338z" />
    <glyph glyph-name="h" unicode="h" horiz-adv-x="1284" 
d="M672 1112q202 0 317 -127q117 -126 117 -328v-657h-82v641q0 188 -96.5 291.5t-268.5 103.5q-161 0 -274 -116q-111 -114 -111 -291v-629h-79v1667h79v-815q44 118 152.5 189t245.5 71z" />
    <glyph glyph-name="i" unicode="i" horiz-adv-x="471" 
d="M178 1415q-23 25 -23 57.5t23 57.5q25 25 57.5 25t55.5 -25q25 -23 25 -57.5t-25 -59.5q-23 -23 -55.5 -23t-57.5 25zM195 1094h81v-1094h-81v1094z" />
    <glyph glyph-name="j" unicode="j" horiz-adv-x="485" 
d="M195 1413q-23 25 -23 59.5t23 57.5q25 25 57 25t55 -25q38 -33 22.5 -78.5t-56.5 -57.5t-78 19zM211 1094h80v-1348q0 -293 -279 -293q-44 0 -71 6v74q10 -2 65 -2q205 0 205 211v1352z" />
    <glyph glyph-name="k" unicode="k" horiz-adv-x="1038" 
d="M909 0l-628 578h-7v-578h-79v1667h79v-1049h5l598 476h120l-630 -496l659 -598h-117z" />
    <glyph glyph-name="l" unicode="l" horiz-adv-x="471" 
d="M276 1667v-1667h-81v1667h81z" />
    <glyph glyph-name="m" unicode="m" horiz-adv-x="1980" 
d="M1038 0h-80v659q0 176 -89 276.5t-242 100.5q-137 0 -244 -110q-109 -112 -109 -281v-645h-79v1094h79v-228q41 105 137.5 175.5t223.5 70.5q148 0 243.5 -75.5t135.5 -207.5q46 122 149.5 202.5t235.5 80.5q196 0 299 -127q104 -125 104 -317v-668h-80v655
q0 178 -89 279.5t-244 101.5q-136 0 -244 -108q-107 -107 -107 -281v-647z" />
    <glyph glyph-name="n" unicode="n" horiz-adv-x="1284" 
d="M672 1112q202 0 317 -127q117 -126 117 -328v-657h-82v641q0 188 -96.5 291.5t-268.5 103.5q-161 0 -274 -116q-111 -114 -111 -291v-629h-79v1094h79v-242q44 118 152.5 189t245.5 71z" />
    <glyph glyph-name="o" unicode="o" horiz-adv-x="1341" 
d="M670 -18q-237 0 -398 161t-161 400q0 241 159 405q164 164 402 164q239 0 397 -162q162 -162 162 -399q0 -238 -160 -406q-159 -163 -401 -163zM668 1036q-203 0 -338 -141q-133 -142 -133 -346t135 -348t340 -144q204 0 340 142q135 141 135 346q0 208 -137 348
q-137 143 -342 143z" />
    <glyph glyph-name="p" unicode="p" horiz-adv-x="1376" 
d="M195 1094h79v-297q58 142 181.5 228.5t279.5 86.5q231 0 381 -166t150 -397q0 -229 -150 -399q-147 -166 -381 -166q-157 0 -280.5 86t-180.5 225v-834h-79v1633zM731 61q203 0 326 138q125 137 125 346v2q0 207 -127 346q-126 141 -324 141q-202 0 -332 -145
q-129 -144 -129 -338v-6q0 -197 131 -340q132 -144 330 -144z" />
    <glyph glyph-name="q" unicode="q" horiz-adv-x="1376" 
d="M1182 -539h-78v838q-60 -141 -182 -227q-122 -88 -281 -88q-236 0 -383 166q-145 168 -145 399q0 235 149 397q150 166 379 166q157 0 279.5 -84.5t183.5 -226.5v293h78v-1633zM645 61q201 0 330 144q131 143 131 340v6q0 194 -129 338q-130 145 -332 145
q-201 0 -326 -137q-124 -136 -124 -344v-2q0 -211 124 -350q128 -140 326 -140z" />
    <glyph glyph-name="r" unicode="r" horiz-adv-x="724" 
d="M682 1108q16 0 20 -2v-80h-16q-194 0 -303 -139t-109 -336v-551h-79v1094h79v-285q44 131 158 213q115 86 250 86z" />
    <glyph glyph-name="s" unicode="s" horiz-adv-x="991" 
d="M133 815q0 133 113 215t252 82q263 0 364 -229l-71 -39q-85 192 -297 192q-103 0 -191 -61t-88 -158q0 -96 64 -143.5t221 -79.5q199 -42 286.5 -112.5t87.5 -198.5q0 -136 -112 -217q-113 -84 -258 -84q-284 0 -404 256l72 38q56 -113 135 -166t197 -53q112 0 201 62
q90 66 90 162q0 97 -69.5 147.5t-246.5 89.5q-184 40 -265 105.5t-81 191.5z" />
    <glyph glyph-name="t" unicode="t" horiz-adv-x="706" 
d="M627 1020h-293v-723q0 -229 205 -229q36 0 88 10v-74q-53 -12 -95 -12q-278 0 -278 297v731h-207v74h207v313h80v-313h293v-74z" />
    <glyph glyph-name="u" unicode="u" horiz-adv-x="1284" 
d="M612 -20q-202 0 -319 126q-115 127 -115 328v660h80v-643q0 -188 97 -292t270 -104q160 0 272 115q113 116 113 295v629h80v-1094h-80v242q-44 -119 -153 -190.5t-245 -71.5z" />
    <glyph glyph-name="v" unicode="v" horiz-adv-x="1163" 
d="M1108 1094l-483 -1094h-84l-486 1094h90l437 -1008l438 1008h88z" />
    <glyph glyph-name="w" unicode="w" horiz-adv-x="1757" 
d="M59 1094h88l340 -998l353 998h80l350 -998l348 998h80l-387 -1094h-82l-348 983l-353 -983h-82z" />
    <glyph glyph-name="x" unicode="x" horiz-adv-x="1091" 
d="M63 1094h101l383 -482l387 482h92l-430 -535l448 -559h-100l-397 502l-408 -502h-94l453 555z" />
    <glyph glyph-name="y" unicode="y" horiz-adv-x="1183" 
d="M1055 1094h86l-774 -1633h-86l284 602l-514 1031h90l467 -942z" />
    <glyph glyph-name="z" unicode="z" horiz-adv-x="1019" 
d="M932 1094v-72l-758 -948h760v-74h-856v74l758 946h-740v74h836z" />
    <glyph glyph-name="braceleft" unicode="{" horiz-adv-x="829" 
d="M406 387l-33 -217q-20 -114 -4 -187t97.5 -107t252.5 -34h35v-71h-49q-88 0 -156.5 11t-115 29t-77.5 46.5t-47.5 60t-22 75.5t-3 85t11.5 96l33 227q24 157 -51 240.5t-211 83.5h-21v70h21q136 0 211 83t51 240l-33 228q-9 55 -11.5 96t3 85t22 75.5t47.5 60t77.5 46.5
t115 29t156.5 11h49v-72h-35q-171 0 -252.5 -34t-97.5 -106.5t4 -186.5l33 -220q4 -28 5.5 -54t-1 -61t-10 -65t-24.5 -61.5t-41.5 -55.5t-64.5 -43.5t-90 -27.5v-2q70 -12 118.5 -45t71.5 -72t33 -89.5t9.5 -88.5t-6.5 -78z" />
    <glyph glyph-name="bar" unicode="|" horiz-adv-x="524" 
d="M223 1825h78v-2063h-78v2063z" />
    <glyph glyph-name="braceright" unicode="}" horiz-adv-x="829" 
d="M455 170l-33 217q-6 39 -6.5 78t10 88.5t34 89t71.5 72.5t116 45v2q-57 10 -100.5 33.5t-68 55.5t-40 67.5t-19.5 75.5t-3 72t6 64l33 220q20 114 4.5 186.5t-96.5 106.5t-252 34h-35v72h49q88 0 156.5 -11t115 -29t77.5 -46.5t47.5 -60t22 -75.5t3 -85t-11.5 -96
l-33 -228q-24 -157 51 -240t211 -83h18v-70h-18q-136 0 -211 -83.5t-51 -240.5l33 -227q9 -55 11.5 -96t-3 -85t-22 -75.5t-47.5 -60t-77.5 -46.5t-115 -29t-156.5 -11h-49v71h35q171 0 252 34t96.5 107t-4.5 187z" />
    <glyph glyph-name="asciitilde" unicode="~" horiz-adv-x="1236" 
d="M848 461q-70 0 -122 33.5t-122 115.5q-66 84 -112.5 118t-104.5 34q-163 0 -172 -297h-68q1 182 64 278.5t176 96.5q71 0 129 -39.5t139 -136.5q101 -125 193 -125q165 0 174 295h68q-1 -182 -63.5 -277.5t-178.5 -95.5z" />
    <glyph glyph-name="exclamdown" unicode="&#xa1;" horiz-adv-x="534" 
d="M324 1087q38 -33 22 -78t-57 -57t-78 19q-23 25 -23 59t23 57q25 25 57.5 25t55.5 -25zM227 668h78l4 -1178h-86z" />
    <glyph glyph-name="cent" unicode="&#xa2;" horiz-adv-x="1249" 
d="M1073 336l76 -33q-49 -139 -167 -226.5t-286 -94.5v-191h-80v193q-212 21 -354 178q-141 159 -141 383q0 226 141 385q144 159 354 180v195h80v-193q170 -7 288 -93t163 -224l-76 -33q-95 265 -379 274l2 -979q277 12 379 279zM207 549q0 -187 117 -328
q118 -139 294 -160v973q-178 -21 -296 -160q-115 -139 -115 -325z" />
    <glyph glyph-name="sterling" unicode="&#xa3;" horiz-adv-x="1288" 
d="M1149 256l57 -41q-48 -110 -142 -174t-210 -64q-80 0 -203 54q-118 53 -192 53q-104 0 -283 -84l-43 76q173 112 249.5 215t76.5 239q0 84 -62 205h-272v76h231l-22 37q-23 38 -23 39q-3 8 -21.5 39.5t-21.5 38.5q-3 9 -15.5 39.5t-16.5 42.5q-2 9 -6.5 30.5t-7 35t-5 32
t-2.5 33.5q0 166 139 305t340 139q178 0 297 -88t164 -231l-72 -35q-38 128 -138 202t-249 74q-159 0 -278 -110t-119 -256q0 -78 35 -154l31 -66l43 -79l41 -68h464v-76h-424q54 -117 54 -200q0 -243 -230 -406v-2q85 33 170 33q74 0 191 -54q118 -53 184 -53
q192 0 291 203z" />
    <glyph glyph-name="currency" unicode="&#xa4;" horiz-adv-x="1374" 
d="M182 -12l-55 55l197 197q-123 132 -123 313q0 180 121 313l-195 197l55 55l197 -196q131 104 307 104q178 0 309 -104l197 196l55 -55l-194 -195q127 -133 127 -315t-127 -315l194 -195l-55 -55l-199 198q-135 -102 -307 -102q-170 0 -305 102zM686 952q-167 0 -287 -114
q-116 -113 -116 -285t116 -285q119 -110 287 -110q170 0 289 110q121 115 121 285t-121 285q-120 114 -289 114z" />
    <glyph glyph-name="yen" unicode="&#xa5;" horiz-adv-x="1415" 
d="M635 745l-555 859h94l535 -838l530 838h96l-555 -859h437v-73h-469v-289h469v-76h-469v-307h-80v307h-471v76h471v289h-471v73h438z" />
    <glyph glyph-name="brokenbar" unicode="&#xa6;" horiz-adv-x="518" 
d="M299 1825v-799h-80v799h80zM219 561h80v-799h-80v799z" />
    <glyph glyph-name="section" unicode="&#xa7;" horiz-adv-x="1300" 
d="M1071 260q0 -132 -113 -205q-110 -73 -278 -73q-174 0 -291.5 87t-175.5 232l68 39q120 -285 403 -285q138 0 222.5 58t84.5 147q0 96 -104.5 157t-345.5 111q-232 47 -339.5 120t-107.5 183q0 107 105.5 178.5t281.5 75.5v5q-245 85 -245 251q0 128 118 203
q122 78 275 78q158 0 268 -80.5t164 -216.5l-68 -37q-108 260 -368 260q-127 0 -215 -61q-91 -60 -91 -146q0 -93 107 -155.5t344 -112.5q232 -47 338 -119t106 -182q0 -108 -106 -180.5t-281 -73.5v-4q244 -83 244 -254zM758 1004q-144 30 -260 30q-140 0 -232 -57
q-92 -56 -92 -139q0 -82 88 -138t291 -100q143 -33 260 -33q138 0 229 58q95 59 95 141q0 79 -90 136.5t-289 101.5z" />
    <glyph glyph-name="dieresis" unicode="&#xa8;" horiz-adv-x="538" 
d="M33 1450q0 35 23.5 59.5t56.5 24.5q32 0 54.5 -24.5t22.5 -59.5q0 -33 -22.5 -57.5t-54.5 -24.5t-56 25t-24 57zM354 1450q0 35 23.5 59.5t56.5 24.5t56.5 -24.5t23.5 -59.5q0 -32 -24 -57t-56 -25t-56 25t-24 57z" />
    <glyph glyph-name="copyright" unicode="&#xa9;" horiz-adv-x="1855" 
d="M1733 803q0 -337 -238 -578q-236 -239 -569 -239q-334 0 -570 239q-233 239 -233 578q0 341 233 577q237 240 570 240q332 0 569 -240q238 -238 238 -577zM1659 803q0 312 -215 530q-213 219 -518 219t-518 -219t-213 -530q0 -310 213 -529q211 -217 518 -217t518 217
q215 218 215 529zM1368 590q-45 -130 -156 -209.5t-270 -79.5q-206 0 -346 143q-141 144 -141 357q0 212 141 356q145 148 346 148q161 0 270.5 -76.5t153.5 -208.5l-72 -33q-86 244 -352 244q-175 0 -291 -125q-114 -126 -114 -301q0 -177 116 -305q121 -127 291 -127
q258 0 352 248z" />
    <glyph glyph-name="ordfeminine" unicode="&#xaa;" horiz-adv-x="1161" 
d="M872 791v188h-4q-42 -89 -125 -145t-180 -56q-165 0 -270 117t-105 279q0 163 107 276q108 117 270 117q99 0 179.5 -53.5t123.5 -145.5h4v184h74v-761h-74zM874 1171v3q0 130 -86 225q-87 96 -221 96q-133 0 -217 -89.5t-84 -229.5v-2q0 -138 82 -232q83 -92 219 -92
q134 0 219 94q88 94 88 227zM199 537h747v-70h-747v70z" />
    <glyph glyph-name="guillemotleft" unicode="&#xab;" horiz-adv-x="1124" 
d="M481 258l-372 358l372 365l51 -49l-321 -316l321 -309zM909 258l-372 358l372 365l54 -49l-324 -316l324 -309z" />
    <glyph glyph-name="logicalnot" unicode="&#xac;" horiz-adv-x="1343" 
d="M1096 551v436h-953v62h1018v-498h-65z" />
    <glyph glyph-name="registered" unicode="&#xae;" horiz-adv-x="1280" 
d="M639 563q-215 0 -369 154q-151 157 -151 375t151 372q153 156 369 156q219 0 369 -156q153 -153 153 -372t-153 -375q-151 -154 -369 -154zM639 1563q-187 0 -324 -140q-133 -139 -133 -331q0 -195 133 -334q134 -137 324 -137q193 0 324 137q133 139 133 334
q0 192 -133 331q-134 140 -324 140zM455 788v607h209q101 0 157 -49t56 -127q0 -72 -46 -118t-120 -57l176 -256h-76l-170 244h-125v-244h-61zM659 1335h-143v-243h141q96 -4 136.5 59t1 126t-135.5 58z" />
    <glyph glyph-name="overscore" unicode="&#xaf;" horiz-adv-x="765" 
d="M725 1313h-684v76h684v-76z" />
    <glyph glyph-name="degree" unicode="&#xb0;" horiz-adv-x="958" 
d="M121 1262q0 147 104 251q104 107 254 107t254 -107q105 -105 105 -251q0 -149 -105 -254t-254 -105t-254 105q-104 104 -104 254zM276 1462q-83 -83 -83 -200q0 -120 83 -203q84 -84 203 -84t203 84t84 203q0 116 -84 200t-203 84t-203 -84z" />
    <glyph glyph-name="plusminus" unicode="&#xb1;" horiz-adv-x="1308" 
d="M621 825v439h79v-439h443v-73h-443v-445h-79v445h-453v73h453zM168 0v74h975v-74h-975z" />
    <glyph glyph-name="uni00B2" unicode="&#xb2;" horiz-adv-x="946" 
d="M145 872v72l328 270q123 104 175 175.5t52 148.5q0 92 -63.5 152.5t-161.5 60.5q-80 0 -139 -41q-76 -52 -113 -156l-71 31q32 106 118.5 173t202.5 67q135 0 219 -84q86 -83 86 -201q0 -90 -51 -170q-58 -85 -182 -186l-291 -240h532v-72h-641z" />
    <glyph glyph-name="uni00B3" unicode="&#xb3;" horiz-adv-x="880" 
d="M434 856q-117 0 -203 64t-122 174l71 30q30 -89 97.5 -141.5t158.5 -52.5q104 0 174 53.5t70 134.5q0 91 -65.5 143t-180.5 52h-110v67h112q99 0 161 52.5t62 138.5q0 75 -62.5 127.5t-160.5 52.5q-76 0 -141 -41q-76 -55 -111 -151l-71 30q33 107 119.5 171.5
t205.5 64.5q130 0 213 -74q84 -72 84 -178q0 -77 -51.5 -140.5t-126.5 -82.5q89 -19 144 -83t55 -155q0 -103 -92 -180q-88 -76 -230 -76z" />
    <glyph glyph-name="acute" unicode="&#xb4;" horiz-adv-x="366" 
d="M258 1632h92l-248 -352h-73z" />
    <glyph glyph-name="uni00B5" unicode="&#xb5;" horiz-adv-x="1347" 
d="M217 1094h82v-650q0 -107 25 -174q83 -215 340 -215q160 0 272 115q113 116 113 295v629h79v-1094h-79v242q-44 -119 -153 -190.5t-245 -71.5q-256 0 -354 198v-514h-80v1430z" />
    <glyph glyph-name="paragraph" unicode="&#xb6;" horiz-adv-x="1058" 
d="M725 0v827h-225q-175 0 -297 113q-123 114 -123 277q0 160 123 274q122 113 297 113h311v-1604h-86z" />
    <glyph glyph-name="middot" unicode="&#xb7;" horiz-adv-x="503" 
d="M164 645q0 37 25.5 63.5t62.5 26.5t63.5 -26.5t26.5 -63.5q0 -35 -26.5 -61.5t-63.5 -26.5q-36 0 -62 26t-26 62z" />
    <glyph glyph-name="cedilla" unicode="&#xb8;" horiz-adv-x="491" 
d="M102 -494q-30 0 -61 7v69q50 -4 53 -4q133 0 205 74t72 211q0 61 -15 137h68q27 -64 27 -141q0 -211 -154 -303q-80 -50 -195 -50z" />
    <glyph glyph-name="uni00B9" unicode="&#xb9;" horiz-adv-x="577" 
d="M399 1804v-934h-75v852l-226 -131l-32 56l264 157h69z" />
    <glyph glyph-name="ordmasculine" unicode="&#xba;" horiz-adv-x="1161" 
d="M580 778q-168 0 -281 113q-111 114 -111 278q0 169 111 283q115 115 283 115q165 0 278 -113t113 -278q0 -170 -113 -283q-112 -115 -280 -115zM578 1495q-137 0 -226 -92q-88 -91 -88 -229q0 -134 90 -230q88 -94 228 -94q136 0 225 92q90 96 90 229q0 135 -92 230
q-88 94 -227 94zM199 537h764v-70h-764v70z" />
    <glyph glyph-name="guillemotright" unicode="&#xbb;" horiz-adv-x="1124" 
d="M162 307l321 309l-321 316l51 49l375 -365l-375 -358zM592 307l319 309l-319 316l51 49l373 -365l-373 -358z" />
    <glyph glyph-name="onequarter" unicode="&#xbc;" horiz-adv-x="1595" 
d="M410 672h-76v850l-223 -131l-33 55l262 158h70v-932zM1243 1604h88l-1040 -1604h-90zM1272 936h78v-660h157v-69h-157v-207h-74v207h-516v78zM1276 834l-438 -558h438v558z" />
    <glyph glyph-name="onehalf" unicode="&#xbd;" horiz-adv-x="1693" 
d="M410 672h-76v850l-223 -131l-33 55l262 158h70v-932zM1243 1604h88l-1040 -1604h-90zM942 0v72l328 270q123 104 175 175.5t52 148.5q0 92 -63.5 152.5t-161.5 60.5q-80 0 -139 -41q-76 -52 -113 -156l-72 31q32 105 119 172t203 67q135 0 219 -84q86 -83 86 -200
q0 -90 -51 -170q-58 -85 -183 -187l-290 -239h532v-72h-641z" />
    <glyph glyph-name="threequarters" unicode="&#xbe;" horiz-adv-x="1810" 
d="M422 653q-117 0 -203.5 64t-122.5 174l72 31q30 -89 97.5 -142t158.5 -53q104 0 174 53.5t70 134.5q0 91 -65.5 143t-180.5 52h-111v68h113q99 0 161 52t62 138q0 75 -62.5 127.5t-160.5 52.5q-76 0 -141 -41q-76 -55 -111 -151l-72 30q33 106 120 171t206 65
q130 0 213 -74q84 -72 84 -178q0 -77 -51.5 -140.5t-126.5 -82.5q89 -19 143.5 -83t54.5 -155q0 -103 -92 -180q-88 -76 -229 -76zM1462 1604h88l-1040 -1604h-90zM1491 936h78v-660h157v-69h-157v-207h-74v207h-516v78zM1495 834l-438 -558h438v558z" />
    <glyph glyph-name="questiondown" unicode="&#xbf;" horiz-adv-x="1001" 
d="M621 1087q25 -23 25 -57t-25 -59q-23 -23 -55.5 -23t-57.5 25q-23 25 -23 57t23 57q25 25 57.5 25t55.5 -25zM522 717h84v-119q0 -125 -49 -201q-50 -81 -154 -170l-61 -51q-84 -73 -124 -143.5t-40 -167.5q0 -131 92 -223q93 -93 236 -93q119 0 214 76t138 205l74 -37
q-51 -148 -167.5 -234.5t-258.5 -86.5q-177 0 -297 114q-117 114 -117 279q0 120 52.5 209t168.5 184q113 89 164 166q45 68 45 176v117z" />
    <glyph glyph-name="Agrave" unicode="&#xc0;" horiz-adv-x="1538" 
d="M813 1749h-74l-247 354h92zM14 0l709 1604h92l709 -1604h-92l-199 457h-930l-201 -457h-88zM766 1511l-428 -976h860z" />
    <glyph glyph-name="Aacute" unicode="&#xc1;" horiz-adv-x="1538" 
d="M961 2103h92l-248 -354h-76zM815 1604l709 -1604h-92l-199 457h-930l-201 -457h-88l709 1604h92zM338 535h860l-432 976z" />
    <glyph glyph-name="Acircumflex" unicode="&#xc2;" horiz-adv-x="1538" 
d="M1085 1749h-77l-240 291l-238 -291h-77l272 354h88zM815 1604l709 -1604h-92l-199 457h-930l-201 -457h-88l709 1604h92zM338 535h860l-432 976z" />
    <glyph glyph-name="Atilde" unicode="&#xc3;" horiz-adv-x="1538" 
d="M508 1749h-66q-1 118 43.5 186t124.5 68q87 0 189 -105q72 -75 125 -75q107 0 110 178h66q2 -117 -43.5 -185.5t-124.5 -68.5q-50 0 -87 21t-95 79q-80 80 -134 80q-105 0 -108 -178zM815 1604l709 -1604h-92l-199 457h-930l-201 -457h-88l709 1604h92zM338 535h860
l-432 976z" />
    <glyph glyph-name="Adieresis" unicode="&#xc4;" horiz-adv-x="1538" 
d="M543 1862q-23 25 -23 59t23 57q23 25 55 25t55 -25q25 -23 25 -57t-25 -59q-23 -23 -55 -23t-55 23zM940 2003q50 2 70.5 -40t0 -84t-70.5 -40q-47 -4 -66.5 39t0 86t66.5 39zM815 1604l709 -1604h-92l-199 457h-930l-201 -457h-88l709 1604h92zM338 535h860l-432 976z
" />
    <glyph glyph-name="Aring" unicode="&#xc5;" horiz-adv-x="1538" 
d="M561 1733q0 85 60 144.5t145 59.5t145 -59.5t60 -144.5q0 -63 -35.5 -112.5t-95.5 -72.5l684 -1548h-92l-199 457h-930l-201 -457h-88l682 1546q-61 20 -98 71t-37 116zM766 1870q-58 0 -95.5 -38t-37.5 -97q0 -57 38 -97.5t95 -40.5t95 40.5t38 97.5q0 56 -39 95.5
t-94 39.5zM766 1511l-428 -976h860z" />
    <glyph glyph-name="AE" unicode="&#xc6;" horiz-adv-x="2086" 
d="M1952 1528h-840v-672h768v-78h-768v-700h848v-78h-932v457h-672l-276 -457h-92l970 1604h994v-76zM1001 1528l-600 -993h627v993h-27z" />
    <glyph glyph-name="Ccedilla" unicode="&#xc7;" horiz-adv-x="1716" 
d="M1550 522l74 -35q-62 -172 -213 -315q-81 -78 -198 -128.5t-248 -57.5l-7 -2q21 -52 21 -125q0 -214 -154 -303q-80 -50 -194 -50q-30 0 -62 7v69q50 -4 54 -4q135 0 205.5 73t70.5 212q0 61 -12 119l-6 2q-334 9 -547 241q-213 239 -213 576q0 346 223 581
q225 240 565 240q142 0 267.5 -45.5t212.5 -122.5q167 -145 231 -334l-74 -35q-60 168 -205 301q-77 74 -190.5 116t-245.5 42q-302 0 -502 -215q-196 -214 -196 -522q0 -311 196 -528q202 -220 504 -220q138 0 257 47t196 127q132 138 190 289z" />
    <glyph glyph-name="Egrave" unicode="&#xc8;" horiz-adv-x="1337" 
d="M772 1749h-74l-247 354h92zM1130 778h-806v-700h886v-78h-972v1604h962v-76h-876v-672h806v-78z" />
    <glyph glyph-name="Eacute" unicode="&#xc9;" horiz-adv-x="1337" 
d="M901 2103h92l-248 -354h-73zM324 856h806v-78h-806v-700h886v-78h-972v1604h962v-76h-876v-672z" />
    <glyph glyph-name="Ecircumflex" unicode="&#xca;" horiz-adv-x="1337" 
d="M1040 1749h-77l-238 291l-240 -291h-77l272 354h88zM324 856h806v-78h-806v-700h886v-78h-972v1604h962v-76h-876v-672z" />
    <glyph glyph-name="Edieresis" unicode="&#xcb;" horiz-adv-x="1337" 
d="M489 1862q-23 25 -23 59t23 57q25 25 57.5 25t55.5 -25q23 -23 23 -57t-23 -59q-23 -23 -55.5 -23t-57.5 23zM831 1864q-23 25 -23 57t23 57q25 25 57.5 25t55.5 -25q38 -33 22 -78.5t-57 -57t-78 21.5zM1200 1528h-876v-672h806v-78h-806v-700h886v-78h-972v1604h962
v-76z" />
    <glyph glyph-name="Igrave" unicode="&#xcc;" horiz-adv-x="561" 
d="M324 1749h-74l-250 354h92zM238 0v1604h86v-1604h-86z" />
    <glyph glyph-name="Iacute" unicode="&#xcd;" horiz-adv-x="561" 
d="M469 2103h92l-250 -354h-73zM324 1604v-1604h-86v1604h86z" />
    <glyph glyph-name="Icircumflex" unicode="&#xce;" horiz-adv-x="561" 
d="M598 1749h-80l-237 291l-238 -291h-80l273 354h90zM324 1604v-1604h-86v1604h86z" />
    <glyph glyph-name="Idieresis" unicode="&#xcf;" horiz-adv-x="561" 
d="M41 1919q0 35 23.5 59.5t56.5 24.5q32 0 55 -24.5t23 -59.5q0 -33 -23 -57.5t-55 -24.5t-56 25t-24 57zM362 1919q0 35 23.5 59.5t56.5 24.5t56.5 -24.5t23.5 -59.5q0 -32 -24 -57t-56 -25t-56 25t-24 57zM324 1604v-1604h-86v1604h86z" />
    <glyph glyph-name="Eth" unicode="&#xd0;" horiz-adv-x="1642" 
d="M240 856v748h426q370 0 612 -230q246 -228 246 -573q0 -352 -244 -578q-241 -223 -614 -223h-426v778h-168v78h168zM324 778v-700h344q333 0 551 203q219 204 219 518q0 316 -221 522q-219 207 -551 207h-342v-672h557v-78h-557z" />
    <glyph glyph-name="Ntilde" unicode="&#xd1;" horiz-adv-x="1742" 
d="M610 1749h-65q-1 118 43.5 186t124.5 68q86 0 188 -105q72 -75 125 -75q108 0 111 178h65q2 -117 -43.5 -185.5t-124.5 -68.5q-50 0 -87 21t-95 79q-80 80 -133 80q-106 0 -109 -178zM322 0h-84v1604h102l1081 -1483v1483h84v-1604h-96l-1087 1491v-1491z" />
    <glyph glyph-name="Ograve" unicode="&#xd2;" horiz-adv-x="1818" 
d="M952 1749h-73l-250 354h92zM907 -16q-340 0 -563 235t-223 582q0 346 223 581q225 240 565 240t566 -238q223 -235 223 -579q0 -347 -225 -584t-566 -237zM907 1544q-301 0 -501 -215q-199 -214 -199 -522q0 -314 199 -531t505 -217q302 0 502 215q199 217 199 525
q0 307 -201 526t-504 219z" />
    <glyph glyph-name="Oacute" unicode="&#xd3;" horiz-adv-x="1816" 
d="M1098 2103h92l-250 -354h-74zM907 -16q-340 0 -563 235t-223 582q0 346 223 581q225 240 565 240t566 -238q223 -235 223 -579q0 -347 -225 -584t-566 -237zM907 1544q-301 0 -501 -215q-199 -214 -199 -522q0 -314 199 -531t505 -217q302 0 502 215q199 217 199 525
q0 307 -201 526t-504 219z" />
    <glyph glyph-name="Ocircumflex" unicode="&#xd4;" horiz-adv-x="1816" 
d="M1225 1749h-78l-240 291l-237 -291h-78l270 354h90zM907 -16q-340 0 -563 235t-223 582q0 346 223 581q225 240 565 240t566 -238q223 -235 223 -579q0 -347 -225 -584t-566 -237zM907 1544q-301 0 -501 -215q-199 -214 -199 -522q0 -314 199 -531t505 -217
q302 0 502 215q199 217 199 525q0 307 -201 526t-504 219z" />
    <glyph glyph-name="Otilde" unicode="&#xd5;" horiz-adv-x="1816" 
d="M647 1749h-65q-1 118 43.5 186t124.5 68q86 0 188 -105q72 -75 125 -75q108 0 111 178h65q2 -117 -43.5 -185.5t-124.5 -68.5q-50 0 -87 21t-95 79q-80 80 -133 80q-106 0 -109 -178zM907 -16q-340 0 -563 235t-223 582q0 346 223 581q225 240 565 240t566 -238
q223 -235 223 -579q0 -347 -225 -584t-566 -237zM907 1544q-301 0 -501 -215q-199 -214 -199 -522q0 -314 199 -531t505 -217q302 0 502 215q199 217 199 525q0 307 -201 526t-504 219z" />
    <glyph glyph-name="Odieresis" unicode="&#xd6;" horiz-adv-x="1816" 
d="M682 1862q-23 25 -23 59t23 57q23 25 55.5 25t55.5 -25q25 -23 25 -57t-25 -59q-23 -23 -55.5 -23t-55.5 23zM1024 1862q-23 25 -23 59t23 57q23 25 55.5 25t55.5 -25q25 -23 25 -57t-25 -59q-23 -23 -55.5 -23t-55.5 23zM907 -16q-340 0 -563 235t-223 582
q0 346 223 581q225 240 565 240t566 -238q223 -235 223 -579q0 -347 -225 -584t-566 -237zM907 1544q-301 0 -501 -215q-199 -214 -199 -522q0 -314 199 -531t505 -217q302 0 502 215q199 217 199 525q0 307 -201 526t-504 219z" />
    <glyph glyph-name="multiply" unicode="&#xd7;" horiz-adv-x="1200" 
d="M178 1139l418 -428l420 432l53 -53l-422 -435l422 -432l-53 -53l-420 432l-410 -420l-53 54l410 419l-418 432z" />
    <glyph glyph-name="Oslash" unicode="&#xd8;" horiz-adv-x="1824" 
d="M1651 1681l55 -51l-225 -250q221 -235 221 -575q0 -347 -225 -584t-566 -237q-299 0 -510 184l-223 -250l-55 51l223 250q-221 238 -221 582q0 346 223 581q225 240 565 240q297 0 514 -190zM211 807q0 -311 192 -524l969 1085q-197 176 -461 176q-301 0 -501 -215
q-199 -214 -199 -522zM915 59q302 0 502 215q199 217 199 525q0 301 -193 518l-968 -1086q193 -172 460 -172z" />
    <glyph glyph-name="Ugrave" unicode="&#xd9;" horiz-adv-x="1597" 
d="M854 1749h-76l-248 354h93zM1296 1604h84v-975q0 -296 -151 -473q-149 -174 -428 -174q-285 0 -434 174q-152 178 -152 469v979h86v-977q0 -274 133 -421t369 -147q243 0 368 149t125 417v979z" />
    <glyph glyph-name="Uacute" unicode="&#xda;" horiz-adv-x="1597" 
d="M979 2103h90l-248 -354h-73zM1296 1604h84v-975q0 -296 -151 -473q-149 -174 -428 -174q-285 0 -434 174q-152 178 -152 469v979h86v-977q0 -274 133 -421t369 -147q243 0 368 149t125 417v979z" />
    <glyph glyph-name="Ucircumflex" unicode="&#xdb;" horiz-adv-x="1597" 
d="M1116 1749h-80l-237 291l-238 -291h-80l273 354h90zM1296 1604h84v-975q0 -296 -151 -473q-149 -174 -428 -174q-285 0 -434 174q-152 178 -152 469v979h86v-977q0 -274 133 -421t369 -147q243 0 368 149t125 417v979z" />
    <glyph glyph-name="Udieresis" unicode="&#xdc;" horiz-adv-x="1597" 
d="M571 1864q-23 25 -23 57t23 57q25 25 57.5 25t55.5 -25q38 -33 22 -78.5t-57 -57t-78 21.5zM915 1862q-23 25 -23 59t23 57q23 25 55.5 25t55.5 -25q25 -23 25 -57t-25 -59q-23 -23 -55.5 -23t-55.5 23zM1296 1604h84v-975q0 -296 -151 -473q-149 -174 -428 -174
q-285 0 -434 174q-152 178 -152 469v979h86v-977q0 -274 133 -421t369 -147q243 0 368 149t125 417v979z" />
    <glyph glyph-name="Yacute" unicode="&#xdd;" horiz-adv-x="1468" 
d="M911 2103h93l-250 -354h-74zM735 766l570 838h100l-629 -916v-688h-84v688l-629 916h103z" />
    <glyph glyph-name="Thorn" unicode="&#xde;" horiz-adv-x="1355" 
d="M322 1606v-320h368q301 0 445 -135q143 -134 143 -330q0 -210 -154 -346q-153 -135 -452 -135h-350v-340h-84v1606h84zM322 1208v-790h350q267 0 393 114q127 115 127 283q0 165 -123 279q-120 114 -387 114h-360z" />
    <glyph glyph-name="germandbls" unicode="&#xdf;" horiz-adv-x="1284" 
d="M1130 279q0 89 -56 152.5t-187 127.5q-159 81 -220 138t-61 134q0 70 43 131.5t146 149.5q96 81 133 130t37 101q0 113 -86.5 183.5t-227.5 70.5q-176 0 -276.5 -124.5t-100.5 -335.5v-1137h-79v1133q0 250 122 393q126 147 334 147q184 0 291 -94q109 -92 109 -233
q0 -72 -44 -133t-157 -154q-89 -73 -124.5 -122.5t-35.5 -102.5q0 -55 51 -97q49 -38 195 -114q159 -81 217 -160q59 -83 59 -180q0 -137 -102 -220q-100 -81 -240 -81q-262 0 -381 223l68 45q102 -193 315 -193q101 0 179 60q79 61 79 162z" />
    <glyph glyph-name="agrave" unicode="&#xe0;" horiz-adv-x="1157" 
d="M641 1280h-74l-250 352h93zM979 0h-82v242q-61 -123 -172.5 -191.5t-243.5 -68.5q-158 0 -262 79q-104 82 -104 232q0 156 127 233q130 80 301 80h354v76q0 167 -87 260.5t-247 93.5q-251 0 -364 -223l-72 41q57 121 168 189.5t266 68.5q193 0 305.5 -112t112.5 -312
v-688zM899 449v83h-352q-135 0 -244 -59q-104 -58 -104 -178q0 -113 78 -175.5t206 -62.5q176 0 295 107q121 109 121 285z" />
    <glyph glyph-name="aacute" unicode="&#xe1;" horiz-adv-x="1157" 
d="M754 1632h92l-250 -352h-74zM979 0h-82v242q-61 -123 -172.5 -191.5t-243.5 -68.5q-158 0 -262 79q-104 82 -104 232q0 156 127 233q130 80 301 80h354v76q0 167 -87 260.5t-247 93.5q-251 0 -364 -223l-72 41q57 121 168 189.5t266 68.5q193 0 305.5 -112t112.5 -312
v-688zM899 449v83h-352q-135 0 -244 -59q-104 -58 -104 -178q0 -113 78 -175.5t206 -62.5q176 0 295 107q121 109 121 285z" />
    <glyph glyph-name="acircumflex" unicode="&#xe2;" horiz-adv-x="1157" 
d="M881 1280h-78l-240 291l-237 -291h-78l270 352h90zM979 0h-82v242q-61 -123 -172.5 -191.5t-243.5 -68.5q-158 0 -262 79q-104 82 -104 232q0 156 127 233q130 80 301 80h354v76q0 167 -87 260.5t-247 93.5q-251 0 -364 -223l-72 41q57 121 168 189.5t266 68.5
q193 0 305.5 -112t112.5 -312v-688zM899 449v83h-352q-135 0 -244 -59q-104 -58 -104 -178q0 -113 78 -175.5t206 -62.5q176 0 295 107q121 109 121 285z" />
    <glyph glyph-name="atilde" unicode="&#xe3;" horiz-adv-x="1157" 
d="M299 1280h-66q-1 118 43.5 186t124.5 68q88 0 189 -104q73 -76 125 -76q107 0 110 178h66q2 -117 -43.5 -185.5t-124.5 -68.5q-50 0 -87 21t-95 79q-80 80 -133 80q-106 0 -109 -178zM979 0h-82v242q-61 -123 -172.5 -191.5t-243.5 -68.5q-158 0 -262 79
q-104 82 -104 232q0 156 127 233q130 80 301 80h354v76q0 167 -87 260.5t-247 93.5q-251 0 -364 -223l-72 41q57 121 168 189.5t266 68.5q193 0 305.5 -112t112.5 -312v-688zM899 449v83h-352q-135 0 -244 -59q-104 -58 -104 -178q0 -113 78 -175.5t206 -62.5q176 0 295 107
q121 109 121 285z" />
    <glyph glyph-name="adieresis" unicode="&#xe4;" horiz-adv-x="1157" 
d="M309 1450q0 35 23.5 59.5t56.5 24.5t56.5 -24.5t23.5 -59.5q0 -32 -24 -57t-56 -25t-56 25t-24 57zM633 1450q0 35 23.5 59.5t56.5 24.5t56.5 -24.5t23.5 -59.5q0 -32 -24 -57t-56 -25t-56 25t-24 57zM979 0h-82v242q-61 -123 -172.5 -191.5t-243.5 -68.5q-158 0 -262 79
q-104 82 -104 232q0 156 127 233q130 80 301 80h354v76q0 167 -87 260.5t-247 93.5q-251 0 -364 -223l-72 41q57 121 168 189.5t266 68.5q193 0 305.5 -112t112.5 -312v-688zM899 449v83h-352q-135 0 -244 -59q-104 -58 -104 -178q0 -113 78 -175.5t206 -62.5q176 0 295 107
q121 109 121 285z" />
    <glyph glyph-name="aring" unicode="&#xe5;" horiz-adv-x="1157" 
d="M700 1094q132 -36 205.5 -141t73.5 -265v-688h-82v242q-61 -123 -172.5 -191.5t-243.5 -68.5q-158 0 -262 79q-104 82 -104 232q0 156 127 233q130 80 301 80h354v76q0 167 -87 260.5t-247 93.5q-251 0 -364 -223l-72 41q89 189 293 242q-66 57 -66 137q0 85 60 144
t145 59q86 0 145.5 -59t59.5 -144q0 -81 -64 -139zM559 1366q-43 4 -76 -21t-47 -61.5t-8 -79t35 -71.5q28 -29 70 -35t78 7.5t60.5 47.5t20.5 78q0 56 -39 95.5t-94 39.5zM899 449v83h-352q-135 0 -244 -59q-104 -58 -104 -178q0 -113 78 -175.5t206 -62.5q176 0 295 107
q121 109 121 285z" />
    <glyph glyph-name="ae" unicode="&#xe6;" horiz-adv-x="1955" 
d="M885 805q-59 231 -322 231q-251 0 -364 -223l-72 41q57 121 168 189.5t266 68.5q272 0 373 -223q70 101 181.5 162t234.5 61q104 0 189 -31.5t141.5 -84.5t95.5 -125.5t56 -152.5t17 -167v-19h-944q3 -191 133 -333q133 -142 330 -142q123 0 224 61t157 165l70 -45
q-64 -118 -184.5 -187t-268.5 -69q-141 0 -259.5 66t-191.5 183q-61 -117 -176.5 -183t-253.5 -66h-4q-158 0 -262 79q-104 82 -104 232q0 156 127 233q130 80 301 80h286q9 106 56 199zM905 606h858q-9 176 -110 301q-102 129 -307 129q-174 0 -302 -131
q-130 -130 -139 -299zM874 307q-44 102 -47 225h-280q-135 0 -244 -59q-104 -58 -104 -178q0 -113 78 -175.5t206 -62.5q121 0 236 68q111 65 155 182z" />
    <glyph glyph-name="ccedilla" unicode="&#xe7;" horiz-adv-x="1239" 
d="M1063 336l76 -33q-46 -130 -153.5 -216t-262.5 -103q18 -55 18 -125q0 -211 -151 -303q-80 -50 -197 -50q-31 0 -59 7v69q46 -4 51 -4q135 0 206 73t71 212q0 56 -13 119q-228 3 -383 165t-155 398q0 239 159 403t389 164q179 0 304 -86.5t174 -230.5l-76 -33
q-99 274 -402 274q-200 0 -331 -143t-131 -344t133 -346q137 -146 332 -146q293 0 401 279z" />
    <glyph glyph-name="egrave" unicode="&#xe8;" horiz-adv-x="1243" 
d="M449 1632l231 -352h-74l-250 352h93zM1139 532v19q0 237 -125 399t-377 162q-223 0 -375 -168q-151 -171 -151 -391v-4q0 -233 153 -402q155 -165 389 -165q148 0 270 69t185 187l-70 45q-56 -104 -157 -165t-224 -61q-199 0 -329 142q-128 140 -131 333h942zM197 606
q9 168 137 299t299 131q86 0 157 -26t118 -68.5t80 -99.5t48.5 -115.5t18.5 -120.5h-858z" />
    <glyph glyph-name="eacute" unicode="&#xe9;" horiz-adv-x="1243" 
d="M819 1632h92l-249 -352h-74zM1139 551v-19h-942q3 -193 131 -333q130 -142 329 -142q123 0 224 61t157 165l70 -45q-63 -118 -185 -187t-270 -69q-234 0 -389 165q-153 169 -153 402v4q0 220 151 391q152 168 375 168q252 0 377 -162t125 -399zM197 606h858
q-3 62 -18.5 120.5t-48.5 115.5t-80 99.5t-118 68.5t-157 26q-171 0 -299 -131t-137 -299z" />
    <glyph glyph-name="ecircumflex" unicode="&#xea;" horiz-adv-x="1243" 
d="M956 1280h-77l-240 291l-238 -291h-77l272 352h88zM1139 551v-19h-942q3 -193 131 -333q130 -142 329 -142q123 0 224 61t157 165l70 -45q-63 -118 -185 -187t-270 -69q-234 0 -389 165q-153 169 -153 402v4q0 220 151 391q152 168 375 168q252 0 377 -162t125 -399z
M197 606h858q-3 62 -18.5 120.5t-48.5 115.5t-80 99.5t-118 68.5t-157 26q-171 0 -299 -131t-137 -299z" />
    <glyph glyph-name="edieresis" unicode="&#xeb;" horiz-adv-x="1243" 
d="M391 1450q0 35 23.5 59.5t56.5 24.5t56.5 -24.5t23.5 -59.5q0 -32 -24 -57t-56 -25t-56 25t-24 57zM715 1450q0 35 23.5 59.5t56.5 24.5q32 0 55.5 -24.5t23.5 -59.5q0 -33 -23.5 -57.5t-55.5 -24.5t-56 25t-24 57zM1139 551v-19h-942q3 -193 131 -333q130 -142 329 -142
q123 0 224 61t157 165l70 -45q-63 -118 -185 -187t-270 -69q-234 0 -389 165q-153 169 -153 402v4q0 220 151 391q152 168 375 168q252 0 377 -162t125 -399zM197 606h858q-3 62 -18.5 120.5t-48.5 115.5t-80 99.5t-118 68.5t-157 26q-171 0 -299 -131t-137 -299z" />
    <glyph glyph-name="igrave" unicode="&#xec;" horiz-adv-x="471" 
d="M279 1280h-74l-250 352h92zM195 1094h81v-1094h-81v1094z" />
    <glyph glyph-name="iacute" unicode="&#xed;" horiz-adv-x="473" 
d="M426 1632h90l-248 -352h-73zM195 1094h84v-1094h-84v1094z" />
    <glyph glyph-name="icircumflex" unicode="&#xee;" horiz-adv-x="473" 
d="M555 1280h-80l-239 291l-238 -291h-80l272 352h93zM195 1094h84v-1094h-84v1094z" />
    <glyph glyph-name="idieresis" unicode="&#xef;" horiz-adv-x="473" 
d="M-2 1450q0 35 23.5 59.5t56.5 24.5t56.5 -24.5t23.5 -59.5q0 -32 -24 -57t-56 -25t-56 25t-24 57zM322 1450q0 35 22.5 59.5t54.5 24.5q33 0 56.5 -24.5t23.5 -59.5q0 -32 -24 -57t-56 -25t-54.5 24.5t-22.5 57.5zM195 1094h84v-1094h-84v1094z" />
    <glyph glyph-name="eth" unicode="&#xf0;" horiz-adv-x="1345" 
d="M948 1630l33 -63l-244 -113q488 -395 488 -864v-15q0 -247 -162 -421q-163 -172 -397 -172q-239 0 -396 161q-159 163 -159 400q0 232 155 397q156 166 391 166q261 0 449 -234h2q-121 292 -453 545l-346 -157l-33 63l314 143q-48 35 -215 144l43 63q146 -88 256 -168z
M668 57q198 0 338 146q139 148 139 352q0 107 -21 184q-41 106 -178 197q-136 92 -282 92q-203 0 -336 -139q-131 -137 -131 -340q0 -205 133 -350q133 -142 338 -142z" />
    <glyph glyph-name="ntilde" unicode="&#xf1;" horiz-adv-x="1284" 
d="M389 1280h-65q-1 118 43.5 186t124.5 68q87 0 188 -104q73 -76 125 -76q107 0 110 178h66q2 -117 -43.5 -185.5t-124.5 -68.5q-50 0 -87 21t-95 79q-80 80 -133 80q-106 0 -109 -178zM672 1112q201 0 317.5 -125t116.5 -330v-657h-80v641q0 188 -96.5 291.5t-270.5 103.5
q-159 0 -272 -116q-111 -114 -111 -291v-629h-81v1094h81v-242q44 119 152 189.5t244 70.5z" />
    <glyph glyph-name="ograve" unicode="&#xf2;" horiz-adv-x="1343" 
d="M717 1280h-74l-250 352h92zM672 -18q-239 0 -400 161t-161 400q0 242 161 403q163 166 402 166t397 -162q162 -162 162 -399q0 -238 -160 -406q-159 -163 -401 -163zM668 1036q-203 0 -338 -141q-133 -142 -133 -346t135 -348t340 -144q204 0 340 142q135 141 135 346
q0 208 -137 348q-137 143 -342 143z" />
    <glyph glyph-name="oacute" unicode="&#xf3;" horiz-adv-x="1341" 
d="M864 1632h92l-247 -352h-74zM672 -18q-239 0 -400 161t-161 400q0 242 161 403q163 166 402 166q237 0 395 -162q162 -162 162 -399q0 -238 -160 -406q-159 -163 -399 -163zM668 1036q-203 0 -338 -141q-133 -142 -133 -346t135 -348t340 -144q204 0 340 142
q135 141 135 346q0 208 -137 348q-137 143 -342 143z" />
    <glyph glyph-name="ocircumflex" unicode="&#xf4;" horiz-adv-x="1341" 
d="M987 1280h-78l-237 291l-240 -291h-78l273 352h90zM672 -18q-239 0 -400 161t-161 400q0 242 161 403q163 166 402 166q237 0 395 -162q162 -162 162 -399q0 -238 -160 -406q-159 -163 -399 -163zM668 1036q-203 0 -338 -141q-133 -142 -133 -346t135 -348t340 -144
q204 0 340 142q135 141 135 346q0 208 -137 348q-137 143 -342 143z" />
    <glyph glyph-name="otilde" unicode="&#xf5;" horiz-adv-x="1341" 
d="M410 1280h-66q-1 118 43.5 186t124.5 68q87 0 188 -104q73 -76 125 -76q108 0 111 178h65q2 -117 -43 -185.5t-124 -68.5q-50 0 -87.5 21t-95.5 79q-80 80 -133 80q-105 0 -108 -178zM672 -18q-239 0 -400 161t-161 400q0 242 161 403q163 166 402 166q237 0 395 -162
q162 -162 162 -399q0 -238 -160 -406q-159 -163 -399 -163zM668 1036q-203 0 -338 -141q-133 -142 -133 -346t135 -348t340 -144q204 0 340 142q135 141 135 346q0 208 -137 348q-137 143 -342 143z" />
    <glyph glyph-name="odieresis" unicode="&#xf6;" horiz-adv-x="1341" 
d="M432 1450q0 35 23.5 59.5t56.5 24.5t56.5 -24.5t23.5 -59.5q0 -32 -24 -57t-56 -25t-56 25t-24 57zM756 1450q0 35 23.5 59.5t56.5 24.5q32 0 55.5 -24.5t23.5 -59.5q0 -33 -23.5 -57.5t-55.5 -24.5t-56 25t-24 57zM670 -18q-237 0 -398 161t-161 400q0 241 159 405
q164 164 402 164q239 0 397 -162q162 -162 162 -399q0 -238 -160 -406q-159 -163 -401 -163zM668 1036q-203 0 -338 -141q-133 -142 -133 -346t135 -348t340 -144q204 0 340 142q135 141 135 346q0 208 -137 348q-137 143 -342 143z" />
    <glyph glyph-name="divide" unicode="&#xf7;" horiz-adv-x="1361" 
d="M768 1176q0 -35 -26.5 -60.5t-61.5 -25.5t-60.5 25.5t-25.5 60.5q0 37 25.5 62.5t60.5 25.5q36 0 62 -26t26 -62zM1178 807v-76h-994v76h994zM768 356q0 -36 -26 -62t-62 -26q-35 0 -60.5 25.5t-25.5 62.5q0 35 25.5 60.5t60.5 25.5t61.5 -25.5t26.5 -60.5z" />
    <glyph glyph-name="oslash" unicode="&#xf8;" horiz-adv-x="1347" 
d="M1186 1161l49 -45l-158 -172q156 -164 156 -393q0 -238 -160 -406q-159 -163 -399 -163q-206 0 -355 122l-153 -170l-51 48l153 170q-153 159 -153 391q0 241 159 405q164 164 402 164q202 0 352 -123zM672 1036q-206 0 -338 -141q-133 -142 -133 -346q0 -201 123 -336
l653 715q-132 108 -305 108zM676 57q204 0 340 142q135 141 135 346q0 199 -127 338l-653 -717q130 -109 305 -109z" />
    <glyph glyph-name="ugrave" unicode="&#xf9;" horiz-adv-x="1284" 
d="M692 1280h-74l-247 352h92zM612 -20q-202 0 -319 126q-115 127 -115 328v660h80v-643q0 -188 97 -292t270 -104q160 0 272 115q113 116 113 295v629h80v-1094h-80v242q-44 -119 -153 -190.5t-245 -71.5z" />
    <glyph glyph-name="uacute" unicode="&#xfa;" horiz-adv-x="1284" 
d="M817 1632h92l-250 -352h-73zM614 -20q-206 0 -321 124q-115 127 -115 330v660h82v-643q0 -188 97 -292t270 -104q158 0 270 115q113 116 113 295v629h80v-1094h-80v242q-44 -119 -152.5 -190.5t-243.5 -71.5z" />
    <glyph glyph-name="ucircumflex" unicode="&#xfb;" horiz-adv-x="1284" 
d="M950 1280h-78l-237 291l-240 -291h-78l271 352h92zM614 -20q-206 0 -321 124q-115 127 -115 330v660h82v-643q0 -188 97 -292t270 -104q158 0 270 115q113 116 113 295v629h80v-1094h-80v242q-44 -119 -152.5 -190.5t-243.5 -71.5z" />
    <glyph glyph-name="udieresis" unicode="&#xfc;" horiz-adv-x="1284" 
d="M393 1450q0 35 23.5 59.5t56.5 24.5t56.5 -24.5t23.5 -59.5q0 -32 -24 -57t-56 -25t-56 25t-24 57zM717 1450q0 35 23.5 59.5t56.5 24.5t56.5 -24.5t23.5 -59.5q0 -32 -24 -57t-56 -25t-56 25t-24 57zM612 -20q-202 0 -319 126q-115 127 -115 328v660h80v-643
q0 -188 97 -292t270 -104q160 0 272 115q113 116 113 295v629h80v-1094h-80v242q-44 -119 -153 -190.5t-245 -71.5z" />
    <glyph glyph-name="yacute" unicode="&#xfd;" horiz-adv-x="1185" 
d="M776 1632h92l-250 -352h-73zM1057 1094h86l-776 -1633h-86l284 602l-514 1031h92l467 -942z" />
    <glyph glyph-name="thorn" unicode="&#xfe;" horiz-adv-x="1376" 
d="M195 1667h79v-870q58 142 181.5 228.5t279.5 86.5q231 0 381 -166t150 -397q0 -229 -150 -399q-147 -166 -381 -166q-157 0 -280.5 86t-180.5 225v-834h-79v2206zM731 61q203 0 326 138q125 137 125 346v2q0 207 -127 346q-126 141 -324 141q-202 0 -332 -145
q-129 -144 -129 -338v-6q0 -197 131 -340q132 -144 330 -144z" />
    <glyph glyph-name="ydieresis" unicode="&#xff;" horiz-adv-x="1183" 
d="M358 1450q0 35 23.5 59.5t56.5 24.5t56.5 -24.5t23.5 -59.5q0 -32 -24 -57t-56 -25t-56 25t-24 57zM682 1450q0 35 23.5 59.5t56.5 24.5t56.5 -24.5t23.5 -59.5q0 -32 -24 -57t-56 -25t-56 25t-24 57zM1055 1094h86l-774 -1633h-86l284 602l-514 1031h90l467 -942z" />
    <glyph glyph-name="Amacron" unicode="&#x100;" horiz-adv-x="1538" 
d="M1110 1802h-684v76h684v-76zM815 1604l709 -1604h-92l-199 457h-930l-201 -457h-88l709 1604h92zM338 535h860l-432 976z" />
    <glyph glyph-name="amacron" unicode="&#x101;" horiz-adv-x="1157" 
d="M897 1313h-684v76h684v-76zM979 0h-82v242q-61 -123 -172.5 -191.5t-243.5 -68.5q-158 0 -262 79q-104 82 -104 232q0 156 127 233q130 80 301 80h354v76q0 167 -87 260.5t-247 93.5q-251 0 -364 -223l-72 41q57 121 168 189.5t266 68.5q193 0 305.5 -112t112.5 -312
v-688zM899 449v83h-352q-135 0 -244 -59q-104 -58 -104 -178q0 -113 78 -175.5t206 -62.5q176 0 295 107q121 109 121 285z" />
    <glyph glyph-name="Abreve" unicode="&#x102;" horiz-adv-x="1538" 
d="M1010 2099h59q0 -150 -84 -238.5t-221 -88.5q-138 0 -222.5 88t-84.5 239h59q6 -119 70 -186.5t178 -67.5t177.5 68t68.5 186zM815 1604l709 -1604h-92l-199 457h-930l-201 -457h-88l709 1604h92zM338 535h860l-432 976z" />
    <glyph glyph-name="abreve" unicode="&#x103;" horiz-adv-x="1157" 
d="M803 1608h59q0 -151 -84 -239.5t-221 -88.5q-138 0 -222.5 88.5t-84.5 239.5h59q6 -119 70 -186.5t178 -67.5t177.5 68t68.5 186zM979 0h-82v242q-61 -123 -172.5 -191.5t-243.5 -68.5q-158 0 -262 79q-104 82 -104 232q0 156 127 233q130 80 301 80h354v76
q0 167 -87 260.5t-247 93.5q-251 0 -364 -223l-72 41q57 121 168 189.5t266 68.5q193 0 305.5 -112t112.5 -312v-688zM899 449v83h-352q-135 0 -244 -59q-104 -58 -104 -178q0 -113 78 -175.5t206 -62.5q176 0 295 107q121 109 121 285z" />
    <glyph glyph-name="Aogonek" unicode="&#x104;" horiz-adv-x="1538" 
d="M1593 -422v-72q-30 -6 -59 -6q-114 0 -190 62.5t-76 169.5q0 133 176 268h-12l-199 457h-930l-201 -457h-88l709 1604h92l709 -1604q-75 -57 -124.5 -122.5t-49.5 -127.5q0 -90 69.5 -134t173.5 -38zM338 535h860l-432 976z" />
    <glyph glyph-name="aogonek" unicode="&#x105;" horiz-adv-x="1157" 
d="M805 -250q0 -90 70 -134t174 -38v-72q-30 -6 -60 -6q-114 0 -190 62.5t-76 169.5q0 136 176 268h-2v242q-61 -123 -172.5 -191.5t-243.5 -68.5q-158 0 -262 79q-104 82 -104 232q0 156 127 233q130 80 301 80h354v76q0 167 -87 260.5t-247 93.5q-251 0 -364 -223l-72 41
q57 121 168 189.5t266 68.5q193 0 305.5 -112t112.5 -312v-688q-75 -57 -124.5 -122.5t-49.5 -127.5zM483 57q176 0 295 107q121 109 121 285v83h-352q-135 0 -244 -59q-104 -58 -104 -178q0 -113 78 -175.5t206 -62.5z" />
    <glyph glyph-name="Cacute" unicode="&#x106;" horiz-adv-x="1716" 
d="M1096 2103h92l-250 -354h-74zM1550 522l74 -35q-64 -180 -229 -329q-87 -80 -215.5 -127t-274.5 -47q-344 0 -563 235q-221 238 -221 582q0 346 223 581q225 240 565 240q142 0 267.5 -45.5t212.5 -122.5q167 -145 231 -334l-74 -35q-60 168 -205 301q-77 74 -190.5 116
t-245.5 42q-302 0 -502 -215q-196 -214 -196 -522q0 -311 196 -528q202 -220 504 -220q138 0 257 47t196 127q132 138 190 289z" />
    <glyph glyph-name="cacute" unicode="&#x107;" horiz-adv-x="1239" 
d="M848 1632h90l-248 -352h-74zM659 -18q-234 0 -391 161q-157 165 -157 402q0 239 159 403t389 164q179 0 304 -86.5t174 -230.5l-76 -33q-99 274 -402 274q-200 0 -331 -143t-131 -344t133 -346q137 -146 332 -146q293 0 401 279l76 -33q-52 -143 -177 -232t-303 -89z" />
    <glyph glyph-name="Ccircumflex" unicode="&#x108;" horiz-adv-x="1716" 
d="M1235 1749h-80l-237 291l-238 -291h-80l272 354h91zM1550 522l74 -35q-64 -180 -229 -329q-87 -80 -215.5 -127t-274.5 -47q-344 0 -563 235q-221 238 -221 582q0 346 223 581q225 240 565 240q142 0 267.5 -45.5t212.5 -122.5q167 -145 231 -334l-74 -35
q-60 168 -205 301q-77 74 -190.5 116t-245.5 42q-302 0 -502 -215q-196 -214 -196 -522q0 -311 196 -528q202 -220 504 -220q138 0 257 47t196 127q132 138 190 289z" />
    <glyph glyph-name="ccircumflex" unicode="&#x109;" horiz-adv-x="1239" 
d="M979 1280h-80l-237 291l-238 -291h-80l272 352h91zM659 -18q-234 0 -391 161q-157 165 -157 402q0 239 159 403t389 164q179 0 304 -86.5t174 -230.5l-76 -33q-99 274 -402 274q-200 0 -331 -143t-131 -344t133 -346q137 -146 332 -146q293 0 401 279l76 -33
q-52 -143 -177 -232t-303 -89z" />
    <glyph glyph-name="Cdotaccent" unicode="&#x10a;" horiz-adv-x="1716" 
d="M920 2005q47 4 66.5 -39t0 -86t-66.5 -39q-33 0 -56.5 23.5t-23.5 58.5t22.5 58.5t57.5 23.5zM1550 522l74 -35q-64 -180 -229 -329q-87 -80 -215.5 -127t-274.5 -47q-344 0 -563 235q-221 238 -221 582q0 346 223 581q225 240 565 240q142 0 267.5 -45.5t212.5 -122.5
q167 -145 231 -334l-74 -35q-60 168 -205 301q-77 74 -190.5 116t-245.5 42q-302 0 -502 -215q-196 -214 -196 -522q0 -311 196 -528q202 -220 504 -220q138 0 257 47t196 127q132 138 190 289z" />
    <glyph glyph-name="cdotaccent" unicode="&#x10b;" horiz-adv-x="1239" 
d="M584 1450q0 35 23 59.5t55 24.5t55.5 -24.5t23.5 -59.5q0 -33 -23.5 -57.5t-55.5 -24.5t-55 24.5t-23 57.5zM659 -18q-234 0 -391 161q-157 165 -157 402q0 239 159 403t389 164q179 0 304 -86.5t174 -230.5l-76 -33q-99 274 -402 274q-200 0 -331 -143t-131 -344
t133 -346q137 -146 332 -146q293 0 401 279l76 -33q-52 -143 -177 -232t-303 -89z" />
    <glyph glyph-name="Ccaron" unicode="&#x10c;" horiz-adv-x="1716" 
d="M1155 2103h80l-272 -354h-91l-274 354h82l238 -291zM1550 522l74 -35q-64 -180 -229 -329q-87 -80 -215.5 -127t-274.5 -47q-344 0 -563 235q-221 238 -221 582q0 346 223 581q225 240 565 240q142 0 267.5 -45.5t212.5 -122.5q167 -145 231 -334l-74 -35
q-60 168 -205 301q-77 74 -190.5 116t-245.5 42q-302 0 -502 -215q-196 -214 -196 -522q0 -311 196 -528q202 -220 504 -220q138 0 257 47t196 127q132 138 190 289z" />
    <glyph glyph-name="ccaron" unicode="&#x10d;" horiz-adv-x="1239" 
d="M901 1614h80l-272 -354h-91l-272 354h80l238 -291zM659 -18q-234 0 -391 161q-157 165 -157 402q0 239 159 403t389 164q179 0 304 -86.5t174 -230.5l-76 -33q-99 274 -402 274q-200 0 -331 -143t-131 -344t133 -346q137 -146 332 -146q293 0 401 279l76 -33
q-52 -143 -177 -232t-303 -89z" />
    <glyph glyph-name="Dcaron" unicode="&#x10e;" horiz-adv-x="1642" 
d="M920 2093h79l-272 -352h-90l-272 352h79l238 -291zM238 0v1604h430q370 0 612 -230q244 -229 244 -573q0 -352 -244 -578q-241 -223 -612 -223h-430zM324 1528v-1450h346q331 0 549 203q219 204 219 518q0 316 -221 522q-219 207 -549 207h-344z" />
    <glyph glyph-name="dcaron" unicode="&#x10f;" horiz-adv-x="1417" 
d="M1372 1669h98l-69 -409h-60zM1182 0h-78v299q-60 -141 -182 -227q-122 -88 -281 -88q-236 0 -383 166q-145 168 -145 399q0 235 149 397q150 166 379 166q157 0 279.5 -84.5t183.5 -226.5v866h78v-1667zM645 61q201 0 330 144q131 143 131 340v6q0 194 -129 338
q-130 145 -332 145q-201 0 -326 -137q-124 -136 -124 -344v-2q0 -211 124 -350q128 -140 326 -140z" />
    <glyph glyph-name="Dcroat" unicode="&#x110;" horiz-adv-x="1642" 
d="M240 856v748h426q370 0 612 -230q246 -228 246 -573q0 -352 -244 -578q-241 -223 -614 -223h-426v778h-168v78h168zM324 778v-700h344q333 0 551 203q219 204 219 518q0 316 -221 522q-219 207 -551 207h-342v-672h557v-78h-557z" />
    <glyph glyph-name="dslash" unicode="&#x111;" horiz-adv-x="1378" 
d="M1184 0h-80v299q-60 -141 -182 -227q-122 -88 -281 -88q-236 0 -383 166q-145 168 -145 399q0 235 149 397q150 166 381 166q157 0 278.5 -84t182.5 -227v545h-449v71h449v250h80v-250h131v-71h-131v-1346zM647 61q198 0 330 144q131 143 131 340v6q0 194 -129 338
q-130 145 -332 145q-203 0 -328 -137q-124 -136 -124 -344v-2q0 -211 124 -350q128 -140 328 -140z" />
    <glyph glyph-name="Emacron" unicode="&#x112;" horiz-adv-x="1337" 
d="M1067 1802h-684v76h684v-76zM324 856h806v-78h-806v-700h886v-78h-972v1604h962v-76h-876v-672z" />
    <glyph glyph-name="emacron" unicode="&#x113;" horiz-adv-x="1243" 
d="M977 1313h-682v76h682v-76zM1139 551v-19h-942q3 -193 131 -333q130 -142 329 -142q123 0 224 61t157 165l70 -45q-63 -118 -185 -187t-270 -69q-234 0 -389 165q-153 169 -153 402v4q0 220 151 391q152 168 375 168q252 0 377 -162t125 -399zM197 606h858
q-3 62 -18.5 120.5t-48.5 115.5t-80 99.5t-118 68.5t-157 26q-171 0 -299 -131t-137 -299z" />
    <glyph glyph-name="Edotaccent" unicode="&#x116;" horiz-adv-x="1337" 
d="M725 2005q47 4 66.5 -39t0 -86t-66.5 -39q-33 0 -56.5 23.5t-23.5 58.5t22.5 58.5t57.5 23.5zM324 856h806v-78h-806v-700h886v-78h-972v1604h962v-76h-876v-672z" />
    <glyph glyph-name="edotaccent" unicode="&#x117;" horiz-adv-x="1243" 
d="M557 1450q0 35 23.5 59.5t56.5 24.5q32 0 55 -24.5t23 -59.5q0 -33 -23 -57.5t-55 -24.5t-56 25t-24 57zM1139 551v-19h-942q3 -193 131 -333q130 -142 329 -142q123 0 224 61t157 165l70 -45q-63 -118 -185 -187t-270 -69q-234 0 -389 165q-153 169 -153 402v4
q0 220 151 391q152 168 375 168q252 0 377 -162t125 -399zM197 606h858q-3 62 -18.5 120.5t-48.5 115.5t-80 99.5t-118 68.5t-157 26q-171 0 -299 -131t-137 -299z" />
    <glyph glyph-name="Eogonek" unicode="&#x118;" horiz-adv-x="1337" 
d="M1280 -422v-72q-30 -6 -59 -6q-114 0 -190.5 62.5t-76.5 169.5q0 136 176 268h-892v1604h962v-76h-876v-672h806v-78h-806v-700h886v-78q-75 -57 -124.5 -122.5t-49.5 -127.5q0 -90 70 -134t174 -38z" />
    <glyph glyph-name="eogonek" unicode="&#x119;" horiz-adv-x="1243" 
d="M1139 551v-19h-942q3 -193 131 -333q130 -142 329 -142q123 0 224 61t157 165l70 -45q-83 -151 -248 -218q-95 -39 -168 -118q-69 -78 -69 -152q0 -89 69 -133.5t172 -38.5v-72q-27 -6 -57 -6q-116 0 -192 63t-76 169q0 121 155 252l-41 -2q-234 0 -389 165
q-153 169 -153 402v4q0 220 151 391q152 168 375 168q252 0 377 -162t125 -399zM197 606h858q-3 62 -18.5 120.5t-48.5 115.5t-80 99.5t-118 68.5t-157 26q-171 0 -299 -131t-137 -299z" />
    <glyph glyph-name="Ecaron" unicode="&#x11a;" horiz-adv-x="1337" 
d="M963 2103h79l-272 -354h-90l-272 354h79l238 -291zM1200 1528h-876v-672h806v-78h-806v-700h886v-78h-972v1604h962v-76z" />
    <glyph glyph-name="ecaron" unicode="&#x11b;" horiz-adv-x="1243" 
d="M877 1614h79l-272 -354h-90l-272 354h79l238 -291zM1139 551v-19h-942q3 -193 131 -333q130 -142 329 -142q123 0 224 61t157 165l70 -45q-63 -118 -185 -187t-270 -69q-234 0 -389 165q-153 169 -153 402v4q0 220 151 391q152 168 375 168q252 0 377 -162t125 -399z
M197 606h858q-3 62 -18.5 120.5t-48.5 115.5t-80 99.5t-118 68.5t-157 26q-171 0 -299 -131t-137 -299z" />
    <glyph glyph-name="Gcircumflex" unicode="&#x11c;" horiz-adv-x="1753" 
d="M1231 1749h-80l-238 291l-237 -291h-80l272 354h90zM819 748h823v-78q0 -295 -204 -490q-205 -196 -533 -196q-345 0 -565 233q-219 236 -219 584q0 345 221 583t569 238q271 0 453 -147q183 -148 250 -338l-74 -35q-59 160 -207 293q-75 69 -186 109t-238 40
q-309 0 -506 -215q-196 -214 -196 -522q0 -320 194 -535q198 -213 508 -213q269 0 459 166q191 170 191 439v6h-740v78z" />
    <glyph glyph-name="gcircumflex" unicode="&#x11d;" horiz-adv-x="1374" 
d="M965 1280h-80l-238 291l-237 -291h-80l272 352h90zM1100 1094h80v-1090q0 -279 -150 -414q-149 -137 -387 -137q-193 0 -321 83t-209 253l71 41q34 -70 67 -115.5t85 -87.5q110 -96 305 -96q215 0 337 120.5t122 348.5v307q-58 -139 -182 -225t-277 -86q-240 0 -383 162
q-145 165 -145 397q0 231 147 395q146 162 381 162q154 0 277.5 -83.5t181.5 -221.5v287zM1104 553v4q0 195 -129 336t-332 141q-198 0 -324 -135q-122 -134 -122 -342v-2q0 -207 122 -344q125 -137 324 -137q201 0 330 141q131 140 131 338z" />
    <glyph glyph-name="Gbreve" unicode="&#x11e;" horiz-adv-x="1753" 
d="M1159 2099h62q0 -151 -85 -239t-223 -88t-222.5 88t-84.5 239h62q6 -119 70 -186.5t175 -67.5q114 0 177.5 68t68.5 186zM819 748h823v-78q0 -295 -204 -490q-205 -196 -533 -196q-345 0 -565 233q-219 236 -219 584q0 345 221 583t569 238q271 0 453 -147
q183 -148 250 -338l-74 -35q-59 160 -207 293q-75 69 -186 109t-238 40q-309 0 -506 -215q-196 -214 -196 -522q0 -320 194 -535q198 -213 508 -213q269 0 459 166q191 170 191 439v6h-740v78z" />
    <glyph glyph-name="gbreve" unicode="&#x11f;" horiz-adv-x="1374" 
d="M893 1608h59q0 -151 -84 -239.5t-221 -88.5q-138 0 -222.5 88.5t-84.5 239.5h59q6 -119 70 -186.5t178 -67.5t177.5 68t68.5 186zM1100 1094h80v-1090q0 -279 -150 -414q-149 -137 -387 -137q-193 0 -321 83t-209 253l71 41q34 -70 67 -115.5t85 -87.5q110 -96 305 -96
q215 0 337 120.5t122 348.5v307q-58 -139 -182 -225t-277 -86q-240 0 -383 162q-145 165 -145 397q0 231 147 395q146 162 381 162q154 0 277.5 -83.5t181.5 -221.5v287zM1104 553v4q0 195 -129 336t-332 141q-198 0 -324 -135q-122 -134 -122 -342v-2q0 -207 122 -344
q125 -137 324 -137q201 0 330 141q131 140 131 338z" />
    <glyph glyph-name="Gdotaccent" unicode="&#x120;" horiz-adv-x="1751" 
d="M909 2005q47 4 66.5 -39t0 -86t-66.5 -39q-33 0 -56.5 23.5t-23.5 58.5t22.5 58.5t57.5 23.5zM819 748h823v-78q0 -295 -204 -490q-205 -196 -533 -196q-345 0 -565 233q-219 236 -219 584q0 345 221 583t569 238q271 0 453 -147q183 -148 250 -338l-74 -35
q-59 160 -207 293q-75 69 -186 109t-238 40q-309 0 -506 -215q-196 -214 -196 -522q0 -320 194 -535q198 -213 508 -213q269 0 459 166q191 170 191 439v6h-740v78z" />
    <glyph glyph-name="gdotaccent" unicode="&#x121;" horiz-adv-x="1374" 
d="M588 1450q0 35 23.5 59.5t56.5 24.5q32 0 54.5 -24.5t22.5 -59.5q0 -33 -22.5 -57.5t-54.5 -24.5t-56 25t-24 57zM1100 1094h80v-1090q0 -279 -150 -414q-149 -137 -387 -137q-193 0 -321 83t-209 253l71 41q34 -70 67 -115.5t85 -87.5q110 -96 305 -96q215 0 337 120.5
t122 348.5v307q-58 -139 -182 -225t-277 -86q-240 0 -383 162q-145 165 -145 397q0 231 147 395q146 162 381 162q154 0 277.5 -83.5t181.5 -221.5v287zM1104 553v4q0 195 -129 336t-332 141q-198 0 -324 -135q-122 -134 -122 -342v-2q0 -207 122 -344q125 -137 324 -137
q201 0 330 141q131 140 131 338z" />
    <glyph glyph-name="Gcommaaccent" unicode="&#x122;" horiz-adv-x="1751" 
d="M819 748h823v-78q0 -295 -204 -490q-205 -196 -533 -196q-345 0 -565 233q-219 236 -219 584q0 345 221 583t569 238q271 0 453 -147q183 -148 250 -338l-74 -35q-59 160 -207 293q-75 69 -186 109t-238 40q-309 0 -506 -215q-196 -214 -196 -522q0 -320 194 -535
q198 -213 508 -213q269 0 459 166q191 170 191 439v6h-740v78zM889 -295q-32 0 -52 20t-20 52q0 35 21.5 56.5t52.5 21.5q41 0 65.5 -30.5t24.5 -84.5v-6q0 -143 -131 -234l-43 41q102 73 111 168q-12 -4 -29 -4z" />
    <glyph glyph-name="gcommaaccent" unicode="&#x123;" horiz-adv-x="1374" 
d="M684 1438q74 0 74 -72q0 -34 -22 -56t-54 -22q-41 0 -65.5 30.5t-24.5 84.5v8q0 140 131 231l43 -38q-102 -76 -111 -170q12 4 29 4zM1100 1094h80v-1090q0 -279 -150 -414q-149 -137 -387 -137q-193 0 -321 83t-209 253l71 41q34 -70 67 -115.5t85 -87.5
q110 -96 305 -96q215 0 337 120.5t122 348.5v307q-58 -139 -182 -225t-277 -86q-240 0 -383 162q-145 165 -145 397q0 231 147 395q146 162 381 162q154 0 277.5 -83.5t181.5 -221.5v287zM1104 553v4q0 195 -129 336t-332 141q-198 0 -324 -135q-122 -134 -122 -342v-2
q0 -207 122 -344q125 -137 324 -137q201 0 330 141q131 140 131 338z" />
    <glyph glyph-name="Hbar" unicode="&#x126;" horiz-adv-x="1689" 
d="M72 1208v76h168v320h84v-320h1042v320h84v-320h168v-76h-168v-1208h-84v778h-1042v-778h-84v1208h-168zM1366 856v352h-1042v-352h1042z" />
    <glyph glyph-name="hbar" unicode="&#x127;" horiz-adv-x="1284" 
d="M1106 0h-82v641q0 188 -96.5 291.5t-268.5 103.5q-161 0 -274 -116q-111 -114 -111 -291v-629h-79v1346h-160v71h160v252h79v-252h418v-71h-418v-494q44 118 152.5 189t245.5 71q202 0 317 -127q117 -126 117 -328v-657z" />
    <glyph glyph-name="Itilde" unicode="&#x128;" horiz-adv-x="561" 
d="M23 1749h-66q-1 118 43.5 186t124.5 68q86 0 188 -105q72 -75 125 -75q108 0 111 178h65q2 -117 -43.5 -185.5t-124.5 -68.5q-50 0 -87 21t-95 79q-80 80 -133 80q-105 0 -108 -178zM238 0v1604h86v-1604h-86z" />
    <glyph glyph-name="itilde" unicode="&#x129;" horiz-adv-x="471" 
d="M-27 1280h-65q-1 118 43.5 186t124.5 68q87 0 188 -104q73 -76 125 -76q108 0 111 178h65q2 -117 -43.5 -185.5t-124.5 -68.5q-50 0 -87 21t-95 79q-80 80 -133 80q-106 0 -109 -178zM276 0h-81v1094h81v-1094z" />
    <glyph glyph-name="Imacron" unicode="&#x12a;" horiz-adv-x="561" 
d="M555 1802h-551v76h551v-76zM324 1604v-1604h-86v1604h86z" />
    <glyph glyph-name="imacron" unicode="&#x12b;" horiz-adv-x="471" 
d="M506 1313h-543v76h543v-76zM195 1094h81v-1094h-81v1094z" />
    <glyph glyph-name="Ibreve" unicode="&#x12c;" horiz-adv-x="561" 
d="M526 2099h60q0 -150 -84 -238.5t-221 -88.5q-138 0 -223 88t-85 239h60q6 -119 70 -186.5t178 -67.5q113 0 176.5 68t68.5 186zM324 1604v-1604h-86v1604h86z" />
    <glyph glyph-name="ibreve" unicode="&#x12d;" horiz-adv-x="473" 
d="M481 1608h62q0 -151 -84.5 -239.5t-222.5 -88.5t-223 88.5t-85 239.5h62q6 -118 70.5 -186t175.5 -68q113 0 176.5 68t68.5 186zM195 1094h84v-1094h-84v1094z" />
    <glyph glyph-name="Iogonek" unicode="&#x12e;" horiz-adv-x="561" 
d="M369 -528q-114 0 -188.5 61.5t-74.5 167.5q0 124 158 299h-26v1604h86v-1604q-140 -166 -140 -293q0 -73 56.5 -118.5t136.5 -45.5q54 0 135 19v-72q-82 -18 -143 -18z" />
    <glyph glyph-name="iogonek" unicode="&#x12f;" horiz-adv-x="471" 
d="M178 1415q-23 25 -23 57.5t23 57.5q25 25 57.5 25t55.5 -25q25 -23 25 -57.5t-25 -59.5q-23 -23 -55.5 -23t-57.5 25zM346 -422v-72q-30 -6 -59 -6q-114 0 -190.5 62.5t-76.5 169.5q0 132 177 268h-2v1094h81v-1094q-75 -57 -124.5 -122.5t-49.5 -127.5q0 -90 70 -134
t174 -38z" />
    <glyph glyph-name="Idot" unicode="&#x130;" horiz-adv-x="561" 
d="M281 2005q47 4 66.5 -39t0 -86t-66.5 -39q-33 0 -56.5 23.5t-23.5 58.5t22.5 58.5t57.5 23.5zM324 1604v-1604h-86v1604h86z" />
    <glyph glyph-name="dotlessi" unicode="&#x131;" horiz-adv-x="471" 
d="M195 1094h81v-1094h-81v1094z" />
    <glyph glyph-name="IJ" unicode="&#x132;" horiz-adv-x="1720" 
d="M324 1604v-1604h-86v1604h86zM1071 59q165 0 254.5 97.5t89.5 275.5v1172h86v-1172q0 -208 -114 -328t-314 -120q-294 0 -432 344l72 41q120 -310 358 -310z" />
    <glyph glyph-name="ij" unicode="&#x133;" horiz-adv-x="956" 
d="M178 1415q-23 25 -23 57.5t23 57.5q25 25 57.5 25t55.5 -25q25 -23 25 -57.5t-25 -59.5q-23 -23 -55.5 -23t-57.5 25zM666 1413q-23 25 -23 59.5t23 57.5q25 25 57 25t55 -25q38 -33 22.5 -78.5t-56.5 -57.5t-78 19zM195 1094h81v-1094h-81v1094zM682 1094h80v-1348
q0 -293 -279 -293q-44 0 -71 6v74q10 -2 65 -2q205 0 205 211v1352z" />
    <glyph glyph-name="Kcommaaccent" unicode="&#x136;" horiz-adv-x="1325" 
d="M324 858h8l827 746h123l-856 -764l903 -840h-125l-872 813h-8v-813h-86v1604h86v-746zM688 -295q-32 0 -52 20t-20 52q0 35 21.5 56.5t52.5 21.5q41 0 65.5 -30.5t24.5 -84.5v-6q0 -143 -131 -234l-43 41q102 73 111 168q-12 -4 -29 -4z" />
    <glyph glyph-name="kcommaaccent" unicode="&#x137;" horiz-adv-x="1038" 
d="M909 0l-628 578h-7v-578h-79v1667h79v-1049h5l598 476h120l-630 -496l659 -598h-117zM537 -295q-32 0 -52 20t-20 52q0 35 21.5 56.5t52.5 21.5q41 0 65.5 -30.5t24.5 -84.5v-6q0 -143 -131 -234l-43 41q101 73 110 168q-12 -4 -28 -4z" />
    <glyph glyph-name="Lacute" unicode="&#x139;" horiz-adv-x="1181" 
d="M473 2103h92l-250 -354h-73zM1122 0h-884v1604h84v-1526h800v-78z" />
    <glyph glyph-name="lacute" unicode="&#x13a;" horiz-adv-x="471" 
d="M426 2163h92l-250 -355h-73zM276 1667v-1667h-81v1667h81z" />
    <glyph glyph-name="Lcommaaccent" unicode="&#x13b;" horiz-adv-x="1181" 
d="M1122 0h-884v1604h84v-1526h800v-78zM668 -295q-32 0 -52 20t-20 52q0 35 21.5 56.5t52.5 21.5q41 0 65.5 -30.5t24.5 -84.5v-6q0 -143 -131 -234l-43 41q101 73 110 168q-12 -4 -28 -4z" />
    <glyph glyph-name="lcommaaccent" unicode="&#x13c;" horiz-adv-x="471" 
d="M276 1667v-1667h-81v1667h81zM219 -295q-32 0 -52 20t-20 52q0 35 21.5 56.5t52.5 21.5q41 0 65.5 -30.5t24.5 -84.5v-6q0 -143 -131 -234l-43 41q102 73 111 168q-12 -4 -29 -4z" />
    <glyph glyph-name="Lcaron" unicode="&#x13d;" horiz-adv-x="1191" 
d="M918 1638h98l-70 -407h-57zM1122 0h-884v1604h84v-1526h800v-78z" />
    <glyph glyph-name="lcaron" unicode="&#x13e;" horiz-adv-x="512" 
d="M467 1669h96l-69 -409h-58zM276 1667v-1667h-81v1667h81z" />
    <glyph glyph-name="Ldot" unicode="&#x13f;" horiz-adv-x="1216" 
d="M1122 0h-884v1604h84v-1526h800v-78zM987 713q-23 25 -23 59t23 57q25 25 57.5 25t55.5 -25q23 -23 23 -57t-23 -59q-23 -23 -55.5 -23t-57.5 23z" />
    <glyph glyph-name="ldot" unicode="&#x140;" horiz-adv-x="655" 
d="M276 1667v-1667h-81v1667h81zM498 715q-23 25 -23 57t23 57q25 25 57 25t55 -25q25 -23 25 -57t-25 -59q-23 -23 -55 -23t-57 25z" />
    <glyph glyph-name="Lslash" unicode="&#x141;" horiz-adv-x="1206" 
d="M258 1604h84v-787l504 227v-83l-504 -228v-655h803v-78h-887v694l-215 -96v84l215 98v824z" />
    <glyph glyph-name="lslash" unicode="&#x142;" horiz-adv-x="626" 
d="M358 1667v-735l209 104v-88l-209 -100v-848h-82v807l-208 -102v86l208 102v774h82z" />
    <glyph glyph-name="Nacute" unicode="&#x143;" horiz-adv-x="1744" 
d="M1063 2103h90l-248 -354h-74zM1421 121v1483h84v-1604h-96l-1085 1491v-1491h-86v1604h102z" />
    <glyph glyph-name="nacute" unicode="&#x144;" horiz-adv-x="1288" 
d="M842 1632h92l-250 -352h-74zM676 1112q201 0 317.5 -125t116.5 -330v-657h-80v641q0 189 -96 292t-270 103q-162 0 -275 -116q-113 -113 -113 -291v-629h-81v1094h81v-242q44 118 153.5 189t246.5 71z" />
    <glyph glyph-name="Ncommaaccent" unicode="&#x145;" horiz-adv-x="1742" 
d="M1421 121v1483h84v-1604h-96l-1087 1491v-1491h-84v1604h102zM848 -295q-32 0 -52 20t-20 52q0 35 21.5 56.5t52.5 21.5q41 0 65.5 -30.5t24.5 -84.5v-6q0 -143 -131 -234l-43 41q102 73 111 168q-12 -4 -29 -4z" />
    <glyph glyph-name="ncommaaccent" unicode="&#x146;" horiz-adv-x="1284" 
d="M672 1112q202 0 317 -127q117 -126 117 -328v-657h-82v641q0 188 -96.5 291.5t-268.5 103.5q-161 0 -274 -116q-111 -114 -111 -291v-629h-79v1094h79v-242q44 118 152.5 189t245.5 71zM633 -295q-32 0 -52 20t-20 52q0 35 21.5 56.5t52.5 21.5q41 0 65.5 -30.5
t24.5 -84.5v-6q0 -143 -131 -234l-43 41q102 73 111 168q-12 -4 -29 -4z" />
    <glyph glyph-name="Ncaron" unicode="&#x147;" horiz-adv-x="1746" 
d="M1141 2083h80l-273 -352h-90l-272 352h80l237 -291zM326 0h-88v1604h104l1081 -1483v1483h84v-1604h-96l-1085 1491v-1491z" />
    <glyph glyph-name="ncaron" unicode="&#x148;" horiz-adv-x="1284" 
d="M883 1614h78l-273 -354h-90l-270 354h78l237 -291zM672 1112q202 0 317 -127q117 -126 117 -328v-657h-82v641q0 188 -96.5 291.5t-268.5 103.5q-161 0 -274 -116q-111 -114 -111 -291v-629h-79v1094h79v-242q44 118 152.5 189t245.5 71z" />
    <glyph glyph-name="Eng" unicode="&#x14a;" horiz-adv-x="1742" 
d="M322 0h-84v1604h102l1081 -1471v1471h84v-1860q0 -151 -65.5 -220t-216.5 -69q-59 0 -95 8v76q52 -8 89 -8q116 0 160 50t44 171v248l-1099 1491v-1491z" />
    <glyph glyph-name="eng" unicode="&#x14b;" horiz-adv-x="1284" 
d="M1024 -248v889q0 188 -96.5 291.5t-268.5 103.5q-161 0 -274 -116q-111 -114 -111 -291v-629h-79v1094h79v-242q44 118 152.5 189t245.5 71q202 0 317 -127q117 -126 117 -328v-913q0 -153 -65 -221t-216 -68q-55 0 -94 8v76q55 -8 90 -8q115 0 159 50t44 171z" />
    <glyph glyph-name="Omacron" unicode="&#x14c;" horiz-adv-x="1816" 
d="M1247 1802h-682v76h682v-76zM907 -16q-340 0 -563 235t-223 582q0 346 223 581q225 240 565 240t566 -238q223 -235 223 -579q0 -347 -225 -584t-566 -237zM907 1544q-301 0 -501 -215q-199 -214 -199 -522q0 -314 199 -531t505 -217q302 0 502 215q199 217 199 525
q0 307 -201 526t-504 219z" />
    <glyph glyph-name="omacron" unicode="&#x14d;" horiz-adv-x="1345" 
d="M1016 1313h-684v76h684v-76zM674 -18q-241 0 -402 161t-161 400q0 244 161 405q164 164 404 164q235 0 397 -162t162 -399q0 -238 -160 -406q-159 -163 -401 -163zM1151 545q0 208 -137 348q-137 143 -342 143q-204 0 -342 -141q-135 -141 -135 -346t137 -348
q138 -144 344 -144q204 0 340 142q135 141 135 346z" />
    <glyph glyph-name="Ohungarumlaut" unicode="&#x150;" horiz-adv-x="1818" 
d="M946 2103h92l-247 -354h-74zM1239 2103h92l-248 -354h-73zM907 -16q-340 0 -563 235t-223 582q0 346 223 581q225 240 565 240t566 -238q223 -235 223 -579q0 -347 -225 -584t-566 -237zM907 1544q-301 0 -501 -215q-199 -214 -199 -522q0 -314 199 -531t505 -217
q302 0 502 215q199 217 199 525q0 307 -201 526t-504 219z" />
    <glyph glyph-name="ohungarumlaut" unicode="&#x151;" horiz-adv-x="1341" 
d="M709 1632h92l-248 -352h-74zM1004 1632h92l-248 -352h-76zM670 -18q-237 0 -398 161t-161 400q0 241 159 405q164 164 402 164q239 0 397 -162q162 -162 162 -399q0 -238 -160 -406q-159 -163 -401 -163zM668 1036q-203 0 -338 -141q-133 -142 -133 -346t135 -348
t340 -144q204 0 340 142q135 141 135 346q0 208 -137 348q-137 143 -342 143z" />
    <glyph glyph-name="OE" unicode="&#x152;" horiz-adv-x="2703" 
d="M907 -14q-340 0 -563 235t-223 580q0 346 223 581q226 238 565 238q242 0 428 -131q190 -131 265 -352h2v467h962v-76h-878v-672h809v-78h-809v-700h888v-78h-972v463h-2q-73 -214 -261 -346q-183 -131 -434 -131zM911 61q301 0 502 213q199 214 199 517v12
q0 301 -201 520t-504 219q-301 0 -501 -215q-199 -211 -199 -520q0 -311 199 -528q200 -218 505 -218z" />
    <glyph glyph-name="oe" unicode="&#x153;" horiz-adv-x="2269" 
d="M2165 551v-19h-944q3 -191 133 -333q133 -142 329 -142q123 0 224 61t157 165l70 -45q-63 -118 -185 -187t-270 -69q-176 0 -313 104q-135 106 -182 270q-46 -161 -191 -270q-143 -104 -321 -104q-239 0 -400 161t-161 400q0 241 159 405q164 164 404 164q179 0 317 -102
q141 -102 193 -269q46 160 180 267q131 104 299 104q252 0 377 -162t125 -399zM674 57q201 0 338 140q135 141 135 342v12q0 202 -137 342q-137 143 -340 143q-205 0 -340 -141q-133 -142 -133 -346t135 -348q138 -144 342 -144zM1221 606h860q-3 63 -18 122t-47.5 116
t-79.5 99t-118 67.5t-159 25.5q-171 0 -299 -131q-130 -130 -139 -299z" />
    <glyph glyph-name="Racute" unicode="&#x154;" horiz-adv-x="1431" 
d="M633 1749l229 354h92l-247 -354h-74zM238 0v1604h481q298 0 438 -134q139 -133 139 -323q0 -191 -126 -312t-363 -147l539 -688h-109l-530 680h-383v-680h-86zM324 1528v-770h374q261 0 387 114q127 115 127 273q0 161 -118 270q-116 113 -381 113h-389z" />
    <glyph glyph-name="racute" unicode="&#x155;" horiz-adv-x="724" 
d="M549 1632h90l-248 -352h-74zM682 1108q16 0 20 -2v-80h-16q-194 0 -303 -139t-109 -336v-551h-79v1094h79v-285q44 131 158 213q115 86 250 86z" />
    <glyph glyph-name="Rcommaaccent" unicode="&#x156;" horiz-adv-x="1431" 
d="M238 0v1604h481q298 0 438 -134q139 -133 139 -323q0 -191 -126 -312t-363 -147l539 -688h-109l-530 680h-383v-680h-86zM324 1528v-770h374q261 0 387 114q127 115 127 273q0 161 -118 270q-116 113 -381 113h-389zM688 -295q-32 0 -52 20t-20 52q0 35 21.5 56.5
t52.5 21.5q41 0 65.5 -30.5t24.5 -84.5v-6q0 -143 -131 -234l-43 41q102 73 111 168q-12 -4 -29 -4z" />
    <glyph glyph-name="rcommaaccent" unicode="&#x157;" horiz-adv-x="724" 
d="M682 1108q16 0 20 -2v-80h-16q-194 0 -303 -139t-109 -336v-551h-79v1094h79v-285q44 131 158 213q115 86 250 86zM229 -295q-32 0 -51.5 20t-19.5 52q0 35 21 56.5t52 21.5q42 0 66.5 -30.5t24.5 -84.5v-6q0 -143 -132 -234l-43 41q102 73 111 168q-12 -4 -29 -4z" />
    <glyph glyph-name="Rcaron" unicode="&#x158;" horiz-adv-x="1431" 
d="M934 2103h80l-273 -354h-90l-272 354h80l237 -291zM238 0v1604h481q298 0 438 -134q139 -133 139 -323q0 -191 -126 -312t-363 -147l539 -688h-109l-530 680h-383v-680h-86zM324 1528v-770h374q261 0 387 114q127 115 127 273q0 161 -118 270q-116 113 -381 113h-389z
" />
    <glyph glyph-name="rcaron" unicode="&#x159;" horiz-adv-x="724" 
d="M684 1614h80l-272 -354h-91l-272 354h80l237 -291zM682 1108q16 0 20 -2v-80h-16q-194 0 -303 -139t-109 -336v-551h-79v1094h79v-285q44 131 158 213q115 86 250 86z" />
    <glyph glyph-name="Sacute" unicode="&#x15a;" horiz-adv-x="1251" 
d="M807 2103h92l-248 -354h-76zM1124 428q0 -198 -139 -322q-137 -122 -350 -122q-368 0 -518 399l71 37q62 -148 152 -246q112 -115 297 -115q162 0 285 97q118 93 118 270q0 133 -101.5 218t-324.5 142q-245 65 -352 150q-106 84 -106 258q0 186 139 307q142 121 336 121
q178 0 301 -90t186 -244l-69 -39q-123 295 -422 295q-155 0 -271 -98t-116 -250q0 -135 90 -207q88 -70 301 -123q251 -65 372 -168.5t121 -269.5z" />
    <glyph glyph-name="sacute" unicode="&#x15b;" horiz-adv-x="991" 
d="M674 1632h92l-250 -352h-74zM133 815q0 133 113 215t252 82q263 0 364 -229l-71 -39q-85 192 -297 192q-103 0 -191 -61t-88 -158q0 -96 64 -143.5t221 -79.5q199 -42 286.5 -112.5t87.5 -198.5q0 -136 -112 -217q-113 -84 -258 -84q-284 0 -404 256l72 38
q56 -113 135 -166t197 -53q112 0 201 62q90 66 90 162q0 97 -69.5 147.5t-246.5 89.5q-184 40 -265 105.5t-81 191.5z" />
    <glyph glyph-name="Scircumflex" unicode="&#x15c;" horiz-adv-x="1271" 
d="M971 1749h-80l-238 291l-237 -291h-80l272 354h90zM1145 428q0 -198 -139 -322q-137 -122 -351 -122q-368 0 -518 399l72 37q63 -150 151 -246q112 -115 297 -115q162 0 285 97q119 94 119 270q0 133 -101.5 218t-324.5 142q-245 65 -352 150t-107 258q0 186 139 307
q142 121 336 121q178 0 301.5 -90t186.5 -244l-70 -39q-123 295 -422 295q-154 0 -270 -98q-117 -99 -117 -250q0 -135 90 -207q88 -70 301 -123q251 -65 372.5 -168.5t121.5 -269.5z" />
    <glyph glyph-name="scircumflex" unicode="&#x15d;" horiz-adv-x="991" 
d="M809 1280h-78l-237 291l-240 -291h-80l275 352h90zM133 815q0 133 113 215t252 82q263 0 364 -229l-71 -39q-85 192 -297 192q-103 0 -191 -61t-88 -158q0 -96 64 -143.5t221 -79.5q199 -42 286.5 -112.5t87.5 -198.5q0 -136 -112 -217q-113 -84 -258 -84
q-284 0 -404 256l72 38q56 -113 135 -166t197 -53q112 0 201 62q90 66 90 162q0 97 -69.5 147.5t-246.5 89.5q-184 40 -265 105.5t-81 191.5z" />
    <glyph glyph-name="Scedilla" unicode="&#x15e;" horiz-adv-x="1271" 
d="M1145 428q0 -184 -119 -303q-121 -121 -309 -139q20 -59 20 -127q0 -208 -151 -303q-83 -50 -199 -50q-31 0 -59 7v69q46 -4 51 -4q135 0 206.5 74t71.5 211q0 38 -12 121q-364 6 -508 399l72 37q63 -150 151 -246q112 -115 297 -115q162 0 285 97q119 94 119 270
q0 133 -101.5 218t-324.5 142q-245 65 -352 150t-107 258q0 186 139 307q142 121 336 121q178 0 301.5 -90t186.5 -244l-70 -39q-123 295 -422 295q-154 0 -270 -98q-117 -99 -117 -250q0 -135 90 -207q88 -70 301 -123q251 -65 372.5 -168.5t121.5 -269.5z" />
    <glyph glyph-name="scedilla" unicode="&#x15f;" horiz-adv-x="991" 
d="M874 283q0 -123 -94 -205q-91 -79 -227 -94q20 -61 20 -125q0 -211 -153 -303q-80 -50 -197 -50q-31 0 -59 7v69q46 -4 51 -4q135 0 207 74t72 211q0 30 -13 119q-268 9 -381 256l72 38q56 -113 135 -166t197 -53q112 0 201 62q90 66 90 162q0 97 -69.5 147.5
t-246.5 89.5q-184 40 -265 105.5t-81 191.5q0 133 113 215t252 82q263 0 364 -229l-71 -39q-85 192 -297 192q-103 0 -191 -61t-88 -158q0 -96 64 -143.5t221 -79.5q199 -42 286.5 -112.5t87.5 -198.5z" />
    <glyph glyph-name="Scaron" unicode="&#x160;" horiz-adv-x="1251" 
d="M856 2105h80l-272 -352h-91l-272 352h80l237 -288zM1124 428q0 -198 -139 -322q-137 -122 -350 -122q-368 0 -518 399l71 37q62 -148 152 -246q112 -115 297 -115q162 0 285 97q118 93 118 270q0 133 -101.5 218t-324.5 142q-245 65 -352 150q-106 84 -106 258
q0 186 139 307q142 121 336 121q178 0 301 -90t186 -244l-69 -39q-123 295 -422 295q-155 0 -271 -98t-116 -250q0 -135 90 -207q88 -70 301 -123q251 -65 372 -168.5t121 -269.5z" />
    <glyph glyph-name="scaron" unicode="&#x161;" horiz-adv-x="991" 
d="M725 1614h80l-273 -354h-90l-272 354h80l237 -291zM133 815q0 133 113 215t252 82q263 0 364 -229l-71 -39q-85 192 -297 192q-103 0 -191 -61t-88 -158q0 -96 64 -143.5t221 -79.5q199 -42 286.5 -112.5t87.5 -198.5q0 -136 -112 -217q-113 -84 -258 -84
q-284 0 -404 256l72 38q56 -113 135 -166t197 -53q112 0 201 62q90 66 90 162q0 97 -69.5 147.5t-246.5 89.5q-184 40 -265 105.5t-81 191.5z" />
    <glyph glyph-name="uni0162" unicode="&#x162;" horiz-adv-x="1253" 
d="M350 -494q-31 0 -59 7v69q46 -4 51 -4q135 0 207 74t72 211q0 57 -17 137h-14v1526h-541v78h1155v-78h-530v-1526q26 -62 26 -141q0 -208 -151 -303q-83 -50 -199 -50z" />
    <glyph glyph-name="uni0163" unicode="&#x163;" horiz-adv-x="706" 
d="M627 1020h-293v-723q0 -229 205 -229q36 0 88 10v-74q-53 -12 -95 -12q-56 0 -90 12q33 -56 33 -145q0 -211 -151 -303q-80 -50 -197 -50q-31 0 -59 7v69q46 -4 51 -4q135 0 205.5 73t70.5 212q0 144 -53 188q-88 70 -88 238v731h-207v74h207v313h80v-313h293v-74z" />
    <glyph glyph-name="Tcaron" unicode="&#x164;" horiz-adv-x="1255" 
d="M856 2103h88l-270 -354h-90l-273 354h88l230 -291zM678 1528v-1528h-86v1528h-543v76h1157v-76h-528z" />
    <glyph glyph-name="tcaron" unicode="&#x165;" horiz-adv-x="706" 
d="M596 1669h96l-69 -409h-58zM627 1020h-293v-723q0 -229 205 -229q36 0 88 10v-74q-53 -12 -95 -12q-278 0 -278 297v731h-207v74h207v313h80v-313h293v-74z" />
    <glyph glyph-name="Tbar" unicode="&#x166;" horiz-adv-x="1302" 
d="M612 856v672h-538v76h1155v-76h-531v-672h340v-78h-340v-778h-86v778h-340v78h340z" />
    <glyph glyph-name="tbar" unicode="&#x167;" horiz-adv-x="706" 
d="M627 1020h-293v-379h262v-72h-262v-272q0 -229 205 -229q36 0 88 10v-74q-53 -12 -95 -12q-278 0 -278 297v280h-197v72h197v379h-207v74h207v313h80v-313h293v-74z" />
    <glyph glyph-name="Utilde" unicode="&#x168;" horiz-adv-x="1597" 
d="M530 1749h-65q-1 118 43.5 186t124.5 68q86 0 188 -105q72 -75 125 -75q108 0 111 178h65q2 -117 -43.5 -185.5t-124.5 -68.5q-50 0 -87 21t-95 79q-80 80 -133 80q-106 0 -109 -178zM1296 1604h84v-975q0 -296 -151 -473q-149 -174 -428 -174q-285 0 -434 174
q-152 178 -152 469v979h86v-977q0 -274 133 -421t369 -147q243 0 368 149t125 417v979z" />
    <glyph glyph-name="utilde" unicode="&#x169;" horiz-adv-x="1284" 
d="M373 1280h-66q-1 118 43.5 186t124.5 68q88 0 189 -104q73 -76 124 -76q108 0 111 178h66q2 -117 -43.5 -185.5t-124.5 -68.5q-50 0 -87.5 21t-95.5 79q-80 80 -133 80q-105 0 -108 -178zM614 -20q-206 0 -321 124q-115 127 -115 330v660h80v-643q0 -188 98 -292
t271 -104q158 0 270 115q113 116 113 295v629h80v-1094h-80v242q-44 -119 -152.5 -190.5t-243.5 -71.5z" />
    <glyph glyph-name="Umacron" unicode="&#x16a;" horiz-adv-x="1597" 
d="M1141 1802h-682v76h682v-76zM1296 1604h86v-975q0 -296 -151 -473q-149 -174 -430 -174q-285 0 -434 174q-152 178 -152 469v979h86v-977q0 -274 133.5 -421t370.5 -147q243 0 367 149t124 417v979z" />
    <glyph glyph-name="umacron" unicode="&#x16b;" horiz-adv-x="1286" 
d="M977 1313h-682v76h682v-76zM616 -20q-204 0 -321 126t-117 328v660h82v-643q0 -188 98 -292t271 -104q158 0 270 115q113 116 113 295v629h80v-1094h-80v242q-44 -119 -152.5 -190.5t-243.5 -71.5z" />
    <glyph glyph-name="Uring" unicode="&#x16e;" horiz-adv-x="1599" 
d="M598 1913q0 85 59.5 145t145.5 60q85 0 145 -60t60 -145q0 -86 -60 -145.5t-145 -59.5q-86 0 -145.5 59.5t-59.5 145.5zM803 2048q-57 0 -95 -38t-38 -97q0 -57 38 -96t95 -39t95 39t38 96q0 55 -39.5 95t-93.5 40zM1298 1604h86v-975q0 -296 -151 -473
q-149 -174 -430 -174q-284 0 -436 174q-152 178 -152 469v979h88v-977q0 -274 133.5 -421t370.5 -147q243 0 367 149t124 417v979z" />
    <glyph glyph-name="uring" unicode="&#x16f;" horiz-adv-x="1286" 
d="M430 1442q0 85 60 145t145 60t145 -60t60 -145q0 -86 -60 -145.5t-145 -59.5t-145 59.5t-60 145.5zM635 1579q-57 0 -95 -38.5t-38 -98.5q0 -57 38 -96t95 -39t95 39t38 96q0 56 -39 96.5t-94 40.5zM616 -20q-204 0 -321 126t-117 328v660h82v-643q0 -188 98 -292
t271 -104q158 0 270 115q113 116 113 295v629h80v-1094h-80v242q-44 -119 -152.5 -190.5t-243.5 -71.5z" />
    <glyph glyph-name="Uhungarumlaut" unicode="&#x170;" horiz-adv-x="1599" 
d="M739 1749l230 354h92l-248 -354h-74zM1298 1604h86v-975q0 -296 -151 -473q-149 -174 -430 -174q-284 0 -436 174q-152 178 -152 469v979h88v-977q0 -274 133.5 -421t370.5 -147q243 0 367 149t124 417v979z" />
    <glyph glyph-name="uhungarumlaut" unicode="&#x171;" horiz-adv-x="1284" 
d="M668 1632h92l-248 -352h-74zM963 1632h92l-248 -352h-76zM612 -20q-202 0 -319 126q-115 127 -115 328v660h80v-643q0 -188 97 -292t270 -104q160 0 272 115q113 116 113 295v629h80v-1094h-80v242q-44 -119 -153 -190.5t-245 -71.5z" />
    <glyph glyph-name="Uogonek" unicode="&#x172;" horiz-adv-x="1597" 
d="M1030 -422v-72q-27 -6 -57 -6q-116 0 -192 62.5t-76 169.5q0 121 157 254q-54 -4 -61 -4q-285 0 -434 174q-152 178 -152 469v979h86v-977q0 -274 133 -421t369 -147q243 0 368 149t125 417v979h84v-975q0 -254 -108 -418t-311 -211q-76 -57 -125.5 -123t-49.5 -127
q0 -90 70 -134t174 -38z" />
    <glyph glyph-name="uogonek" unicode="&#x173;" horiz-adv-x="1284" 
d="M1157 -422v-72q-27 -6 -57 -6q-114 0 -190 62.5t-76 169.5q0 136 176 268v242q-44 -119 -153 -190.5t-245 -71.5q-202 0 -319 126q-115 127 -115 328v660h80v-643q0 -188 97 -292t270 -104q160 0 272 115q113 116 113 295v629h80v-1094q-76 -57 -125.5 -123t-49.5 -127
q0 -89 69.5 -133.5t172.5 -38.5z" />
    <glyph glyph-name="Wcircumflex" unicode="&#x174;" horiz-adv-x="2258" 
d="M1446 1751h-80l-238 291l-237 -291h-80l272 352h91zM68 1604h90l458 -1495l474 1495h79l478 -1495l458 1495h86l-499 -1604h-95l-469 1466l-469 -1466h-94z" />
    <glyph glyph-name="wcircumflex" unicode="&#x175;" horiz-adv-x="1757" 
d="M1198 1280h-80l-237 291l-238 -291h-80l273 352h90zM59 1094h88l340 -998l353 998h80l350 -998l348 998h80l-387 -1094h-82l-348 983l-353 -983h-82z" />
    <glyph glyph-name="Ycircumflex" unicode="&#x176;" horiz-adv-x="1468" 
d="M1055 1751h-78l-240 291l-237 -291h-78l270 352h90zM735 766l570 838h100l-629 -916v-688h-84v688l-629 916h103z" />
    <glyph glyph-name="ycircumflex" unicode="&#x177;" horiz-adv-x="1183" 
d="M926 1280h-78l-240 291l-237 -291h-78l270 352h90zM1055 1094h86l-774 -1633h-86l284 602l-514 1031h90l467 -942z" />
    <glyph glyph-name="Ydieresis" unicode="&#x178;" horiz-adv-x="1468" 
d="M508 1862q-23 25 -23 59t23 57q25 25 57.5 25t55.5 -25q23 -23 23 -57t-23 -59q-23 -23 -55.5 -23t-57.5 23zM850 1862q-23 25 -23 59t23 57q25 25 57.5 25t55.5 -25q38 -33 22 -78t-57 -57t-78 19zM735 766l570 838h100l-629 -916v-688h-84v688l-629 916h103z" />
    <glyph glyph-name="Zacute" unicode="&#x179;" horiz-adv-x="1257" 
d="M811 2103h92l-248 -354h-73zM96 1604h1082v-78l-1018 -1448h1022v-78h-1119v78l1020 1450h-987v76z" />
    <glyph glyph-name="zacute" unicode="&#x17a;" horiz-adv-x="1021" 
d="M676 1632h92l-250 -352h-74zM934 1094v-72l-760 -948h762v-74h-858v74l760 946h-742v74h838z" />
    <glyph glyph-name="Zdotaccent" unicode="&#x17b;" horiz-adv-x="1257" 
d="M623 2005q47 4 66.5 -39t0 -86t-66.5 -39q-33 0 -56.5 23.5t-23.5 58.5t22.5 58.5t57.5 23.5zM96 1604h1082v-78l-1018 -1448h1022v-78h-1119v78l1020 1450h-987v76z" />
    <glyph glyph-name="zdotaccent" unicode="&#x17c;" horiz-adv-x="1019" 
d="M426 1450q0 35 23.5 59.5t56.5 24.5q32 0 55 -24.5t23 -59.5q0 -33 -23 -57.5t-55 -24.5t-56 25t-24 57zM932 1094v-72l-758 -948h760v-74h-856v74l758 946h-740v74h836z" />
    <glyph glyph-name="Zcaron" unicode="&#x17d;" horiz-adv-x="1257" 
d="M874 2103h80l-272 -354h-90l-273 354h80l238 -291zM63 0v78l1020 1450h-987v76h1082v-78l-1020 -1448h1022v-78h-1117z" />
    <glyph glyph-name="zcaron" unicode="&#x17e;" horiz-adv-x="1019" 
d="M750 1614h79l-272 -354h-90l-272 354h79l238 -291zM932 1094v-72l-758 -948h760v-74h-856v74l758 946h-740v74h836z" />
    <glyph glyph-name="florin" unicode="&#x192;" horiz-adv-x="1200" 
d="M1130 1608v-76h-40q-137 0 -223 -79.5t-111 -221.5l-25 -137h299v-74h-313l-131 -682q-33 -164 -138 -260t-264 -96q-4 0 -24 1t-27 1v75h41q274 -9 336 310l125 651h-250v74h262l31 153q33 166 137.5 264.5t261.5 98.5q5 0 26.5 -1t26.5 -1z" />
    <glyph glyph-name="uni01B5" unicode="&#x1b5;" horiz-adv-x="1280" 
d="M1186 1526l-471 -670h471v-78h-524l-494 -700h1022v-78h-1118v78l493 700h-456v78h512l471 672h-988v76h1082v-78z" />
    <glyph glyph-name="uni01B6" unicode="&#x1b6;" horiz-adv-x="1030" 
d="M938 1094v-72l-350 -436h348v-74h-408l-350 -438h760v-74h-856v74l352 438h-332v74h390l350 434h-742v74h838z" />
    <glyph glyph-name="uni01CD" unicode="&#x1cd;" horiz-adv-x="1538" 
d="M1006 2083h77l-272 -352h-88l-274 352h79l240 -291zM815 1604l709 -1604h-92l-199 457h-930l-201 -457h-88l709 1604h92zM338 535h860l-432 976z" />
    <glyph glyph-name="uni01CE" unicode="&#x1ce;" horiz-adv-x="1157" 
d="M801 1614h78l-273 -354h-90l-270 354h78l237 -291zM979 0h-82v242q-61 -123 -172.5 -191.5t-243.5 -68.5q-158 0 -262 79q-104 82 -104 232q0 156 127 233q130 80 301 80h354v76q0 167 -87 260.5t-247 93.5q-251 0 -364 -223l-72 41q57 121 168 189.5t266 68.5
q193 0 305.5 -112t112.5 -312v-688zM899 449v83h-352q-135 0 -244 -59q-104 -58 -104 -178q0 -113 78 -175.5t206 -62.5q176 0 295 107q121 109 121 285z" />
    <glyph glyph-name="uni01CF" unicode="&#x1cf;" horiz-adv-x="561" 
d="M518 2103h80l-272 -354h-90l-273 354h80l238 -291zM238 0v1604h86v-1604h-86z" />
    <glyph glyph-name="uni01D0" unicode="&#x1d0;" horiz-adv-x="471" 
d="M473 1614h80l-272 -354h-91l-272 354h80l238 -291zM195 1094h81v-1094h-81v1094z" />
    <glyph glyph-name="uni01D1" unicode="&#x1d1;" horiz-adv-x="1816" 
d="M1147 2103h80l-273 -354h-90l-272 354h80l237 -291zM907 -16q-340 0 -563 235t-223 582q0 346 223 581q225 240 565 240t566 -238q223 -235 223 -579q0 -347 -225 -584t-566 -237zM907 1544q-301 0 -501 -215q-199 -214 -199 -522q0 -314 199 -531t505 -217
q302 0 502 215q199 217 199 525q0 307 -201 526t-504 219z" />
    <glyph glyph-name="uni01D2" unicode="&#x1d2;" horiz-adv-x="1341" 
d="M907 1614h78l-270 -354h-90l-273 354h78l240 -291zM670 -18q-237 0 -398 161t-161 400q0 241 159 405q164 164 402 164q239 0 397 -162q162 -162 162 -399q0 -238 -160 -406q-159 -163 -401 -163zM668 1036q-203 0 -338 -141q-133 -142 -133 -346t135 -348t340 -144
q204 0 340 142q135 141 135 346q0 208 -137 348q-137 143 -342 143z" />
    <glyph glyph-name="uni01D3" unicode="&#x1d3;" horiz-adv-x="1597" 
d="M1036 2103h80l-272 -354h-90l-273 354h80l238 -291zM1296 1604h84v-975q0 -296 -151 -473q-149 -174 -428 -174q-285 0 -434 174q-152 178 -152 469v979h86v-977q0 -274 133 -421t369 -147q243 0 368 149t125 417v979z" />
    <glyph glyph-name="uni01D4" unicode="&#x1d4;" horiz-adv-x="1284" 
d="M872 1614h78l-270 -354h-90l-273 354h78l240 -291zM612 -20q-202 0 -319 126q-115 127 -115 328v660h80v-643q0 -188 97 -292t270 -104q160 0 272 115q113 116 113 295v629h80v-1094h-80v242q-44 -119 -153 -190.5t-245 -71.5z" />
    <glyph glyph-name="uni01D5" unicode="&#x1d5;" horiz-adv-x="1597" 
d="M1141 1974h-682v74h682v-74zM571 1702q-23 25 -23 59.5t23 57.5q25 25 57.5 25t55.5 -25q23 -23 23 -57.5t-23 -59.5q-23 -23 -55.5 -23t-57.5 23zM913 1702q-23 25 -23 59.5t23 57.5q25 25 57.5 25t55.5 -25q38 -33 22 -78.5t-57 -57.5t-78 19zM1296 1604h84v-975
q0 -296 -151 -473q-149 -174 -428 -174q-285 0 -434 174q-152 178 -152 469v979h86v-977q0 -274 133 -421t369 -147q243 0 368 149t125 417v979z" />
    <glyph glyph-name="uni01D6" unicode="&#x1d6;" horiz-adv-x="1284" 
d="M975 1651h-682v75h682v-75zM473 1460q33 0 56.5 -23.5t23.5 -58.5t-24 -58t-54.5 -22.5t-58.5 21.5q-22 29 -23 60t22 56t58 25zM795 1460q35 0 57 -23t22 -59q0 -35 -23 -58.5t-56 -23.5q-47 -4 -66.5 39t0 86t66.5 39zM612 -20q-202 0 -319 126q-115 127 -115 328v660
h80v-643q0 -188 97 -292t270 -104q160 0 272 115q113 116 113 295v629h80v-1094h-80v242q-44 -119 -153 -190.5t-245 -71.5z" />
    <glyph glyph-name="uni01D7" unicode="&#x1d7;" horiz-adv-x="1597" 
d="M1083 2300l-225 -334h-84l217 334h92zM571 1819q25 25 57.5 25t55.5 -25q23 -23 23 -57.5t-23 -59.5q-23 -23 -55.5 -23t-57.5 23q-23 25 -23 59.5t23 57.5zM913 1819q33 38 78 21.5t56.5 -58t-21.5 -78.5q-23 -25 -55.5 -25t-57.5 23q-23 25 -23 59.5t23 57.5z
M1296 1604h84v-975q0 -296 -151 -473q-149 -174 -428 -174q-285 0 -434 174q-152 178 -152 469v979h86v-977q0 -274 133 -421t369 -147q243 0 368 149t125 417v979z" />
    <glyph glyph-name="uni01D8" unicode="&#x1d8;" horiz-adv-x="1284" 
d="M827 1942h91l-234 -332h-74zM473 1460q33 0 56.5 -23.5t23.5 -58.5t-24 -58t-54.5 -22.5t-58.5 21.5q-22 29 -23 60t22 56t58 25zM795 1460q35 0 57 -23t22 -59q0 -35 -23 -58.5t-56 -23.5q-47 -4 -66.5 39t0 86t66.5 39zM612 -20q-202 0 -319 126q-115 127 -115 328v660
h80v-643q0 -188 97 -292t270 -104q160 0 272 115q113 116 113 295v629h80v-1094h-80v242q-44 -119 -153 -190.5t-245 -71.5z" />
    <glyph glyph-name="uni01D9" unicode="&#x1d9;" horiz-adv-x="1597" 
d="M1012 2300h90l-256 -332h-90l-256 332h90l211 -268zM571 1702q-23 25 -23 59.5t23 57.5q25 25 57.5 25t55.5 -25q23 -23 23 -57.5t-23 -59.5q-23 -23 -55.5 -23t-57.5 23zM913 1702q-23 25 -23 59.5t23 57.5q25 25 57.5 25t55.5 -25q38 -33 22 -78.5t-57 -57.5t-78 19z
M1296 1604h84v-975q0 -296 -151 -473q-149 -174 -428 -174q-285 0 -434 174q-152 178 -152 469v979h86v-977q0 -274 133 -421t369 -147q243 0 368 149t125 417v979z" />
    <glyph glyph-name="uni01DA" unicode="&#x1da;" horiz-adv-x="1284" 
d="M334 1942h76l225 -269l223 269h78l-256 -332h-90zM473 1460q33 0 56.5 -23.5t23.5 -58.5t-24 -58t-54.5 -22.5t-58.5 21.5q-22 29 -23 60t22 56t58 25zM795 1460q35 0 57 -23t22 -59q0 -35 -23 -58.5t-56 -23.5q-47 -4 -66.5 39t0 86t66.5 39zM612 -20q-202 0 -319 126
q-115 127 -115 328v660h80v-643q0 -188 97 -292t270 -104q160 0 272 115q113 116 113 295v629h80v-1094h-80v242q-44 -119 -153 -190.5t-245 -71.5z" />
    <glyph glyph-name="uni01DB" unicode="&#x1db;" horiz-adv-x="1597" 
d="M635 2300l217 -334h-84l-225 334h92zM571 1702q-23 25 -23 59.5t23 57.5q25 25 57.5 25t55.5 -25q23 -23 23 -57.5t-23 -59.5q-23 -23 -55.5 -23t-57.5 23zM913 1702q-23 25 -23 59.5t23 57.5q25 25 57.5 25t55.5 -25q38 -33 22 -78.5t-57 -57.5t-78 19zM1296 1604h84
v-975q0 -296 -151 -473q-149 -174 -428 -174q-285 0 -434 174q-152 178 -152 469v979h86v-977q0 -274 133 -421t369 -147q243 0 368 149t125 417v979z" />
    <glyph glyph-name="uni01DC" unicode="&#x1dc;" horiz-adv-x="1284" 
d="M659 1610h-73l-236 332h92zM553 1378q0 -32 -24 -57t-56 -25q-33 0 -55.5 23.5t-22.5 58.5q-3 50 37.5 70.5t81.5 0t39 -70.5zM717 1378q0 35 23.5 58.5t56.5 23.5q53 0 73.5 -50.5t-18.5 -90.5q-35 -36 -85 -15t-50 74zM612 -20q-202 0 -319 126q-115 127 -115 328v660
h80v-643q0 -188 97 -292t270 -104q160 0 272 115q113 116 113 295v629h80v-1094h-80v242q-44 -119 -153 -190.5t-245 -71.5z" />
    <glyph glyph-name="Gcaron" unicode="&#x1e6;" horiz-adv-x="1753" 
d="M1151 2103h80l-273 -354h-90l-272 354h80l237 -291zM819 748h823v-78q0 -295 -204 -490q-205 -196 -533 -196q-345 0 -565 233q-219 236 -219 584q0 345 221 583t569 238q271 0 453 -147q183 -148 250 -338l-74 -35q-59 160 -207 293q-75 69 -186 109t-238 40
q-309 0 -506 -215q-196 -214 -196 -522q0 -320 194 -535q198 -213 508 -213q269 0 459 166q191 170 191 439v6h-740v78z" />
    <glyph glyph-name="gcaron" unicode="&#x1e7;" horiz-adv-x="1374" 
d="M877 1614h79l-272 -354h-90l-272 354h79l238 -291zM1100 1094h80v-1090q0 -279 -150 -414q-149 -137 -387 -137q-193 0 -321 83t-209 253l71 41q34 -70 67 -115.5t85 -87.5q110 -96 305 -96q215 0 337 120.5t122 348.5v307q-58 -139 -182 -225t-277 -86q-240 0 -383 162
q-145 165 -145 397q0 231 147 395q146 162 381 162q154 0 277.5 -83.5t181.5 -221.5v287zM1104 553v4q0 195 -129 336t-332 141q-198 0 -324 -135q-122 -134 -122 -342v-2q0 -207 122 -344q125 -137 324 -137q201 0 330 141q131 140 131 338z" />
    <glyph glyph-name="uni01E8" unicode="&#x1e8;" horiz-adv-x="1327" 
d="M963 2083h77l-272 -352h-88l-272 352h77l240 -291zM324 858h10l825 746h123l-856 -764l903 -840h-123l-872 813h-10v-813h-86v1604h86v-746z" />
    <glyph glyph-name="uni01E9" unicode="&#x1e9;" horiz-adv-x="1038" 
d="M909 0l-628 578h-7v-578h-79v1667h79v-1049h5l598 476h120l-630 -496l659 -598h-117zM981 1614h80l-273 -354h-90l-272 354h80l237 -291z" />
    <glyph glyph-name="uni01F4" unicode="&#x1f4;" horiz-adv-x="1753" 
d="M1104 2103h90l-250 -354h-72zM819 748h823v-78q0 -295 -204 -490q-205 -196 -533 -196q-345 0 -565 233q-219 236 -219 584q0 345 221 583t569 238q271 0 453 -147q183 -148 250 -338l-74 -35q-59 160 -207 293q-75 69 -186 109t-238 40q-309 0 -506 -215
q-196 -214 -196 -522q0 -320 194 -535q198 -213 508 -213q269 0 459 166q191 170 191 439v6h-740v78z" />
    <glyph glyph-name="uni01F5" unicode="&#x1f5;" horiz-adv-x="1376" 
d="M836 1632h92l-248 -352h-76zM1100 1094h80v-1090q0 -279 -150 -414q-149 -137 -387 -137q-193 0 -321 83t-209 253l71 41q34 -70 67 -115.5t85 -87.5q110 -96 305 -96q215 0 337 120.5t122 348.5v307q-58 -139 -182 -225t-277 -86q-240 0 -383 162q-145 165 -145 397
q0 231 147 395q146 162 381 162q154 0 277.5 -83.5t181.5 -221.5v287zM1104 553v4q0 195 -129 336t-332 141q-198 0 -324 -135q-122 -134 -122 -342v-2q0 -207 122 -344q125 -137 324 -137q201 0 330 141q131 140 131 338z" />
    <glyph glyph-name="Aringacute" unicode="&#x1fa;" horiz-adv-x="1538" 
d="M995 2222h92l-213 -315q97 -60 97 -174q0 -63 -35.5 -112.5t-95.5 -72.5l684 -1548h-92l-199 457h-930l-201 -457h-88l682 1546q-61 20 -98 71t-37 116q0 85 60 144.5t145 59.5q25 0 41 -4zM766 1870q-58 0 -95.5 -38t-37.5 -97q0 -57 38 -97.5t95 -40.5t95 40.5t38 97.5
q0 56 -39 95.5t-94 39.5zM1198 535l-432 976l-428 -976h860z" />
    <glyph glyph-name="aringacute" unicode="&#x1fb;" horiz-adv-x="1157" 
d="M700 1094q132 -36 205.5 -141t73.5 -265v-688h-82v242q-61 -123 -172.5 -191.5t-243.5 -68.5q-158 0 -262 79q-104 82 -104 232q0 156 127 233q130 80 301 80h354v76q0 167 -87 260.5t-247 93.5q-251 0 -364 -223l-72 41q89 189 293 242q-66 57 -66 137q0 85 60 144
t145 59q9 0 45 -4l191 288h92l-217 -317q94 -61 94 -170q0 -81 -64 -139zM692 1231q0 56 -39 95.5t-94 39.5q-43 4 -76 -21t-47 -61.5t-8 -79t35 -71.5q28 -29 70 -35t78 7.5t60.5 47.5t20.5 78zM899 449v83h-352q-135 0 -244 -59q-104 -58 -104 -178q0 -113 78 -175.5
t206 -62.5q176 0 295 107q121 109 121 285z" />
    <glyph glyph-name="AEacute" unicode="&#x1fc;" horiz-adv-x="2086" 
d="M1391 2103h92l-250 -354h-74zM1952 1528h-840v-672h768v-78h-768v-700h848v-78h-932v457h-672l-276 -457h-92l970 1604h994v-76zM1001 1528l-600 -993h627v993h-27z" />
    <glyph glyph-name="aeacute" unicode="&#x1fd;" horiz-adv-x="1955" 
d="M1124 1632h93l-248 -352h-74zM885 805q-59 231 -322 231q-251 0 -364 -223l-72 41q57 121 168 189.5t266 68.5q272 0 373 -223q70 101 181.5 162t234.5 61q104 0 189 -31.5t141.5 -84.5t95.5 -125.5t56 -152.5t17 -167v-19h-944q3 -191 133 -333q133 -142 330 -142
q123 0 224 61t157 165l70 -45q-64 -118 -184.5 -187t-268.5 -69q-141 0 -259.5 66t-191.5 183q-61 -117 -176.5 -183t-253.5 -66h-4q-158 0 -262 79q-104 82 -104 232q0 156 127 233q130 80 301 80h286q9 106 56 199zM905 606h858q-9 176 -110 301q-102 129 -307 129
q-174 0 -302 -131q-130 -130 -139 -299zM874 307q-44 102 -47 225h-280q-135 0 -244 -59q-104 -58 -104 -178q0 -113 78 -175.5t206 -62.5q121 0 236 68q111 65 155 182z" />
    <glyph glyph-name="Oslashacute" unicode="&#x1fe;" horiz-adv-x="1824" 
d="M1102 2103h92l-250 -354h-74zM1651 1681l55 -51l-225 -250q221 -235 221 -575q0 -347 -225 -584t-566 -237q-299 0 -510 184l-223 -250l-55 51l223 250q-221 238 -221 582q0 346 223 581q225 240 565 240q297 0 514 -190zM211 807q0 -311 192 -524l969 1085
q-197 176 -461 176q-301 0 -501 -215q-199 -214 -199 -522zM915 59q302 0 502 215q199 217 199 525q0 301 -193 518l-968 -1086q193 -172 460 -172z" />
    <glyph glyph-name="oslashacute" unicode="&#x1ff;" horiz-adv-x="1347" 
d="M868 1632h93l-248 -352h-74zM1186 1161l49 -45l-158 -172q156 -164 156 -393q0 -238 -160 -406q-159 -163 -399 -163q-206 0 -355 122l-153 -170l-51 48l153 170q-153 159 -153 391q0 241 159 405q164 164 402 164q202 0 352 -123zM672 1036q-206 0 -338 -141
q-133 -142 -133 -346q0 -201 123 -336l653 715q-132 108 -305 108zM676 57q204 0 340 142q135 141 135 346q0 199 -127 338l-653 -717q130 -109 305 -109z" />
    <glyph glyph-name="Scommaaccent" unicode="&#x218;" horiz-adv-x="1251" 
d="M1124 428q0 -198 -139 -322q-137 -122 -350 -122q-368 0 -518 399l71 37q62 -148 152 -246q112 -115 297 -115q162 0 285 97q118 93 118 270q0 133 -101.5 218t-324.5 142q-245 65 -352 150q-106 84 -106 258q0 186 139 307q142 121 336 121q178 0 301 -90t186 -244
l-69 -39q-123 295 -422 295q-155 0 -271 -98t-116 -250q0 -135 90 -207q88 -70 301 -123q251 -65 372 -168.5t121 -269.5zM604 -295q-32 0 -52 20t-20 52q0 35 21.5 56.5t52.5 21.5q41 0 65.5 -30.5t24.5 -84.5v-6q0 -143 -131 -234l-43 41q102 73 111 168q-12 -4 -29 -4z
" />
    <glyph glyph-name="scommaaccent" unicode="&#x219;" horiz-adv-x="991" 
d="M133 815q0 133 113 215t252 82q263 0 364 -229l-71 -39q-85 192 -297 192q-103 0 -191 -61t-88 -158q0 -96 64 -143.5t221 -79.5q199 -42 286.5 -112.5t87.5 -198.5q0 -136 -112 -217q-113 -84 -258 -84q-284 0 -404 256l72 38q56 -113 135 -166t197 -53q112 0 201 62
q90 66 90 162q0 97 -69.5 147.5t-246.5 89.5q-184 40 -265 105.5t-81 191.5zM483 -295q-32 0 -51.5 20t-19.5 52q0 35 21 56.5t52 21.5q41 0 65.5 -30.5t24.5 -84.5v-6q0 -143 -131 -234l-43 41q102 73 111 168q-12 -4 -29 -4z" />
    <glyph glyph-name="uni021A" unicode="&#x21a;" horiz-adv-x="1253" 
d="M1204 1604v-76h-530v-1528h-84v1528h-541v76h1155zM614 -295q-32 0 -51.5 20t-19.5 52q0 35 21 56.5t52 21.5q42 0 66.5 -30.5t24.5 -84.5v-6q0 -143 -132 -234l-43 41q102 73 111 168q-12 -4 -29 -4z" />
    <glyph glyph-name="uni021B" unicode="&#x21b;" horiz-adv-x="706" 
d="M627 1020h-293v-723q0 -229 205 -229q36 0 88 10v-74q-53 -12 -95 -12q-278 0 -278 297v731h-207v74h207v313h80v-313h293v-74zM403 -295q-32 0 -51.5 20t-19.5 52q0 35 21.5 56.5t52.5 21.5q41 0 65.5 -30.5t24.5 -84.5v-6q0 -143 -131 -234l-43 41q101 73 110 168
q-12 -4 -29 -4z" />
    <glyph glyph-name="uni0237" unicode="&#x237;" horiz-adv-x="485" 
d="M211 1094h80v-1348q0 -293 -279 -293q-44 0 -71 6v74q10 -2 65 -2q205 0 205 211v1352z" />
    <glyph glyph-name="circumflex" unicode="&#x2c6;" horiz-adv-x="669" 
d="M653 1280h-78l-237 291l-240 -291h-78l273 352h90z" />
    <glyph glyph-name="breve" unicode="&#x2d8;" horiz-adv-x="694" 
d="M594 1608h59q0 -151 -84 -239.5t-221 -88.5q-138 0 -222.5 88.5t-84.5 239.5h59q6 -119 70 -186.5t178 -67.5t177.5 68t68.5 186z" />
    <glyph glyph-name="dotaccent" unicode="&#x2d9;" horiz-adv-x="241" 
d="M41 1450q0 35 23.5 59.5t56.5 24.5t56.5 -24.5t23.5 -59.5q0 -32 -24 -57t-56 -25t-56 25t-24 57z" />
    <glyph glyph-name="tilde" unicode="&#x2dc;" horiz-adv-x="749" 
d="M111 1280h-66q-1 118 43.5 186t124.5 68q87 0 188 -104q73 -76 125 -76q108 0 111 178h65q2 -117 -43 -185.5t-124 -68.5q-50 0 -87.5 21t-95.5 79q-80 80 -133 80q-105 0 -108 -178z" />
    <glyph glyph-name="hungarumlaut" unicode="&#x2dd;" horiz-adv-x="696" 
d="M270 1632h92l-247 -352h-74zM563 1632h92l-247 -352h-74z" />
    <glyph glyph-name="gravecomb" unicode="&#x300;" horiz-adv-x="0" 
d="M162 1280h-74l-250 352h92z" />
    <glyph glyph-name="acutecomb" unicode="&#x301;" horiz-adv-x="0" 
d="M141 1632h92l-247 -352h-74z" />
    <glyph glyph-name="tildecomb" unicode="&#x303;" horiz-adv-x="0" 
d="M-264 1280h-66q-1 118 43.5 186t124.5 68q88 0 189 -104q73 -76 125 -76q107 0 110 178h66q2 -117 -43.5 -185.5t-124.5 -68.5q-50 0 -87.5 21t-95.5 79q-80 80 -133 80q-105 0 -108 -178z" />
    <glyph glyph-name="uni0304" unicode="&#x304;" horiz-adv-x="0" 
d="M342 1313h-684v76h684v-76z" />
    <glyph glyph-name="uni0306" unicode="&#x306;" horiz-adv-x="0" 
d="M246 1608h59q0 -151 -84 -239.5t-221 -88.5q-138 0 -222.5 88.5t-84.5 239.5h59q6 -119 70 -186.5t178 -67.5t177.5 68t68.5 186z" />
    <glyph glyph-name="uni0307" unicode="&#x307;" horiz-adv-x="0" 
d="M-80 1450q0 35 23.5 59.5t56.5 24.5t56.5 -24.5t23.5 -59.5q0 -32 -24 -57t-56 -25t-56 25t-24 57z" />
    <glyph glyph-name="uni0308" unicode="&#x308;" horiz-adv-x="0" 
d="M-242 1450q0 35 23.5 59.5t56.5 24.5t56.5 -24.5t23.5 -59.5q0 -32 -24 -57t-56 -25t-56 25t-24 57zM82 1450q0 35 23.5 59.5t56.5 24.5t56.5 -24.5t23.5 -59.5q0 -32 -24 -57t-56 -25t-56 25t-24 57z" />
    <glyph glyph-name="uni030A" unicode="&#x30a;" horiz-adv-x="0" 
d="M-205 1442q0 85 60 145t145 60t145 -60t60 -145q0 -86 -60 -145.5t-145 -59.5t-145 59.5t-60 145.5zM0 1579q-57 0 -95 -38.5t-38 -98.5q0 -57 38 -96t95 -39t95 39t38 96q0 56 -39 96.5t-94 40.5z" />
    <glyph glyph-name="uni030B" unicode="&#x30b;" horiz-adv-x="0" 
d="M-78 1632h92l-247 -352h-74zM215 1632h92l-248 -352h-73z" />
    <glyph glyph-name="uni030C" unicode="&#x30c;" horiz-adv-x="0" 
d="M238 1614h79l-272 -354h-90l-272 354h79l238 -291z" />
    <glyph glyph-name="uni0312" unicode="&#x312;" horiz-adv-x="0" 
d="M8 1438q74 0 74 -72q0 -34 -22 -56t-54 -22q-41 0 -65.5 30.5t-24.5 84.5v8q0 140 131 231l43 -38q-101 -76 -110 -170q12 4 28 4z" />
    <glyph glyph-name="uni0326" unicode="&#x326;" horiz-adv-x="0" 
d="M-10 -295q-32 0 -52 20t-20 52q0 35 21.5 56.5t52.5 21.5q41 0 65.5 -30.5t24.5 -84.5v-6q0 -143 -131 -234l-43 41q101 73 110 168q-12 -4 -28 -4z" />
    <glyph glyph-name="uni0327" unicode="&#x327;" horiz-adv-x="0" 
d="M-143 -494q-30 0 -62 7v69q50 -4 53 -4q133 0 205 74t72 211q0 66 -14 137h67q27 -64 27 -141q0 -211 -154 -303q-80 -50 -194 -50z" />
    <glyph glyph-name="uni0328" unicode="&#x328;" horiz-adv-x="0" 
d="M164 -422v-72q-30 -6 -60 -6q-116 0 -192 63t-76 169q0 136 178 268h78q-174 -131 -174 -250q0 -90 70 -134t176 -38z" />
    <glyph glyph-name="Theta" unicode="&#x398;" horiz-adv-x="1818" 
d="M907 -16q-340 0 -563 235t-223 582q0 346 223 581q225 240 565 240t566 -238q223 -235 223 -579q0 -347 -225 -584t-566 -237zM907 1544q-301 0 -501 -215q-199 -214 -199 -522q0 -314 199 -531t505 -217q302 0 502 215q199 217 199 525q0 307 -201 526t-504 219z
M385 856h1047v-78h-1047v78z" />
    <glyph glyph-name="uni03A9" unicode="&#x3a9;" horiz-adv-x="1781" 
d="M1565 856q0 285 -197 485q-194 203 -477 203q-281 0 -479 -201q-195 -201 -195 -483q0 -254 132 -421t376 -214v-225h-586v78h508v88q-253 62 -385 252q-131 189 -131 446q0 320 225 537q226 221 539 221q304 0 530 -221t226 -533q0 -258 -138 -452q-136 -192 -378 -250
v-88h507v-78h-585v225q244 47 376 213t132 418z" />
    <glyph glyph-name="theta" unicode="&#x3b8;" horiz-adv-x="1484" 
d="M741 -16q-202 0 -346 129q-141 126 -207.5 309.5t-66.5 404.5q0 319 151 572q75 127 197.5 200.5t271.5 73.5q150 0 273 -73t198 -199q152 -251 152 -570q0 -316 -152 -573q-75 -126 -198.5 -200t-272.5 -74zM205 868h1073q-4 133 -39.5 259t-99.5 232t-168 171t-232 65
q-104 0 -191.5 -42.5t-148 -114t-104 -166t-65 -196.5t-25.5 -208zM1280 797h-1075q3 -105 25 -208t66 -199.5t105 -169.5t150 -117t194 -44q126 0 231.5 65.5t168.5 176.5q126 217 135 496z" />
    <glyph glyph-name="pi" unicode="&#x3c0;" horiz-adv-x="1261" 
d="M1176 70v-78h-43q-151 0 -215 67.5t-64 221.5v739h-502v-1020h-80v1020h-239v74h1143v-74h-242v-731q0 -123 43.5 -172t159.5 -49q29 0 39 2z" />
    <glyph glyph-name="uni0401" unicode="&#x401;" horiz-adv-x="1337" 
d="M489 1862q-23 25 -23 59t23 57q25 25 57.5 25t55.5 -25q23 -23 23 -57t-23 -59q-23 -23 -55.5 -23t-57.5 23zM831 1864q-23 25 -23 57t23 57q25 25 57.5 25t55.5 -25q38 -33 22 -78.5t-57 -57t-78 21.5zM1200 1528h-876v-672h806v-78h-806v-700h886v-78h-972v1604h962
v-76z" />
    <glyph glyph-name="uni0402" unicode="&#x402;" horiz-adv-x="1679" 
d="M1083 -16q-110 0 -223 49l29 69q93 -41 201 -41q61 0 118 13.5t112 47t95.5 83.5t65 129t24.5 178q0 194 -116 313q-115 121 -304 121q-160 0 -285 -50.5t-253 -166.5v-729h-84v1528h-416v76h1073v-76h-573v-699q248 195 532 195q229 0 369 -137q141 -135 141 -375
q0 -249 -143 -389q-142 -139 -363 -139z" />
    <glyph glyph-name="uni0403" unicode="&#x403;" horiz-adv-x="1171" 
d="M805 2103h92l-250 -354h-74zM238 1604h874v-76h-790v-1528h-84v1604z" />
    <glyph glyph-name="uni0404" unicode="&#x404;" horiz-adv-x="1716" 
d="M1550 522l74 -35q-64 -180 -229 -329q-87 -80 -215.5 -127t-274.5 -47q-344 0 -563 235q-221 238 -221 582q0 346 223 581q225 240 565 240q142 0 267.5 -45.5t212.5 -122.5q167 -145 231 -334l-74 -35q-60 168 -205 301q-77 74 -190.5 116t-245.5 42q-290 0 -485 -198
q-196 -202 -211 -490h825v-78h-827q9 -300 207 -510q197 -209 493 -209q138 0 257 47t196 127q132 138 190 289z" />
    <glyph glyph-name="uni0405" unicode="&#x405;" horiz-adv-x="1251" 
d="M1124 428q0 -198 -139 -322q-137 -122 -350 -122q-368 0 -518 399l71 37q62 -148 152 -246q112 -115 297 -115q162 0 285 97q118 93 118 270q0 133 -101.5 218t-324.5 142q-245 65 -352 150q-106 84 -106 258q0 186 139 307q142 121 336 121q178 0 301 -90t186 -244
l-69 -39q-123 295 -422 295q-155 0 -271 -98t-116 -250q0 -135 90 -207q88 -70 301 -123q251 -65 372 -168.5t121 -269.5z" />
    <glyph glyph-name="uni0406" unicode="&#x406;" horiz-adv-x="561" 
d="M324 1604v-1604h-86v1604h86z" />
    <glyph glyph-name="uni0407" unicode="&#x407;" horiz-adv-x="561" 
d="M88 1864q-23 25 -23 57t23 57q25 25 57.5 25t55.5 -25q25 -23 25 -57t-25 -59q-23 -23 -55.5 -23t-57.5 25zM403 1862q-23 25 -23 59t23 57q23 25 55.5 25t55.5 -25q25 -23 25 -57t-25 -59q-23 -23 -55.5 -23t-55.5 23zM324 1604v-1604h-86v1604h86z" />
    <glyph glyph-name="uni0408" unicode="&#x408;" horiz-adv-x="1159" 
d="M510 59q165 0 254.5 97.5t89.5 275.5v1172h86v-1172q0 -208 -114 -328t-314 -120q-294 0 -432 344l72 41q120 -310 358 -310z" />
    <glyph glyph-name="uni0409" unicode="&#x409;" horiz-adv-x="2482" 
d="M1296 1528h-739l-94 -879q-23 -206 -121 -409q-51 -110 -133 -177t-176 -67h-8v76q80 0 148.5 64.5t111.5 170.5q83 209 98 375l96 922h901v-674h451q254 -3 410 -115q161 -112 161 -330q0 -231 -157 -358t-404 -127h-545v1528zM1382 852v-774h455q198 0 338 96
q141 99 141 307q0 84 -29 149.5t-76 106.5t-112.5 67.5t-133 37t-142.5 10.5h-441z" />
    <glyph glyph-name="uni040A" unicode="&#x40a;" horiz-adv-x="2547" 
d="M324 895h1040v709h86v-709h469q238 0 395 -109q156 -108 156 -319q0 -228 -156 -348q-152 -119 -383 -119h-567v815h-1040v-815h-86v1604h86v-709zM1450 815v-737h471q187 0 315 78q70 42 109 120t39 185q0 102 -41.5 176t-116.5 111q-134 67 -321 67h-455z" />
    <glyph glyph-name="uni040B" unicode="&#x40b;" horiz-adv-x="1705" 
d="M1589 0h-84v549q0 171 -108 272t-312 101q-160 0 -285 -50.5t-253 -166.5v-705h-84v1528h-416v76h1073v-76h-573v-723q247 194 532 194q236 0 373 -117.5t137 -336.5v-545z" />
    <glyph glyph-name="uni040C" unicode="&#x40c;" horiz-adv-x="1327" 
d="M874 2103h93l-250 -354h-74zM324 1604v-746h10l825 746h123l-856 -764l903 -840h-123l-872 813h-10v-813h-86v1604h86z" />
    <glyph glyph-name="uni040E" unicode="&#x40e;" horiz-adv-x="1404" 
d="M717 1772q-121 0 -207 79t-123 217l64 15q71 -238 266 -238t266 238l66 -15q-39 -139 -124.5 -217.5t-207.5 -78.5zM49 74l43 65q104 -78 203 -78q163 0 264 113q87 94 152 225l-686 1205h96l633 -1121l546 1121h93l-605 -1229q-97 -200 -210.5 -295.5t-278.5 -95.5
q-140 0 -250 90z" />
    <glyph glyph-name="uni040F" unicode="&#x40f;" horiz-adv-x="1660" 
d="M238 0v1604h84v-1526h1015v1526h86v-1604h-551v-330h-84v330h-550z" />
    <glyph glyph-name="uni0410" unicode="&#x410;" horiz-adv-x="1538" 
d="M815 1604l709 -1604h-92l-199 457h-930l-201 -457h-88l709 1604h92zM338 535h860l-432 976z" />
    <glyph glyph-name="uni0411" unicode="&#x411;" horiz-adv-x="1464" 
d="M324 1528v-627h477q254 0 407 -106q156 -108 156 -330q0 -236 -152 -352q-149 -113 -401 -113h-573v1604h1042v-76h-956zM324 823v-745h485q192 0 319 76q71 44 110.5 123.5t39.5 187.5q0 82 -29 146t-76 103.5t-112 64.5t-130 34.5t-138 9.5h-469z" />
    <glyph glyph-name="uni0412" unicode="&#x412;" horiz-adv-x="1482" 
d="M238 0v1604h524q271 0 397 -117q127 -118 127 -285q0 -113 -72 -223q-69 -106 -229 -154q187 -30 281 -149q96 -119 96 -250q0 -194 -151 -310t-429 -116h-544zM324 1528v-672h452q204 0 315 94t111 248q0 150 -115 240t-327 90h-436zM324 778v-700h462q233 0 361.5 92.5
t128.5 255.5q0 161 -126.5 256.5t-354.5 95.5h-471z" />
    <glyph glyph-name="uni0413" unicode="&#x413;" horiz-adv-x="1171" 
d="M1112 1528h-790v-1528h-84v1604h874v-76z" />
    <glyph glyph-name="uni0414" unicode="&#x414;" horiz-adv-x="1603" 
d="M111 0v-330h-86v406h2q84 0 153.5 63.5t112.5 169.5q82 198 98 375l98 920h842v-1526h174v-408h-86v330h-1308zM1247 1528h-682l-92 -879q-18 -179 -82 -336q-65 -160 -182 -235h1038v1450z" />
    <glyph glyph-name="uni0415" unicode="&#x415;" horiz-adv-x="1337" 
d="M324 856h806v-78h-806v-700h886v-78h-972v1604h962v-76h-876v-672z" />
    <glyph glyph-name="uni0416" unicode="&#x416;" horiz-adv-x="1972" 
d="M156 1604l778 -748h10v748h84v-748h10l781 748h118l-804 -762l837 -842h-121l-809 815h-12v-815h-84v815h-10l-811 -815h-119l838 842l-805 762h119z" />
    <glyph glyph-name="uni0417" unicode="&#x417;" horiz-adv-x="1269" 
d="M627 1622q227 0 358 -125t131 -293q0 -121 -82 -231q-82 -108 -229 -148q166 -36 256 -145.5t90 -259.5q0 -181 -143 -309q-145 -127 -381 -127q-195 0 -330 106q-141 110 -195 270l72 37q68 -170 184 -252q119 -84 267 -84q190 0 315 101q127 103 127 258
q0 167 -116 262.5t-324 95.5h-203v78h201q181 0 293 100q114 102 114 248q0 143 -112 240q-109 100 -295 100q-138 0 -238 -69q-129 -84 -192 -263l-74 33q49 162 182 271q133 106 324 106z" />
    <glyph glyph-name="uni0418" unicode="&#x418;" horiz-adv-x="1703" 
d="M1464 0h-84v1495l-1036 -1495h-106v1604h86v-1493l1038 1493h102v-1604z" />
    <glyph glyph-name="uni0419" unicode="&#x419;" horiz-adv-x="1703" 
d="M852 1772q-121 0 -207 79t-123 217l64 15q71 -238 266 -238t266 238l66 -15q-39 -139 -124.5 -217.5t-207.5 -78.5zM324 1604v-1493l1038 1493h102v-1604h-84v1495l-1036 -1495h-106v1604h86z" />
    <glyph glyph-name="uni041A" unicode="&#x41a;" horiz-adv-x="1325" 
d="M324 858h8l827 746h123l-856 -764l903 -840h-125l-872 813h-8v-813h-86v1604h86v-746z" />
    <glyph glyph-name="uni041B" unicode="&#x41b;" horiz-adv-x="1619" 
d="M1296 1528h-739l-94 -879q-23 -206 -121 -409q-51 -110 -133 -177t-176 -67h-8v76q79 0 148 65.5t112 171.5q83 206 98 373l96 922h901v-1604h-84v1528z" />
    <glyph glyph-name="uni041C" unicode="&#x41c;" horiz-adv-x="2109" 
d="M238 1604h112l705 -1508l702 1508h115v-1604h-84v1483l-690 -1483h-86l-690 1477v-1477h-84v1604z" />
    <glyph glyph-name="uni041D" unicode="&#x41d;" horiz-adv-x="1687" 
d="M324 1604v-748h1040v748h86v-1604h-86v778h-1040v-778h-86v1604h86z" />
    <glyph glyph-name="uni041E" unicode="&#x41e;" horiz-adv-x="1818" 
d="M907 -16q-340 0 -563 235t-223 582q0 346 223 581q225 240 565 240t566 -238q223 -235 223 -579q0 -347 -225 -584t-566 -237zM907 1544q-301 0 -501 -215q-199 -214 -199 -522q0 -314 199 -531t505 -217q302 0 502 215q199 217 199 525q0 307 -201 526t-504 219z" />
    <glyph glyph-name="uni041F" unicode="&#x41f;" horiz-adv-x="1660" 
d="M1423 1604v-1604h-86v1528h-1013v-1528h-86v1604h1185z" />
    <glyph glyph-name="uni0420" unicode="&#x420;" horiz-adv-x="1357" 
d="M238 0v1604h452q300 0 445 -136q143 -131 143 -331q0 -208 -154 -344t-452 -136h-348v-657h-86zM324 1528v-791h350q266 0 391 113q127 115 127 285q0 164 -123 278q-121 115 -387 115h-358z" />
    <glyph glyph-name="uni0421" unicode="&#x421;" horiz-adv-x="1716" 
d="M1550 522l74 -35q-64 -180 -229 -329q-87 -80 -215.5 -127t-274.5 -47q-344 0 -563 235q-221 238 -221 582q0 346 223 581q225 240 565 240q142 0 267.5 -45.5t212.5 -122.5q167 -145 231 -334l-74 -35q-60 168 -205 301q-77 74 -190.5 116t-245.5 42q-302 0 -502 -215
q-196 -214 -196 -522q0 -311 196 -528q202 -220 504 -220q138 0 257 47t196 127q132 138 190 289z" />
    <glyph glyph-name="uni0422" unicode="&#x422;" horiz-adv-x="1253" 
d="M1204 1604v-76h-530v-1528h-84v1528h-541v76h1155z" />
    <glyph glyph-name="uni0423" unicode="&#x423;" horiz-adv-x="1404" 
d="M49 74l43 65q104 -78 203 -78q163 0 264 113q87 94 152 225l-686 1205h96l633 -1121l546 1121h93l-605 -1229q-97 -200 -210.5 -295.5t-278.5 -95.5q-140 0 -250 90z" />
    <glyph glyph-name="uni0424" unicode="&#x424;" horiz-adv-x="1904" 
d="M909 -49v166h-39q-347 0 -557 186q-213 189 -213 502t211 500q212 188 559 188h39v162h84v-162h39q347 0 559 -188q213 -189 213 -500q0 -313 -213 -502q-210 -186 -559 -186h-39v-166h-84zM909 193v1224h-39q-309 0 -495 -168q-189 -171 -189 -444q0 -277 191 -447
q189 -165 493 -165h39zM993 1417v-1224h39q307 0 496 165q190 169 190 447q0 274 -188 444q-186 168 -498 168h-39z" />
    <glyph glyph-name="uni0425" unicode="&#x425;" horiz-adv-x="1411" 
d="M150 1604l555 -727l557 727h100l-604 -785l628 -819h-100l-581 760l-580 -760h-100l630 817l-606 787h101z" />
    <glyph glyph-name="uni0426" unicode="&#x426;" horiz-adv-x="1695" 
d="M238 1604h84v-1526h1015v1526h86v-1526h172v-408h-84v330h-1273v1604z" />
    <glyph glyph-name="uni0427" unicode="&#x427;" horiz-adv-x="1503" 
d="M1266 0h-86v762q-109 -64 -258 -115t-281 -51q-253 0 -383.5 116t-130.5 326v566h84v-568q0 -174 111 -269t315 -95q120 0 266 51q153 53 277 123v758h86v-1604z" />
    <glyph glyph-name="uni0428" unicode="&#x428;" horiz-adv-x="2490" 
d="M238 1604h84v-1526h880v1526h86v-1526h881v1526h84v-1604h-2015v1604z" />
    <glyph glyph-name="uni0429" unicode="&#x429;" horiz-adv-x="2525" 
d="M238 1604h84v-1526h880v1526h86v-1526h881v1526h84v-1526h174v-408h-86v330h-2103v1604z" />
    <glyph glyph-name="uni042A" unicode="&#x42a;" horiz-adv-x="1605" 
d="M506 1604v-674h448q254 0 412 -113q160 -115 160 -332q0 -230 -158 -358q-157 -127 -401 -127h-545v1528h-391v76h475zM506 852v-774h457q197 0 337 96q140 100 140 307q0 84 -29 149.5t-76.5 106.5t-113 67.5t-133 37t-142.5 10.5h-440z" />
    <glyph glyph-name="uni042B" unicode="&#x42b;" horiz-adv-x="2021" 
d="M324 1604v-674h448q252 0 410 -113q161 -112 161 -332q0 -231 -157 -358t-404 -127h-544v1604h86zM1784 1604v-1604h-86v1604h86zM324 852v-774h454q198 0 338 96q141 99 141 307q0 102 -42.5 178t-118.5 115q-139 78 -332 78h-440z" />
    <glyph glyph-name="uni042C" unicode="&#x42c;" horiz-adv-x="1423" 
d="M324 1604v-674h448q252 0 410 -113q161 -112 161 -332q0 -231 -157 -358t-404 -127h-544v1604h86zM324 852v-774h454q198 0 338 96q141 99 141 307q0 102 -42.5 178t-118.5 115q-139 78 -332 78h-440z" />
    <glyph glyph-name="uni042D" unicode="&#x42d;" horiz-adv-x="1716" 
d="M813 1622q340 0 561 -238t221 -579q0 -349 -223 -584q-220 -237 -563 -237q-145 0 -273 46t-217 124q-166 153 -227 333l74 35q53 -147 188 -291q76 -79 196.5 -125.5t260.5 -46.5q299 0 494 207q195 210 204 512h-827v78h825q-18 287 -215 487q-195 201 -481 201
q-128 0 -239.5 -41t-190.5 -114q-147 -135 -211 -304l-74 35q75 196 236 336q89 77 213.5 121.5t267.5 44.5z" />
    <glyph glyph-name="uni042E" unicode="&#x42e;" horiz-adv-x="2306" 
d="M1427 1622q331 0 543 -238q213 -239 213 -581q0 -345 -213 -584q-210 -235 -547 -235q-327 0 -534 223q-208 225 -223 555h-342v-762h-86v1604h86v-764h342q12 331 223 555q211 227 538 227zM1427 59q294 0 482 215t188 525q0 308 -188 526q-189 219 -484 219
q-300 0 -487 -217q-186 -216 -186 -528q0 -311 190 -525q194 -215 485 -215z" />
    <glyph glyph-name="uni042F" unicode="&#x42f;" horiz-adv-x="1435" 
d="M711 659l-514 -659h-109l522 668q-227 29 -350 154t-123 319q0 174 125 311q68 71 185.5 111.5t269.5 40.5h479v-1604h-84v657h-397zM1112 735v793h-389q-134 0 -237 -35t-160 -96q-103 -114 -103 -262q-1 -58 16 -113t56 -108t97 -92t147 -63t198 -24h375z" />
    <glyph glyph-name="uni0430" unicode="&#x430;" horiz-adv-x="1157" 
d="M979 0h-82v242q-61 -123 -172.5 -191.5t-243.5 -68.5q-158 0 -262 79q-104 82 -104 232q0 156 127 233q130 80 301 80h354v76q0 167 -87 260.5t-247 93.5q-251 0 -364 -223l-72 41q57 121 168 189.5t266 68.5q193 0 305.5 -112t112.5 -312v-688zM899 449v83h-352
q-135 0 -244 -59q-104 -58 -104 -178q0 -113 78 -175.5t206 -62.5q176 0 295 107q121 109 121 285z" />
    <glyph glyph-name="uni0431" unicode="&#x431;" horiz-adv-x="1366" 
d="M1178 1632l20 -71l-422 -109q-162 -45 -264.5 -106.5t-161.5 -145.5q-44 -64 -64.5 -108t-33.5 -109q-17 -75 -19 -106q-7 -94 -8 -105h4q60 162 190 249t298 87q220 0 379 -156t159 -399q0 -256 -157 -416q-157 -157 -393 -157q-163 0 -293.5 80t-196.5 229
q-57 129 -57 344q0 143 10 256q8 95 45 213q37 112 102 186q155 169 465 246zM707 1034q-206 0 -338 -141q-129 -138 -129 -344q0 -209 129 -350q133 -142 338 -142q204 0 335 140q132 141 132 352q0 212 -136 348q-134 137 -331 137z" />
    <glyph glyph-name="uni0432" unicode="&#x432;" horiz-adv-x="1228" 
d="M195 0v1094h505q144 0 250 -68q107 -64 107 -205q0 -176 -187 -252q114 -31 180 -99.5t66 -170.5q0 -135 -105 -217t-286 -82h-530zM274 1020v-422h420q150 0 215 68q66 72 66 157q0 90 -72 143.5t-203 53.5h-426zM274 524v-450h443q146 0 230.5 62t84.5 171
q0 101 -86.5 159t-257.5 58h-414z" />
    <glyph glyph-name="uni0433" unicode="&#x433;" horiz-adv-x="929" 
d="M274 1020v-1020h-79v1094h694v-74h-615z" />
    <glyph glyph-name="uni0434" unicode="&#x434;" horiz-adv-x="1300" 
d="M139 0v-338h-80v412h13q52 0 96 42t70 111q48 123 61 242l68 625h700v-1020h129v-412h-80v338h-977zM987 1020h-547l-61 -565q-27 -266 -166 -381h774v946z" />
    <glyph glyph-name="uni0435" unicode="&#x435;" horiz-adv-x="1243" 
d="M1139 551v-19h-942q3 -193 131 -333q130 -142 329 -142q123 0 224 61t157 165l70 -45q-63 -118 -185 -187t-270 -69q-234 0 -389 165q-153 169 -153 402v4q0 220 151 391q152 168 375 168q252 0 377 -162t125 -399zM197 606h858q-3 62 -18.5 120.5t-48.5 115.5t-80 99.5
t-118 68.5t-157 26q-171 0 -299 -131t-137 -299z" />
    <glyph glyph-name="uni0436" unicode="&#x436;" horiz-adv-x="1552" 
d="M913 586l607 -586h-115l-582 563h-8v-563h-80v563h-8l-580 -563h-114l604 586l-588 508h115l563 -492h8v492h80v-492h8l563 492h115z" />
    <glyph glyph-name="uni0437" unicode="&#x437;" horiz-adv-x="976" 
d="M479 -18q-140 0 -244.5 67t-160.5 189l71 36q108 -217 336 -217q126 0 215 68q90 69 90 170q0 99 -83.5 162t-217.5 63h-163v72h157q128 0 207.5 61t79.5 160q0 94 -80 158.5t-207 64.5q-221 0 -329 -215l-72 37q56 123 162 188.5t239 65.5q156 0 262 -86
q107 -85 107 -209q0 -89 -59.5 -158t-159.5 -100q239 -64 239 -268q0 -126 -110 -217q-112 -92 -279 -92z" />
    <glyph glyph-name="uni0438" unicode="&#x438;" horiz-adv-x="1314" 
d="M1038 1094h80v-1094h-80v977l-764 -977h-79v1094h79v-975z" />
    <glyph glyph-name="uni0439" unicode="&#x439;" horiz-adv-x="1314" 
d="M655 1280q-121 0 -206 79.5t-123 217.5l63 14q70 -237 266 -237q197 0 267 237l65 -14q-39 -140 -124.5 -218.5t-207.5 -78.5zM195 0v1094h79v-975l764 975h80v-1094h-80v977l-764 -977h-79z" />
    <glyph glyph-name="uni043A" unicode="&#x43a;" horiz-adv-x="1040" 
d="M373 586l655 -586h-119l-626 563h-9v-563h-79v1092h79v-490h9l600 490h116z" />
    <glyph glyph-name="uni043B" unicode="&#x43b;" horiz-adv-x="1273" 
d="M999 1020h-587l-62 -563q-12 -116 -43 -215q-31 -97 -100 -172q-68 -74 -164 -74h-4v76q47 0 86.5 28.5t64.5 73.5q26 48 43 102q26 82 37 193l70 625h739v-1094h-80v1020z" />
    <glyph glyph-name="uni043C" unicode="&#x43c;" horiz-adv-x="1615" 
d="M195 1094h98l516 -1016l510 1016h100v-1094h-80v977l-485 -977h-88l-494 971v-971h-77v1094z" />
    <glyph glyph-name="uni043D" unicode="&#x43d;" horiz-adv-x="1300" 
d="M274 1094v-488h750v488h82v-1094h-82v532h-750v-532h-79v1094h79z" />
    <glyph glyph-name="uni043E" unicode="&#x43e;" horiz-adv-x="1341" 
d="M670 -18q-237 0 -398 161t-161 400q0 241 159 405q164 164 402 164q239 0 397 -162q162 -162 162 -399q0 -238 -160 -406q-159 -163 -401 -163zM668 1036q-203 0 -338 -141q-133 -142 -133 -346t135 -348t340 -144q204 0 340 142q135 141 135 346q0 208 -137 348
q-137 143 -342 143z" />
    <glyph glyph-name="uni043F" unicode="&#x43f;" horiz-adv-x="1277" 
d="M1083 1094v-1094h-79v1020h-730v-1020h-79v1094h888z" />
    <glyph glyph-name="uni0440" unicode="&#x440;" horiz-adv-x="1376" 
d="M195 1094h79v-297q58 142 181.5 228.5t279.5 86.5q231 0 381 -166t150 -397q0 -229 -150 -399q-147 -166 -381 -166q-157 0 -280.5 86t-180.5 225v-834h-79v1633zM731 61q203 0 326 138q125 137 125 346v2q0 207 -127 346q-126 141 -324 141q-202 0 -332 -145
q-129 -144 -129 -338v-6q0 -197 131 -340q132 -144 330 -144z" />
    <glyph glyph-name="uni0441" unicode="&#x441;" horiz-adv-x="1239" 
d="M659 -18q-234 0 -391 161q-157 165 -157 402q0 239 159 403t389 164q179 0 304 -86.5t174 -230.5l-76 -33q-99 274 -402 274q-200 0 -331 -143t-131 -344t133 -346q137 -146 332 -146q293 0 401 279l76 -33q-52 -143 -177 -232t-303 -89z" />
    <glyph glyph-name="uni0442" unicode="&#x442;" horiz-adv-x="974" 
d="M938 1094v-74h-408v-1020h-86v1020h-405v74h899z" />
    <glyph glyph-name="uni0443" unicode="&#x443;" horiz-adv-x="1183" 
d="M1055 1094h86l-774 -1633h-86l284 602l-514 1031h90l467 -942z" />
    <glyph glyph-name="uni0444" unicode="&#x444;" horiz-adv-x="1769" 
d="M926 -500h-80v613q-131 -131 -287 -131q-202 0 -321 155t-119 416q0 250 117 403q117 156 323 156q156 0 287 -131v623h80v-623q122 131 284 131q207 0 324 -156q119 -155 119 -407q0 -257 -119 -412t-324 -155q-162 0 -284 131v-613zM846 190v713q-125 131 -281 131
q-180 0 -272 -145q-90 -146 -90 -344q0 -206 88 -346q90 -140 274 -140q156 0 281 131zM926 903v-713q119 -131 278 -131q183 0 273 140q90 143 90 352q0 122 -35 229q-37 111 -123.5 182.5t-204.5 71.5q-153 0 -278 -131z" />
    <glyph glyph-name="uni0445" unicode="&#x445;" horiz-adv-x="1091" 
d="M63 1094h101l383 -482l387 482h92l-430 -535l448 -559h-100l-397 502l-408 -502h-94l453 555z" />
    <glyph glyph-name="uni0446" unicode="&#x446;" horiz-adv-x="1316" 
d="M1083 1094v-1020h129v-412h-79v338h-938v1094h79v-1020h730v1020h79z" />
    <glyph glyph-name="uni0447" unicode="&#x447;" horiz-adv-x="1150" 
d="M956 0h-79v465q-55 -33 -185 -78q-112 -37 -219 -37q-170 0 -266 83.5t-96 240.5v420h79v-420q0 -124 76.5 -185t206.5 -61q98 0 211 34.5t193 88.5v543h79v-1094z" />
    <glyph glyph-name="uni0448" unicode="&#x448;" horiz-adv-x="1892" 
d="M274 74h637v1020h80v-1020h627v1020h80v-1094h-1503v1094h79v-1020z" />
    <glyph glyph-name="uni0449" unicode="&#x449;" horiz-adv-x="1931" 
d="M195 1094h79v-1020h637v1020h80v-1020h627v1020h80v-1020h129v-412h-80v338h-1552v1094z" />
    <glyph glyph-name="uni044A" unicode="&#x44a;" horiz-adv-x="1351" 
d="M442 1094v-426h416q192 0 304 -85.5t112 -234.5q0 -156 -106.5 -252t-288.5 -96h-514v1020h-326v74h403zM442 594v-520h422q157 0 242.5 74t85.5 196q0 117 -87 183.5t-249 66.5h-414z" />
    <glyph glyph-name="uni044B" unicode="&#x44b;" horiz-adv-x="1652" 
d="M274 1094v-426h416q192 0 304 -85.5t112 -234.5q0 -156 -107 -252t-288 -96h-516v1094h79zM1376 1094h82v-1094h-82v1094zM274 594v-520h422q157 0 241.5 74t84.5 196q0 117 -87 183.5t-247 66.5h-414z" />
    <glyph glyph-name="uni044C" unicode="&#x44c;" horiz-adv-x="1181" 
d="M274 1094v-426h416q192 0 304 -85.5t112 -234.5q0 -156 -107 -252t-288 -96h-516v1094h79zM274 594v-520h422q157 0 241.5 74t84.5 196q0 117 -87 183.5t-247 66.5h-414z" />
    <glyph glyph-name="uni044D" unicode="&#x44d;" horiz-adv-x="1239" 
d="M588 1112q227 0 383 -166q157 -165 157 -399q0 -241 -159 -404q-157 -161 -391 -161q-178 0 -302 88t-176 233l76 33q50 -132 154.5 -205.5t251.5 -73.5q191 0 325 140q134 143 137 335h-589v74h585q-21 182 -147 305q-125 125 -309 125q-149 0 -253 -74t-153 -200
l-76 33q51 141 179.5 229t306.5 88z" />
    <glyph glyph-name="uni044E" unicode="&#x44e;" horiz-adv-x="1734" 
d="M1085 1112q235 0 385 -164q152 -166 152 -401q0 -239 -154 -404q-151 -161 -385 -161q-222 0 -374 149q-153 153 -162 381h-271v-512h-81v1094h81v-504h271q15 222 166 373q152 149 372 149zM629 547q0 -203 131 -346q132 -144 325 -144q194 0 324 142q129 144 129 348
q0 206 -131 346q-131 143 -326 143t-323 -143q-129 -144 -129 -346z" />
    <glyph glyph-name="uni044F" unicode="&#x44f;" horiz-adv-x="1198" 
d="M195 0h-101l350 438q-141 26 -229 113t-88 217q0 147 108 236.5t291 89.5h478v-1094h-80v432h-392zM924 504v516h-396q-157 0 -238 -71.5t-81 -182.5q0 -103 82 -182q83 -80 244 -80h389z" />
    <glyph glyph-name="uni0451" unicode="&#x451;" horiz-adv-x="1243" 
d="M391 1450q0 35 23.5 59.5t56.5 24.5t56.5 -24.5t23.5 -59.5q0 -32 -24 -57t-56 -25t-56 25t-24 57zM715 1450q0 35 23.5 59.5t56.5 24.5q32 0 55.5 -24.5t23.5 -59.5q0 -33 -23.5 -57.5t-55.5 -24.5t-56 25t-24 57zM1139 551v-19h-942q3 -193 131 -333q130 -142 329 -142
q123 0 224 61t157 165l70 -45q-63 -118 -185 -187t-270 -69q-234 0 -389 165q-153 169 -153 402v4q0 220 151 391q152 168 375 168q252 0 377 -162t125 -399zM197 606h858q-3 62 -18.5 120.5t-48.5 115.5t-80 99.5t-118 68.5t-157 26q-171 0 -299 -131t-137 -299z" />
    <glyph glyph-name="uni0452" unicode="&#x452;" horiz-adv-x="1234" 
d="M672 1112q202 0 317 -127q117 -126 117 -328v-911q0 -293 -279 -293q-44 0 -71 6v74q10 -2 65 -2q205 0 205 211v899q0 188 -97 291.5t-270 103.5q-161 0 -274 -116q-111 -114 -111 -291v-629h-79v1346h-160v71h160v252h79v-252h418v-71h-418v-494q47 119 154.5 189.5
t243.5 70.5z" />
    <glyph glyph-name="uni0453" unicode="&#x453;" horiz-adv-x="929" 
d="M651 1632h92l-249 -352h-74zM274 1020v-1020h-79v1094h694v-74h-615z" />
    <glyph glyph-name="uni0454" unicode="&#x454;" horiz-adv-x="1239" 
d="M1063 336l76 -33q-52 -143 -177 -232t-303 -89q-234 0 -391 161q-157 165 -157 402q0 239 159 403t389 164q179 0 304 -86.5t174 -230.5l-76 -33q-99 274 -402 274q-182 0 -313 -125q-129 -123 -147 -305h585v-74h-589q6 -196 139 -335q137 -140 328 -140q293 0 401 279z
" />
    <glyph glyph-name="uni0455" unicode="&#x455;" horiz-adv-x="991" 
d="M133 815q0 133 113 215t252 82q263 0 364 -229l-71 -39q-85 192 -297 192q-103 0 -191 -61t-88 -158q0 -96 64 -143.5t221 -79.5q199 -42 286.5 -112.5t87.5 -198.5q0 -136 -112 -217q-113 -84 -258 -84q-284 0 -404 256l72 38q56 -113 135 -166t197 -53q112 0 201 62
q90 66 90 162q0 97 -69.5 147.5t-246.5 89.5q-184 40 -265 105.5t-81 191.5z" />
    <glyph glyph-name="uni0456" unicode="&#x456;" horiz-adv-x="471" 
d="M178 1415q-23 25 -23 57.5t23 57.5q25 25 57.5 25t55.5 -25q25 -23 25 -57.5t-25 -59.5q-23 -23 -55.5 -23t-57.5 25zM195 1094h81v-1094h-81v1094z" />
    <glyph glyph-name="uni0457" unicode="&#x457;" horiz-adv-x="473" 
d="M-2 1450q0 35 23.5 59.5t56.5 24.5t56.5 -24.5t23.5 -59.5q0 -32 -24 -57t-56 -25t-56 25t-24 57zM322 1450q0 35 22.5 59.5t54.5 24.5q33 0 56.5 -24.5t23.5 -59.5q0 -32 -24 -57t-56 -25t-54.5 24.5t-22.5 57.5zM195 1094h84v-1094h-84v1094z" />
    <glyph glyph-name="uni0458" unicode="&#x458;" horiz-adv-x="485" 
d="M195 1413q-23 25 -23 59.5t23 57.5q25 25 57 25t55 -25q38 -33 22.5 -78.5t-56.5 -57.5t-78 19zM211 1094h80v-1348q0 -293 -279 -293q-44 0 -71 6v74q10 -2 65 -2q205 0 205 211v1352z" />
    <glyph glyph-name="uni0459" unicode="&#x459;" horiz-adv-x="1986" 
d="M999 1020h-587l-62 -563q-12 -116 -43 -215q-31 -97 -100 -172q-68 -74 -164 -74h-4v76q47 0 86.5 28.5t64.5 73.5q26 48 43 102q26 82 37 193l70 625h739v-426h416q192 0 304 -85.5t112 -234.5q0 -156 -107 -252t-288 -96h-517v1020zM1079 594v-520h422q157 0 241.5 74
t84.5 196q0 117 -87 183.5t-247 66.5h-414z" />
    <glyph glyph-name="uni045A" unicode="&#x45a;" horiz-adv-x="2011" 
d="M274 637h750v457h82v-457h418q196 0 303.5 -78t107.5 -225q0 -155 -105 -244.5t-290 -89.5h-516v563h-750v-563h-79v1094h79v-457zM1106 563v-489h422q158 0 240.5 68t82.5 188q0 233 -333 233h-412z" />
    <glyph glyph-name="uni045B" unicode="&#x45b;" horiz-adv-x="1284" 
d="M1106 0h-82v641q0 188 -96.5 291.5t-268.5 103.5q-161 0 -274 -116q-111 -114 -111 -291v-629h-79v1346h-160v71h160v252h79v-252h418v-71h-418v-494q44 118 152.5 189t245.5 71q202 0 317 -127q117 -126 117 -328v-657z" />
    <glyph glyph-name="uni045C" unicode="&#x45c;" horiz-adv-x="1040" 
d="M721 1632h92l-250 -352h-74zM373 586l655 -586h-119l-626 563h-9v-563h-79v1092h79v-490h9l598 490h118z" />
    <glyph glyph-name="uni045E" unicode="&#x45e;" horiz-adv-x="1183" 
d="M598 1280q-122 0 -208 79.5t-124 217.5l70 16q67 -239 262 -239q193 0 260 239l70 -16q-38 -138 -123.5 -217.5t-206.5 -79.5zM1055 1094h86l-774 -1633h-86l284 602l-514 1031h90l467 -942z" />
    <glyph glyph-name="uni045F" unicode="&#x45f;" horiz-adv-x="1277" 
d="M195 0v1094h79v-1020h730v1020h79v-1094h-403v-338h-82v338h-403z" />
    <glyph glyph-name="uni0490" unicode="&#x490;" horiz-adv-x="1171" 
d="M1112 1911v-383h-790v-1528h-84v1604h790v307h84z" />
    <glyph glyph-name="uni0491" unicode="&#x491;" horiz-adv-x="929" 
d="M889 1407v-387h-615v-1020h-79v1094h616v313h78z" />
    <glyph glyph-name="uni0496" unicode="&#x496;" horiz-adv-x="1998" 
d="M1849 0l-809 815h-12v-815h-84v815h-10l-811 -815h-119l838 842l-805 762h119l778 -748h10v748h84v-748h10l781 748h118l-804 -762l759 -764h90v-408h-84v330h-49z" />
    <glyph glyph-name="uni0497" unicode="&#x497;" horiz-adv-x="1579" 
d="M1405 0l-582 563h-8v-563h-80v563h-8l-580 -563h-114l604 586l-588 508h115l563 -492h8v492h80v-492h8l563 492h115l-588 -508l531 -512h90v-412h-82v338h-47z" />
    <glyph glyph-name="uni0498" unicode="&#x498;" horiz-adv-x="1269" 
d="M1151 420q0 -174 -133 -301q-132 -126 -356 -135v-314h-84v316q-170 13 -297 115t-179 259l72 37q68 -170 184 -252q119 -84 267 -84q190 0 315 101q127 103 127 258q0 167 -116 262.5t-324 95.5h-203v78h201q181 0 293 100q114 102 114 248q0 143 -112 240
q-109 100 -295 100q-138 0 -238 -69q-129 -84 -192 -263l-74 33q49 162 182 271q133 106 324 106q227 0 358 -125t131 -293q0 -121 -82 -231q-82 -108 -229 -148q166 -36 256 -145.5t90 -259.5z" />
    <glyph glyph-name="uni0499" unicode="&#x499;" horiz-adv-x="976" 
d="M868 291q0 -122 -100 -209q-100 -89 -254 -98v-322h-80v322q-257 21 -360 254l71 36q108 -217 336 -217q126 0 215 68q90 69 90 170q0 99 -83.5 162t-217.5 63h-163v72h157q128 0 207.5 61t79.5 160q0 94 -80 158.5t-207 64.5q-221 0 -329 -215l-72 37q56 123 162 188.5
t239 65.5q156 0 262 -86q107 -85 107 -209q0 -89 -59.5 -158t-159.5 -100q239 -64 239 -268z" />
    <glyph glyph-name="uni049A" unicode="&#x49a;" horiz-adv-x="1380" 
d="M1204 0l-872 813h-8v-813h-86v1604h86v-746h8l827 746h123l-856 -764l819 -762h133v-408h-86v330h-88z" />
    <glyph glyph-name="uni049B" unicode="&#x49b;" horiz-adv-x="1095" 
d="M909 0l-626 563h-9v-563h-79v1092h79v-490h9l600 490h116l-626 -506l573 -512h129v-412h-80v338h-86z" />
    <glyph glyph-name="uni04A2" unicode="&#x4a2;" horiz-adv-x="1722" 
d="M1364 0v778h-1040v-778h-86v1604h86v-748h1040v748h86v-1526h172v-408h-86v330h-172z" />
    <glyph glyph-name="uni04A3" unicode="&#x4a3;" horiz-adv-x="1339" 
d="M1024 0v532h-750v-532h-79v1094h79v-488h750v488h82v-1020h129v-412h-82v338h-129z" />
    <glyph glyph-name="uni04AA" unicode="&#x4aa;" horiz-adv-x="1720" 
d="M1550 522l74 -35q-62 -171 -219 -321q-82 -78 -202.5 -127t-256.5 -55v-314h-86v316q-323 15 -532 247q-207 236 -207 568q0 346 223 581q225 240 565 240q142 0 267.5 -45.5t212.5 -122.5q167 -145 231 -334l-74 -35q-60 168 -205 301q-77 74 -190.5 116t-245.5 42
q-302 0 -502 -215q-196 -214 -196 -522q0 -311 196 -528q202 -220 504 -220q138 0 257 47t196 127q132 138 190 289z" />
    <glyph glyph-name="uni04AB" unicode="&#x4ab;" horiz-adv-x="1239" 
d="M1063 336l76 -33q-46 -134 -161.5 -221.5t-277.5 -97.5l-2 -2v-320h-80v320l-2 2q-215 15 -362 174q-143 158 -143 387q0 239 159 403t389 164q179 0 304 -86.5t174 -230.5l-76 -33q-99 274 -402 274q-200 0 -331 -143t-131 -344t133 -346q137 -146 332 -146
q293 0 401 279z" />
    <glyph glyph-name="uni04AC" unicode="&#x4ac;" horiz-adv-x="1255" 
d="M590 0v1528h-541v76h1155v-76h-530v-1450h88v-408h-84v330h-88z" />
    <glyph glyph-name="uni04AD" unicode="&#x4ad;" horiz-adv-x="980" 
d="M444 0v1020h-405v74h899v-74h-408v-946h129v-412h-79v338h-136z" />
    <glyph glyph-name="uni04B2" unicode="&#x4b2;" horiz-adv-x="1472" 
d="M1286 0l-581 760l-580 -760h-100l630 817l-606 787h101l555 -727l557 727h100l-604 -785l569 -741h133v-408h-86v330h-88z" />
    <glyph glyph-name="uni04B3" unicode="&#x4b3;" horiz-adv-x="1155" 
d="M944 0l-397 502l-408 -502h-94l453 555l-435 539h101l383 -482l387 482h92l-430 -535l389 -485h131v-412h-82v338h-90z" />
    <glyph glyph-name="uni04B6" unicode="&#x4b6;" horiz-adv-x="1538" 
d="M1354 0h-174v762q-109 -64 -258 -115t-281 -51q-253 0 -383.5 116t-130.5 326v566h84v-568q0 -174 111 -269t315 -95q120 0 266 51q153 53 277 123v758h86v-1526h172v-408h-84v330z" />
    <glyph glyph-name="uni04B7" unicode="&#x4b7;" horiz-adv-x="1189" 
d="M1006 0h-129v465q-77 -44 -201 -82q-109 -33 -203 -33q-169 0 -265.5 83t-96.5 241v420h79v-420q0 -121 76 -183.5t207 -62.5q99 0 211 34t193 89v543h79v-1020h129v-412h-79v338z" />
    <glyph glyph-name="uni04C0" unicode="&#x4c0;" horiz-adv-x="561" 
d="M324 1604v-1604h-86v1604h86z" />
    <glyph glyph-name="uni04C1" unicode="&#x4c1;" horiz-adv-x="1972" 
d="M985 1772q-121 0 -207 79t-123 217l64 15q71 -238 266 -238t266 238l66 -15q-39 -139 -124.5 -217.5t-207.5 -78.5zM156 1604l778 -748h10v748h84v-748h10l781 748h118l-804 -762l837 -842h-121l-809 815h-12v-815h-84v815h-10l-811 -815h-119l838 842l-805 762h119z" />
    <glyph glyph-name="uni04C2" unicode="&#x4c2;" horiz-adv-x="1552" 
d="M774 1280q-121 0 -206 79t-122 218l64 14q70 -237 264 -237q198 0 268 237l66 -14q-39 -139 -125.5 -218t-208.5 -79zM913 586l607 -586h-115l-582 563h-8v-563h-80v563h-8l-580 -563h-114l604 586l-588 508h115l563 -492h8v492h80v-492h8l563 492h115z" />
    <glyph glyph-name="uni04CF" unicode="&#x4cf;" horiz-adv-x="471" 
d="M195 1094h81v-1094h-81v1094z" />
    <glyph glyph-name="uni04D0" unicode="&#x4d0;" horiz-adv-x="1538" 
d="M438 2068l64 15q71 -238 266 -238t266 238l66 -15q-39 -138 -125 -217t-207 -79t-207 79t-123 217zM815 1604l709 -1604h-92l-199 457h-930l-201 -457h-88l709 1604h92zM338 535h860l-432 976z" />
    <glyph glyph-name="uni04D1" unicode="&#x4d1;" horiz-adv-x="1157" 
d="M555 1280q-122 0 -207 79t-123 218l64 14q70 -237 266 -237q195 0 266 237l66 -14q-39 -138 -125 -217.5t-207 -79.5zM979 0h-82v242q-61 -123 -172.5 -191.5t-243.5 -68.5q-158 0 -262 79q-104 82 -104 232q0 156 127 233q130 80 301 80h354v76q0 167 -87 260.5
t-247 93.5q-251 0 -364 -223l-72 41q57 121 168 189.5t266 68.5q193 0 305.5 -112t112.5 -312v-688zM899 449v83h-352q-135 0 -244 -59q-104 -58 -104 -178q0 -113 78 -175.5t206 -62.5q176 0 295 107q121 109 121 285z" />
    <glyph glyph-name="uni04D2" unicode="&#x4d2;" horiz-adv-x="1538" 
d="M543 1862q-23 25 -23 59t23 57q23 25 55 25t55 -25q25 -23 25 -57t-25 -59q-23 -23 -55 -23t-55 23zM940 2003q50 2 70.5 -40t0 -84t-70.5 -40q-47 -4 -66.5 39t0 86t66.5 39zM815 1604l709 -1604h-92l-199 457h-930l-201 -457h-88l709 1604h92zM338 535h860l-432 976z
" />
    <glyph glyph-name="uni04D3" unicode="&#x4d3;" horiz-adv-x="1157" 
d="M309 1450q0 35 23.5 59.5t56.5 24.5t56.5 -24.5t23.5 -59.5q0 -32 -24 -57t-56 -25t-56 25t-24 57zM633 1450q0 35 23.5 59.5t56.5 24.5t56.5 -24.5t23.5 -59.5q0 -32 -24 -57t-56 -25t-56 25t-24 57zM979 0h-82v242q-61 -123 -172.5 -191.5t-243.5 -68.5q-158 0 -262 79
q-104 82 -104 232q0 156 127 233q130 80 301 80h354v76q0 167 -87 260.5t-247 93.5q-251 0 -364 -223l-72 41q57 121 168 189.5t266 68.5q193 0 305.5 -112t112.5 -312v-688zM899 449v83h-352q-135 0 -244 -59q-104 -58 -104 -178q0 -113 78 -175.5t206 -62.5q176 0 295 107
q121 109 121 285z" />
    <glyph glyph-name="uni04D4" unicode="&#x4d4;" horiz-adv-x="2086" 
d="M1952 1528h-840v-672h768v-78h-768v-700h848v-78h-932v457h-672l-276 -457h-92l970 1604h994v-76zM1001 1528l-600 -993h627v993h-27z" />
    <glyph glyph-name="uni04D5" unicode="&#x4d5;" horiz-adv-x="1955" 
d="M885 805q-59 231 -322 231q-251 0 -364 -223l-72 41q57 121 168 189.5t266 68.5q272 0 373 -223q70 101 181.5 162t234.5 61q104 0 189 -31.5t141.5 -84.5t95.5 -125.5t56 -152.5t17 -167v-19h-944q3 -191 133 -333q133 -142 330 -142q123 0 224 61t157 165l70 -45
q-64 -118 -184.5 -187t-268.5 -69q-141 0 -259.5 66t-191.5 183q-61 -117 -176.5 -183t-253.5 -66h-4q-158 0 -262 79q-104 82 -104 232q0 156 127 233q130 80 301 80h286q9 106 56 199zM905 606h858q-9 176 -110 301q-102 129 -307 129q-174 0 -302 -131
q-130 -130 -139 -299zM874 307q-44 102 -47 225h-280q-135 0 -244 -59q-104 -58 -104 -178q0 -113 78 -175.5t206 -62.5q121 0 236 68q111 65 155 182z" />
    <glyph glyph-name="uni04D6" unicode="&#x4d6;" horiz-adv-x="1337" 
d="M723 1772q-121 0 -207 79t-123 217l64 15q71 -238 266 -238t266 238l66 -15q-39 -139 -124.5 -217.5t-207.5 -78.5zM324 856h806v-78h-806v-700h886v-78h-972v1604h962v-76h-876v-672z" />
    <glyph glyph-name="uni04D7" unicode="&#x4d7;" horiz-adv-x="1243" 
d="M623 1280q-121 0 -206 79t-122 218l61 14q71 -237 267 -237q197 0 268 237l63 -14q-39 -140 -124 -218.5t-207 -78.5zM1139 551v-19h-942q3 -193 131 -333q130 -142 329 -142q123 0 224 61t157 165l70 -45q-63 -118 -185 -187t-270 -69q-234 0 -389 165
q-153 169 -153 402v4q0 220 151 391q152 168 375 168q252 0 377 -162t125 -399zM197 606h858q-3 62 -18.5 120.5t-48.5 115.5t-80 99.5t-118 68.5t-157 26q-171 0 -299 -131t-137 -299z" />
    <glyph glyph-name="uni04DC" unicode="&#x4dc;" horiz-adv-x="1972" 
d="M735 1919q0 35 23.5 59.5t56.5 24.5t56.5 -24.5t23.5 -59.5q0 -32 -24 -57t-56 -25t-56 25t-24 57zM1079 1919q0 35 23 59.5t55 24.5q33 0 56.5 -24.5t23.5 -59.5q0 -32 -24 -57t-56 -25t-55 24.5t-23 57.5zM156 1604l778 -748h10v748h84v-748h10l781 748h118l-804 -762
l837 -842h-121l-809 815h-12v-815h-84v815h-10l-811 -815h-119l838 842l-805 762h119z" />
    <glyph glyph-name="uni04DD" unicode="&#x4dd;" horiz-adv-x="1552" 
d="M535 1450q0 35 23.5 59.5t55.5 24.5q33 0 56.5 -24.5t23.5 -59.5q0 -32 -24 -57t-56 -25t-55.5 24.5t-23.5 57.5zM858 1450q0 35 23.5 59.5t56.5 24.5t56.5 -24.5t23.5 -59.5q0 -32 -24 -57t-56 -25t-56 25t-24 57zM913 586l607 -586h-115l-582 563h-8v-563h-80v563h-8
l-580 -563h-114l604 586l-588 508h115l563 -492h8v492h80v-492h8l563 492h115z" />
    <glyph glyph-name="uni04DE" unicode="&#x4de;" horiz-adv-x="1269" 
d="M385 1919q0 35 23.5 59.5t56.5 24.5t56.5 -24.5t23.5 -59.5q0 -32 -24 -57t-56 -25t-56 25t-24 57zM727 1919q0 35 23.5 59.5t56.5 24.5t56.5 -24.5t23.5 -59.5q0 -32 -24 -57t-56 -25t-56 25t-24 57zM627 1622q227 0 358 -125t131 -293q0 -121 -82 -231
q-82 -108 -229 -148q166 -36 256 -145.5t90 -259.5q0 -181 -143 -309q-145 -127 -381 -127q-195 0 -330 106q-141 110 -195 270l72 37q68 -170 184 -252q119 -84 267 -84q190 0 315 101q127 103 127 258q0 167 -116 262.5t-324 95.5h-203v78h201q181 0 293 100
q114 102 114 248q0 143 -112 240q-109 100 -295 100q-138 0 -238 -69q-129 -84 -192 -263l-74 33q49 162 182 271q133 106 324 106z" />
    <glyph glyph-name="uni04DF" unicode="&#x4df;" horiz-adv-x="976" 
d="M223 1450q0 35 23.5 59.5t56.5 24.5t56.5 -24.5t23.5 -59.5q0 -32 -24 -57t-56 -25t-56 25t-24 57zM547 1450q0 35 23.5 59.5t56.5 24.5t56.5 -24.5t23.5 -59.5q0 -32 -24 -57t-56 -25t-56 25t-24 57zM479 -18q-140 0 -244.5 67t-160.5 189l71 36q108 -217 336 -217
q126 0 215 68q90 69 90 170q0 99 -83.5 162t-217.5 63h-163v72h157q128 0 207.5 61t79.5 160q0 94 -80 158.5t-207 64.5q-221 0 -329 -215l-72 37q56 123 162 188.5t239 65.5q156 0 262 -86q107 -85 107 -209q0 -89 -59.5 -158t-159.5 -100q239 -64 239 -268
q0 -126 -110 -217q-112 -92 -279 -92z" />
    <glyph glyph-name="uni04E2" unicode="&#x4e2;" horiz-adv-x="1703" 
d="M1194 1802h-682v76h682v-76zM1464 0h-84v1495l-1036 -1495h-106v1604h86v-1493l1038 1493h102v-1604z" />
    <glyph glyph-name="uni04E3" unicode="&#x4e3;" horiz-adv-x="1314" 
d="M997 1313h-684v76h684v-76zM1038 1094h80v-1094h-80v977l-764 -977h-79v1094h79v-975z" />
    <glyph glyph-name="uni04E4" unicode="&#x4e4;" horiz-adv-x="1703" 
d="M600 1919q0 35 23.5 59.5t58.5 24.5q32 0 55 -24.5t23 -59.5q0 -33 -23 -57.5t-55 -24.5t-57 25t-25 57zM944 1919q0 35 23.5 59.5t56.5 24.5t56.5 -24.5t23.5 -59.5q0 -32 -24 -57t-56 -25t-56 25t-24 57zM1464 0h-84v1495l-1036 -1495h-106v1604h86v-1493l1038 1493
h102v-1604z" />
    <glyph glyph-name="uni04E5" unicode="&#x4e5;" horiz-adv-x="1314" 
d="M416 1450q0 35 23.5 59.5t56.5 24.5q32 0 55.5 -24.5t23.5 -59.5q0 -33 -23.5 -57.5t-55.5 -24.5t-56 25t-24 57zM739 1450q0 35 23 59.5t55 24.5q33 0 56.5 -24.5t23.5 -59.5q0 -32 -24 -57t-56 -25t-55 24.5t-23 57.5zM1038 1094h80v-1094h-80v977l-764 -977h-79v1094
h79v-975z" />
    <glyph glyph-name="uni04E6" unicode="&#x4e6;" horiz-adv-x="1818" 
d="M682 1862q-23 25 -23 59t23 57q23 25 55.5 25t55.5 -25q25 -23 25 -57t-25 -59q-23 -23 -55.5 -23t-55.5 23zM1024 1862q-23 25 -23 59t23 57q23 25 55.5 25t55.5 -25q25 -23 25 -57t-25 -59q-23 -23 -55.5 -23t-55.5 23zM907 -16q-340 0 -563 235t-223 582
q0 346 223 581q225 240 565 240t566 -238q223 -235 223 -579q0 -347 -225 -584t-566 -237zM907 1544q-301 0 -501 -215q-199 -214 -199 -522q0 -314 199 -531t505 -217q302 0 502 215q199 217 199 525q0 307 -201 526t-504 219z" />
    <glyph glyph-name="uni04E7" unicode="&#x4e7;" horiz-adv-x="1341" 
d="M432 1450q0 35 23.5 59.5t56.5 24.5t56.5 -24.5t23.5 -59.5q0 -32 -24 -57t-56 -25t-56 25t-24 57zM756 1450q0 35 23.5 59.5t56.5 24.5q32 0 55.5 -24.5t23.5 -59.5q0 -33 -23.5 -57.5t-55.5 -24.5t-56 25t-24 57zM670 -18q-237 0 -398 161t-161 400q0 241 159 405
q164 164 402 164q239 0 397 -162q162 -162 162 -399q0 -238 -160 -406q-159 -163 -401 -163zM668 1036q-203 0 -338 -141q-133 -142 -133 -346t135 -348t340 -144q204 0 340 142q135 141 135 346q0 208 -137 348q-137 143 -342 143z" />
    <glyph glyph-name="uni04E8" unicode="&#x4e8;" horiz-adv-x="1818" 
d="M907 -16q-340 0 -563 235t-223 582q0 346 223 581q225 240 565 240t566 -238q223 -235 223 -579q0 -347 -225 -584t-566 -237zM209 856h1401q-21 289 -219 490q-192 198 -484 198t-487 -198q-196 -202 -211 -490zM1612 778h-1405q9 -300 207 -510q200 -209 497 -209
q299 0 496 209q196 208 205 510z" />
    <glyph glyph-name="uni04E9" unicode="&#x4e9;" horiz-adv-x="1341" 
d="M670 -18q-237 0 -398 161t-161 400q0 241 159 405q164 164 402 164q239 0 397 -162q162 -162 162 -399q0 -238 -160 -406q-159 -163 -401 -163zM197 586h950q-15 190 -152 321q-132 129 -327 129q-196 0 -328 -129q-131 -128 -143 -321zM1147 512h-950q12 -191 145 -324
q134 -131 330 -131q197 0 329 129q137 134 146 326z" />
    <glyph glyph-name="uni04EA" unicode="&#x4ea;" horiz-adv-x="1818" 
d="M682 1862q-23 25 -23 59t23 57q23 25 55.5 25t55.5 -25q25 -23 25 -57t-25 -59q-23 -23 -55.5 -23t-55.5 23zM1024 1862q-23 25 -23 59t23 57q23 25 55.5 25t55.5 -25q25 -23 25 -57t-25 -59q-23 -23 -55.5 -23t-55.5 23zM907 -16q-340 0 -563 235t-223 582
q0 346 223 581q225 240 565 240t566 -238q223 -235 223 -579q0 -347 -225 -584t-566 -237zM1610 856q-21 289 -219 490q-192 198 -484 198t-487 -198q-196 -202 -211 -490h1401zM207 778q9 -300 207 -510q200 -209 497 -209q299 0 496 209q196 208 205 510h-1405z" />
    <glyph glyph-name="uni04EB" unicode="&#x4eb;" horiz-adv-x="1341" 
d="M432 1450q0 35 23.5 59.5t56.5 24.5t56.5 -24.5t23.5 -59.5q0 -32 -24 -57t-56 -25t-56 25t-24 57zM756 1450q0 35 23.5 59.5t56.5 24.5q32 0 55.5 -24.5t23.5 -59.5q0 -33 -23.5 -57.5t-55.5 -24.5t-56 25t-24 57zM670 -18q-237 0 -398 161t-161 400q0 241 159 405
q164 164 402 164q239 0 397 -162q162 -162 162 -399q0 -238 -160 -406q-159 -163 -401 -163zM1147 586q-15 190 -152 321q-132 129 -327 129q-196 0 -328 -129q-131 -128 -143 -321h950zM197 512q12 -191 145 -324q134 -131 330 -131q197 0 329 129q137 134 146 326h-950z
" />
    <glyph glyph-name="uni04EC" unicode="&#x4ec;" horiz-adv-x="1716" 
d="M580 1919q0 35 23.5 59.5t55.5 24.5t55 -24.5t23 -59.5q0 -33 -23 -57.5t-55 -24.5t-55.5 24.5t-23.5 57.5zM922 1919q0 35 23.5 59.5t55.5 24.5q33 0 56.5 -24.5t23.5 -59.5q0 -32 -24 -57t-56 -25t-55.5 24.5t-23.5 57.5zM813 1622q340 0 561 -238t221 -579
q0 -349 -223 -584q-220 -237 -563 -237q-145 0 -273 46t-217 124q-166 153 -227 333l74 35q53 -147 188 -291q76 -79 196.5 -125.5t260.5 -46.5q299 0 494 207q195 210 204 512h-827v78h825q-18 287 -215 487q-195 201 -481 201q-128 0 -239.5 -41t-190.5 -114
q-147 -135 -211 -304l-74 35q75 196 236 336q89 77 213.5 121.5t267.5 44.5z" />
    <glyph glyph-name="uni04ED" unicode="&#x4ed;" horiz-adv-x="1239" 
d="M360 1450q0 35 23.5 59.5t56.5 24.5t56.5 -24.5t23.5 -59.5q0 -32 -24 -57t-56 -25t-56 25t-24 57zM684 1450q0 35 23 59.5t55 24.5q33 0 56.5 -24.5t23.5 -59.5q0 -32 -24 -57t-56 -25t-55 24.5t-23 57.5zM588 1112q227 0 383 -166q157 -165 157 -399q0 -241 -159 -404
q-157 -161 -391 -161q-178 0 -302 88t-176 233l76 33q50 -132 154.5 -205.5t251.5 -73.5q191 0 325 140q134 143 137 335h-589v74h585q-21 182 -147 305q-125 125 -309 125q-149 0 -253 -74t-153 -200l-76 33q51 141 179.5 229t306.5 88z" />
    <glyph glyph-name="uni04EE" unicode="&#x4ee;" horiz-adv-x="1404" 
d="M1063 1802h-684v76h684v-76zM49 74l43 65q104 -78 203 -78q163 0 264 113q87 94 152 225l-686 1205h96l633 -1121l546 1121h93l-605 -1229q-97 -200 -210.5 -295.5t-278.5 -95.5q-140 0 -250 90z" />
    <glyph glyph-name="uni04EF" unicode="&#x4ef;" horiz-adv-x="1183" 
d="M938 1313h-682v76h682v-76zM1055 1094h86l-774 -1633h-86l284 602l-514 1031h90l467 -942z" />
    <glyph glyph-name="uni04F0" unicode="&#x4f0;" horiz-adv-x="1404" 
d="M487 1862q-23 25 -23 59t23 57q25 25 57.5 25t55.5 -25q23 -23 23 -57t-23 -59q-23 -23 -55.5 -23t-57.5 23zM829 1862q-23 25 -23 59t23 57q25 25 57.5 25t55.5 -25q38 -33 22 -78t-57 -57t-78 19zM49 74l43 65q104 -78 203 -78q163 0 264 113q87 94 152 225l-686 1205
h96l633 -1121l546 1121h93l-605 -1229q-97 -200 -210.5 -295.5t-278.5 -95.5q-140 0 -250 90z" />
    <glyph glyph-name="uni04F1" unicode="&#x4f1;" horiz-adv-x="1183" 
d="M358 1450q0 35 23.5 59.5t56.5 24.5t56.5 -24.5t23.5 -59.5q0 -32 -24 -57t-56 -25t-56 25t-24 57zM682 1450q0 35 23.5 59.5t56.5 24.5t56.5 -24.5t23.5 -59.5q0 -32 -24 -57t-56 -25t-56 25t-24 57zM1055 1094h86l-774 -1633h-86l284 602l-514 1031h90l467 -942z" />
    <glyph glyph-name="uni04F2" unicode="&#x4f2;" horiz-adv-x="1404" 
d="M743 2103h93l-248 -354h-76zM1036 2103h92l-247 -354h-74zM49 74l43 65q104 -78 203 -78q163 0 264 113q87 94 152 225l-686 1205h96l633 -1121l546 1121h93l-605 -1229q-97 -200 -210.5 -295.5t-278.5 -95.5q-140 0 -250 90z" />
    <glyph glyph-name="uni04F3" unicode="&#x4f3;" horiz-adv-x="1183" 
d="M649 1632h92l-247 -352h-74zM942 1632h92l-248 -352h-73zM1055 1094h86l-774 -1633h-86l284 602l-514 1031h90l467 -942z" />
    <glyph glyph-name="uni04F4" unicode="&#x4f4;" horiz-adv-x="1503" 
d="M444 1919q0 35 23.5 59.5t56.5 24.5t56.5 -24.5t23.5 -59.5q0 -32 -24 -57t-56 -25t-56 25t-24 57zM788 1919q0 35 23 59.5t55 24.5q33 0 56.5 -24.5t23.5 -59.5q0 -32 -24 -57t-56 -25t-55 24.5t-23 57.5zM1266 0h-86v762q-109 -64 -258 -115t-281 -51
q-253 0 -383.5 116t-130.5 326v566h84v-568q0 -174 111 -269t315 -95q120 0 266 51q153 53 277 123v758h86v-1604z" />
    <glyph glyph-name="uni04F5" unicode="&#x4f5;" horiz-adv-x="1150" 
d="M293 1450q0 35 23.5 59.5t56.5 24.5t56.5 -24.5t23.5 -59.5q0 -32 -24 -57t-56 -25t-56 25t-24 57zM616 1450q0 35 23 59.5t55 24.5q33 0 56.5 -24.5t23.5 -59.5q0 -32 -24 -57t-56 -25t-55 24.5t-23 57.5zM956 0h-79v465q-55 -33 -185 -78q-112 -37 -219 -37
q-170 0 -266 83.5t-96 240.5v420h79v-420q0 -124 76.5 -185t206.5 -61q98 0 211 34.5t193 88.5v543h79v-1094z" />
    <glyph glyph-name="uni04F8" unicode="&#x4f8;" horiz-adv-x="2021" 
d="M760 1919q0 35 23.5 59.5t56.5 24.5t56.5 -24.5t23.5 -59.5q0 -32 -24 -57t-56 -25t-56 25t-24 57zM1104 1919q0 35 23 59.5t55 24.5q33 0 56.5 -24.5t23.5 -59.5q0 -32 -24 -57t-56 -25t-55 24.5t-23 57.5zM324 1604v-674h448q252 0 410 -113q161 -112 161 -332
q0 -231 -157 -358t-404 -127h-544v1604h86zM1784 1604v-1604h-86v1604h86zM324 852v-774h454q198 0 338 96q141 99 141 307q0 102 -42.5 178t-118.5 115q-139 78 -332 78h-440z" />
    <glyph glyph-name="uni04F9" unicode="&#x4f9;" horiz-adv-x="1708" 
d="M586 1450q0 35 23.5 59.5t56.5 24.5q32 0 55.5 -24.5t23.5 -59.5q0 -33 -23.5 -57.5t-55.5 -24.5t-56 25t-24 57zM909 1450q0 35 23 59.5t55 24.5q33 0 56.5 -24.5t23.5 -59.5q0 -32 -24 -57t-56 -25t-55 24.5t-23 57.5zM274 1094v-426h416q192 0 304 -85.5t112 -234.5
q0 -156 -107 -252t-288 -96h-516v1094h79zM1376 1094h82v-1094h-82v1094zM274 594v-520h422q157 0 241.5 74t84.5 196q0 117 -87 183.5t-247 66.5h-414z" />
    <glyph glyph-name="uni0E3F" unicode="&#xe3f;" horiz-adv-x="1486" 
d="M985 825q187 -30 281 -149q96 -119 96 -250q0 -194 -150 -310t-428 -116h-2v-209h-82v209h-460v1604h460v221h82v-221q259 -3 383 -121q123 -117 123 -281q0 -114 -74 -223q-69 -106 -229 -154zM702 856v672h-378v-672h378zM1202 1198q0 146 -110 236t-312 94v-672
q204 1 313 94.5t109 247.5zM702 78v700h-378v-700h378zM780 778v-700h8q233 0 360.5 92.5t127.5 255.5q0 158 -127 255t-352 97h-17z" />
    <glyph glyph-name="uni1E20" unicode="&#x1e20;" horiz-adv-x="1753" 
d="M1235 1802h-682v76h682v-76zM819 748h823v-78q0 -295 -204 -490q-205 -196 -533 -196q-345 0 -565 233q-219 236 -219 584q0 345 221 583t569 238q271 0 453 -147q183 -148 250 -338l-74 -35q-59 160 -207 293q-75 69 -186 109t-238 40q-309 0 -506 -215
q-196 -214 -196 -522q0 -320 194 -535q198 -213 508 -213q269 0 459 166q191 170 191 439v6h-740v78z" />
    <glyph glyph-name="uni1E21" unicode="&#x1e21;" horiz-adv-x="1374" 
d="M991 1313h-684v76h684v-76zM1100 1094h80v-1090q0 -279 -150 -414q-149 -137 -387 -137q-193 0 -321 83t-209 253l71 41q34 -70 67 -115.5t85 -87.5q110 -96 305 -96q215 0 337 120.5t122 348.5v307q-58 -139 -182 -225t-277 -86q-240 0 -383 162q-145 165 -145 397
q0 231 147 395q146 162 381 162q154 0 277.5 -83.5t181.5 -221.5v287zM1104 553v4q0 195 -129 336t-332 141q-198 0 -324 -135q-122 -134 -122 -342v-2q0 -207 122 -344q125 -137 324 -137q201 0 330 141q131 140 131 338z" />
    <glyph glyph-name="uni1E30" unicode="&#x1e30;" horiz-adv-x="1327" 
d="M874 2103h93l-250 -354h-74zM324 1604v-746h10l825 746h123l-856 -764l903 -840h-123l-872 813h-10v-813h-86v1604h86z" />
    <glyph glyph-name="uni1E31" unicode="&#x1e31;" horiz-adv-x="1038" 
d="M909 0l-628 578h-7v-578h-79v1667h79v-1049h5l598 476h120l-630 -496l659 -598h-117zM596 1280h-76l232 352h92z" />
    <glyph glyph-name="uni1E60" unicode="&#x1e60;" horiz-adv-x="1251" 
d="M631 2005q47 4 66.5 -39t0 -86t-66.5 -39q-33 0 -56.5 23.5t-23.5 58.5t22.5 58.5t57.5 23.5zM1124 428q0 -198 -139 -322q-137 -122 -350 -122q-368 0 -518 399l71 37q62 -148 152 -246q112 -115 297 -115q162 0 285 97q118 93 118 270q0 133 -101.5 218t-324.5 142
q-245 65 -352 150q-106 84 -106 258q0 186 139 307q142 121 336 121q178 0 301 -90t186 -244l-69 -39q-123 295 -422 295q-155 0 -271 -98t-116 -250q0 -135 90 -207q88 -70 301 -123q251 -65 372 -168.5t121 -269.5z" />
    <glyph glyph-name="uni1E61" unicode="&#x1e61;" horiz-adv-x="991" 
d="M412 1450q0 35 23.5 59.5t56.5 24.5q32 0 54.5 -24.5t22.5 -59.5q0 -33 -22.5 -57.5t-54.5 -24.5t-56 25t-24 57zM133 815q0 133 113 215t252 82q263 0 364 -229l-71 -39q-85 192 -297 192q-103 0 -191 -61t-88 -158q0 -96 64 -143.5t221 -79.5q199 -42 286.5 -112.5
t87.5 -198.5q0 -136 -112 -217q-113 -84 -258 -84q-284 0 -404 256l72 38q56 -113 135 -166t197 -53q112 0 201 62q90 66 90 162q0 97 -69.5 147.5t-246.5 89.5q-184 40 -265 105.5t-81 191.5z" />
    <glyph glyph-name="Wgrave" unicode="&#x1e80;" horiz-adv-x="2258" 
d="M1174 1749h-74l-250 354h92zM68 1604h90l458 -1495l474 1495h79l478 -1495l458 1495h86l-499 -1604h-95l-469 1466l-469 -1466h-94z" />
    <glyph glyph-name="wgrave" unicode="&#x1e81;" horiz-adv-x="1757" 
d="M920 1280h-74l-248 352h90zM59 1094h88l340 -998l353 998h80l350 -998l348 998h80l-387 -1094h-82l-348 983l-353 -983h-82z" />
    <glyph glyph-name="Wacute" unicode="&#x1e82;" horiz-adv-x="2258" 
d="M1323 2103h90l-248 -354h-73zM68 1604h90l458 -1495l474 1495h79l478 -1495l458 1495h86l-499 -1604h-95l-469 1466l-469 -1466h-94z" />
    <glyph glyph-name="wacute" unicode="&#x1e83;" horiz-adv-x="1757" 
d="M1069 1632h92l-248 -352h-73zM59 1094h88l340 -998l353 998h80l350 -998l348 998h80l-387 -1094h-82l-348 983l-353 -983h-82z" />
    <glyph glyph-name="Wdieresis" unicode="&#x1e84;" horiz-adv-x="2258" 
d="M903 1862q-23 25 -23 59t23 57q23 25 55.5 25t55.5 -25q25 -23 25 -57t-25 -59q-23 -23 -55.5 -23t-55.5 23zM1245 1862q-23 25 -23 59t23 57q23 25 55.5 25t55.5 -25q25 -23 25 -57t-25 -59q-23 -23 -55.5 -23t-55.5 23zM68 1604h90l458 -1495l474 1495h79l478 -1495
l458 1495h86l-499 -1604h-95l-469 1466l-469 -1466h-94z" />
    <glyph glyph-name="wdieresis" unicode="&#x1e85;" horiz-adv-x="1757" 
d="M639 1450q0 35 23.5 59.5t56.5 24.5t56.5 -24.5t23.5 -59.5q0 -32 -24 -57t-56 -25t-56 25t-24 57zM963 1450q0 35 22.5 59.5t54.5 24.5q33 0 56.5 -24.5t23.5 -59.5q0 -32 -24 -57t-56 -25t-54.5 24.5t-22.5 57.5zM59 1094h88l340 -998l353 998h80l350 -998l348 998h80
l-387 -1094h-82l-348 983l-353 -983h-82z" />
    <glyph glyph-name="uni1E90" unicode="&#x1e90;" horiz-adv-x="1257" 
d="M938 1749h-78l-237 291l-240 -291h-78l273 354h90zM96 1604h1082v-78l-1018 -1448h1022v-78h-1119v78l1020 1450h-987v76z" />
    <glyph glyph-name="uni1E91" unicode="&#x1e91;" horiz-adv-x="1021" 
d="M823 1280h-78l-237 291l-240 -291h-80l275 352h90zM934 1094v-72l-758 -948h760v-74h-858v74l760 946h-742v74h838z" />
    <glyph glyph-name="uni1EBC" unicode="&#x1ebc;" horiz-adv-x="1337" 
d="M455 1749h-66q-1 118 43.5 186t124.5 68q86 0 188 -105q72 -75 125 -75q108 0 111 178h66q2 -117 -43.5 -185.5t-124.5 -68.5q-50 0 -87.5 21t-95.5 79q-80 80 -133 80q-105 0 -108 -178zM1200 1528h-876v-672h806v-78h-806v-700h886v-78h-972v1604h962v-76z" />
    <glyph glyph-name="uni1EBD" unicode="&#x1ebd;" horiz-adv-x="1243" 
d="M362 1280h-65q-1 118 43.5 186t124.5 68q87 0 188 -104q73 -76 125 -76q108 0 111 178h65q2 -117 -43.5 -185.5t-124.5 -68.5q-50 0 -87 21t-95 79q-80 80 -133 80q-106 0 -109 -178zM1139 551v-19h-942q3 -193 131 -333q130 -142 329 -142q123 0 224 61t157 165l70 -45
q-63 -118 -185 -187t-270 -69q-234 0 -389 165q-153 169 -153 402v4q0 220 151 391q152 168 375 168q252 0 377 -162t125 -399zM197 606h858q-3 62 -18.5 120.5t-48.5 115.5t-80 99.5t-118 68.5t-157 26q-171 0 -299 -131t-137 -299z" />
    <glyph glyph-name="Ygrave" unicode="&#x1ef2;" horiz-adv-x="1468" 
d="M784 1749h-73l-250 354h92zM735 766l570 838h100l-629 -916v-688h-84v688l-629 916h103z" />
    <glyph glyph-name="ygrave" unicode="&#x1ef3;" horiz-adv-x="1185" 
d="M653 1280h-73l-250 352h92zM1057 1094h86l-776 -1633h-86l284 602l-514 1031h92l467 -942z" />
    <glyph glyph-name="endash" unicode="&#x2013;" horiz-adv-x="1267" 
d="M1104 686v-74h-940v74h940z" />
    <glyph glyph-name="emdash" unicode="&#x2014;" horiz-adv-x="2113" 
d="M1950 686v-74h-1786v74h1786z" />
    <glyph glyph-name="quoteleft" unicode="&#x2018;" horiz-adv-x="481" 
d="M248 1384q38 0 61 -23t23 -61t-25 -63t-61 -25q-48 0 -76.5 35t-28.5 96v9q0 156 152 268l47 -43q-118 -93 -127 -199q15 6 35 6z" />
    <glyph glyph-name="quoteright" unicode="&#x2019;" horiz-adv-x="485" 
d="M250 1444q-38 0 -61 23t-23 61t25 63t61 25q48 0 76 -35t28 -96v-8q0 -157 -151 -269l-47 43q118 93 127 199q-15 -6 -35 -6z" />
    <glyph glyph-name="quotesinglbase" unicode="&#x201a;" horiz-adv-x="536" 
d="M256 -10q-38 0 -61 23t-23 61t25 63t61 25q48 0 76 -35t28 -96v-8q0 -157 -151 -269l-47 43q118 93 127 199q-15 -6 -35 -6z" />
    <glyph glyph-name="quotedblleft" unicode="&#x201c;" horiz-adv-x="786" 
d="M248 1384q38 0 61 -23t23 -61t-25 -63t-61 -25q-48 0 -76.5 35t-28.5 96v9q0 156 152 268l47 -43q-118 -93 -127 -199q15 6 35 6zM555 1384q38 0 61 -23t23 -61t-25 -63t-61 -25q-48 0 -76 35t-28 96v9q0 156 151 268l47 -43q-118 -93 -127 -199q15 6 35 6z" />
    <glyph glyph-name="quotedblright" unicode="&#x201d;" horiz-adv-x="790" 
d="M250 1444q-38 0 -61 23t-23 61t25 63t61 25q48 0 76 -35t28 -96v-8q0 -157 -151 -269l-47 43q118 93 127 199q-15 -6 -35 -6zM555 1444q-38 0 -61 23t-23 61t25 63t61 25q48 0 76.5 -35t28.5 -96v-8q0 -157 -152 -269l-47 43q118 93 127 199q-15 -6 -35 -6z" />
    <glyph glyph-name="quotedblbase" unicode="&#x201e;" horiz-adv-x="841" 
d="M256 -10q-38 0 -61 23t-23 61t25 63t61 25q48 0 76 -35t28 -96v-8q0 -157 -151 -269l-47 43q118 93 127 199q-15 -6 -35 -6zM559 -10q-38 0 -61 23t-23 61t25 63t61 25q48 0 76.5 -35t28.5 -96v-8q0 -157 -152 -269l-47 43q118 93 127 199q-15 -6 -35 -6z" />
    <glyph glyph-name="dagger" unicode="&#x2020;" horiz-adv-x="1259" 
d="M590 1028v490h80v-490h413v-74h-413v-954h-80v954h-414v74h414z" />
    <glyph glyph-name="daggerdbl" unicode="&#x2021;" horiz-adv-x="1259" 
d="M590 76v948h-453v74h453v420h80v-420h452v-74h-452v-948h452v-76h-452v-422h-80v422h-453v76h453z" />
    <glyph glyph-name="bullet" unicode="&#x2022;" horiz-adv-x="1052" 
d="M778 494q-105 -105 -252 -105t-252 105q-104 107 -104 254q0 146 104 253q106 109 252 109t252 -109q105 -108 105 -253q0 -146 -105 -254z" />
    <glyph glyph-name="ellipsis" unicode="&#x2026;" horiz-adv-x="1452" 
d="M315 10q-26 -26 -63.5 -26t-63.5 26q-25 26 -25 63t25 62q26 26 63.5 26t63.5 -26q26 -25 26 -62t-26 -63zM725 -16q-35 0 -61.5 26.5t-26.5 63.5q0 36 26 62t62 26q37 0 63.5 -25.5t26.5 -62.5t-26.5 -63.5t-63.5 -26.5zM1264 10q-26 -26 -63.5 -26t-63.5 26
q-25 26 -25 63t25 62q26 26 63.5 26t63.5 -26q26 -25 26 -62t-26 -63z" />
    <glyph glyph-name="perthousand" unicode="&#x2030;" horiz-adv-x="2600" 
d="M696 1004q-105 -105 -254 -105q-148 0 -256 105q-104 107 -104 256t104 253q107 107 256 107q150 0 254 -107q107 -104 107 -253t-107 -256zM315 0l1045 1604h88l-1040 -1604h-93zM647 1464q-86 86 -205 86q-118 0 -204 -86q-86 -83 -86 -204t86 -207q87 -84 204 -84
q118 0 205 84q86 86 86 207t-86 204zM1581 94q-104 -104 -254 -104q-149 0 -256 104q-104 107 -104 256q0 150 104 254q107 107 256 107q150 0 254 -107q107 -104 107 -254q0 -149 -107 -256zM2415 94q-104 -104 -254 -104q-149 0 -256 104q-107 107 -107 256q0 150 107 254
q107 107 256 107q150 0 254 -107q104 -104 104 -254q0 -149 -104 -256zM1036 350q0 -120 84 -207q87 -84 207 -84q121 0 205 84q86 86 86 207q0 122 -86 205q-84 84 -205 84t-207 -86q-84 -84 -84 -203zM2365 555q-84 84 -204 84t-207 -84q-84 -84 -84 -205q0 -120 84 -207
q87 -84 207 -84t204 84q84 87 84 207q0 121 -84 205z" />
    <glyph glyph-name="guilsinglleft" unicode="&#x2039;" horiz-adv-x="694" 
d="M479 258l-370 358l370 365l53 -49l-321 -316l321 -309z" />
    <glyph glyph-name="guilsinglright" unicode="&#x203a;" horiz-adv-x="694" 
d="M162 307l321 309l-321 316l51 49l373 -365l-373 -358z" />
    <glyph glyph-name="uni203D" unicode="&#x203d;" horiz-adv-x="1005" 
d="M481 1231v-508h2q36 61 99 121q59 59 114 104q55 46 92 120.5t37 160.5q0 131 -92 223t-235 92q-119 0 -214.5 -75.5t-138.5 -204.5l-73 36q51 148 167.5 235t258.5 87q177 0 295 -115q118 -112 118 -278q0 -120 -51.5 -207.5t-169.5 -185.5q-118 -100 -164 -170
q-42 -65 -45 -172l-2 -117h-82v854h84zM381 4q-23 25 -23 59.5t23 57.5q25 25 57.5 25t55.5 -25q38 -33 22 -78.5t-57 -57.5t-78 19z" />
    <glyph glyph-name="uni2042" unicode="&#x2042;" horiz-adv-x="1875" 
d="M903 1604h70l-12 -379l348 127l20 -64l-358 -110l229 -287l-53 -39l-209 293l-209 -293l-53 39l229 287l-358 110l20 64l348 -127zM434 731h70l-12 -379l348 127l20 -61l-358 -113l229 -287l-53 -38l-209 292l-211 -292l-51 38l227 287l-358 113l20 61l348 -127z
M1374 731h70l-12 -379l348 127l20 -61l-358 -113l229 -287l-53 -38l-211 292l-209 -292l-51 38l227 287l-358 113l20 61l348 -127z" />
    <glyph glyph-name="fraction" unicode="&#x2044;" horiz-adv-x="1191" 
d="M31 0l1042 1604h88l-1038 -1604h-92z" />
    <glyph glyph-name="uni2051" unicode="&#x2051;" horiz-adv-x="1050" 
d="M492 1604h67l-10 -379l346 127l23 -64l-361 -110l229 -287l-53 -39l-209 293l-209 -293l-53 39l230 287l-359 110l21 64l348 -127zM492 731h67l-10 -379l346 127l23 -61l-361 -113l229 -287l-53 -38l-209 292l-209 -292l-53 38l230 287l-359 113l21 61l348 -127z" />
    <glyph glyph-name="lira" unicode="&#x20a4;" horiz-adv-x="1304" 
d="M1165 256l58 -41q-48 -109 -142.5 -173.5t-210.5 -64.5q-79 0 -202 54q-118 53 -193 53q-103 0 -282 -84l-43 76q173 112 249 215t76 239v17h-334v76h320q-18 66 -64 141l-6 16l-35 58l-37 67h-178v76h138q-48 111 -48 197q0 165 140 305q139 139 340 139
q178 0 296.5 -88t163.5 -231l-71 -35q-38 128 -138 202t-249 74q-160 0 -279 -110t-119 -256q0 -88 56 -197h559v-76h-518q6 -13 32 -57.5t31 -54.5q56 -90 72 -170h383v-76h-371v-12q0 -244 -229 -406v-2q85 33 170 33q73 0 190 -54q118 -53 184 -53q192 0 291 203z" />
    <glyph glyph-name="uni20A6" unicode="&#x20a6;" horiz-adv-x="1890" 
d="M1485 0l-434 596h-658v-596h-82v596h-184v76h184v289h-184v73h184v570h101l413 -570h672v570h82v-570h184v-73h-184v-289h184v-76h-184v-596h-94zM393 1034h336l-336 461v-461zM393 672h602l-211 289h-391v-289zM1092 672h405v289h-616zM1497 117v479h-350z" />
    <glyph glyph-name="uni20A9" unicode="&#x20a9;" horiz-adv-x="2324" 
d="M1632 0l-241 754h-459l-242 -754h-90l-233 752h-246v71h221l-242 781h88l240 -783h449l245 783h80l248 -783h448l240 783h86l-244 -781h224v-71h-246l-234 -752h-92zM954 821h414l-207 649zM649 106l205 648h-403zM1679 104l199 650h-405z" />
    <glyph glyph-name="uni20AA" unicode="&#x20aa;" horiz-adv-x="2019" 
d="M1298 410h-86v446q0 201 -108 308.5t-320 107.5h-460v-1272h-86v1348h544q516 0 516 -492v-446zM1696 1348h86v-856q0 -492 -516 -492h-545v932h86v-856h459q214 0 322 107.5t108 308.5v856z" />
    <glyph glyph-name="dong" unicode="&#x20ab;" horiz-adv-x="1413" 
d="M1167 0h-80v299q-57 -139 -182 -227t-278 -88q-238 0 -385 166q-146 169 -146 399q0 233 150 397q150 166 381 166q157 0 279.5 -84.5t180.5 -226.5v545h-428v71h428v250h80v-250h121v-71h-121v-1346zM631 61q198 0 330 144q131 143 131 340v6q0 194 -129 338
q-130 145 -332 145q-203 0 -328 -137t-125 -344v-2q0 -210 125 -350q128 -140 328 -140zM1167 -279v-73h-1022v73h1022z" />
    <glyph glyph-name="Euro" unicode="&#x20ac;" horiz-adv-x="1863" 
d="M1698 522l74 -35q-64 -179 -230 -329q-87 -80 -215 -127t-274 -47q-285 0 -490 166q-204 168 -268 434h-193v78h177q-11 94 -11 139q0 49 11 143h-177v78h193q67 266 272 432q204 168 490 168q142 0 266.5 -45t212.5 -123q167 -145 231 -334l-73 -35q-60 168 -205 301
q-77 74 -190.5 116t-245.5 42q-245 0 -426 -147q-179 -142 -244 -375h834l-27 -78h-823q-13 -73 -13 -137q0 -69 13 -145h739l-27 -78h-694q65 -231 244 -379q184 -146 426 -146q138 0 256.5 47t195.5 127q134 139 191 289z" />
    <glyph glyph-name="uni20AE" unicode="&#x20ae;" horiz-adv-x="1325" 
d="M715 604l399 178v-77l-399 -179v-526h-84v487l-402 -180v80l402 180v256l-402 -180v80l402 178v625h-541v78h1155v-78h-530v-586l399 178v-78l-399 -180v-256z" />
    <glyph glyph-name="uni20B1" unicode="&#x20b1;" horiz-adv-x="1548" 
d="M1473 1171v-77h-164q-18 -199 -173.5 -318t-430.5 -119h-328v-657h-86v1094h-180v77h180v433h432q289 0 430 -123q144 -123 156 -310h164zM377 1528v-359h848q-14 164 -141.5 261.5t-368.5 97.5h-338zM377 1094v-357h330q239 0 370.5 97.5t145.5 259.5h-846z" />
    <glyph glyph-name="uni20B4" unicode="&#x20b4;" horiz-adv-x="1400" 
d="M147 944v76h893q66 72 66 197q0 157 -111 239q-109 86 -270 86q-158 0 -279 -92q-118 -90 -149 -244l-78 27q34 168 180 278q145 109 326 109q191 0 328 -107q139 -106 139 -290q0 -123 -59 -203h114v-76h-1100zM1247 682v-78h-897q-74 -92 -74 -201q0 -171 117 -256
q118 -86 293 -86q181 0 309 113q131 113 158 289l80 -21q-27 -197 -186 -329q-157 -127 -361 -127q-209 0 -352 104q-141 105 -141 303q0 107 67 211h-113v78h1100z" />
    <glyph glyph-name="uni20B8" unicode="&#x20b8;" horiz-adv-x="1386" 
d="M1272 1526h-1155v78h1155v-78zM1272 1243v-78h-531v-1165h-86v1165h-538v78h1155z" />
    <glyph glyph-name="uni20B9" unicode="&#x20b9;" horiz-adv-x="1292" 
d="M1196 1532l-500 2v-2q128 -37 202.5 -134t82.5 -216h215v-76h-217q-12 -172 -134 -281t-339 -135l442 -690h-102l-432 680h-267v78h236q249 0 373 100q127 103 139 248h-748v76h748q-9 143 -129 245q-119 101 -371 101h-248v76h1049v-72z" />
    <glyph glyph-name="uni20BA" unicode="&#x20ba;" horiz-adv-x="1284" 
d="M1128 682l78 -10q-44 -272 -264 -471q-219 -201 -528 -201h-60v621l-4 -5l-225 -100v80l229 102v256l-4 -4l-225 -100v80l229 102v572h86v-535l488 221v-80l-488 -219v-256l488 221v-79l-488 -220v-579q272 3 459 184q189 186 229 420z" />
    <glyph glyph-name="uni20BD" unicode="&#x20bd;" horiz-adv-x="1353" 
d="M403 0h-84v299h-198v76h198v284h-198v76h198v869h365q126 0 227 -26t167 -70t111 -105t64 -127t19 -139q0 -208 -154 -344q-152 -134 -450 -134h-265v-284h412v-76h-412v-299zM403 1528v-791h265q266 0 391 113q129 114 129 285q0 164 -123 278q-121 115 -387 115h-275z
" />
    <glyph glyph-name="uni2113" unicode="&#x2113;" horiz-adv-x="907" 
d="M418 676l-31 -27v-305q0 -281 250 -281q48 0 102 13v-70q-55 -14 -108 -14q-324 0 -324 344v237l-186 -174l-49 52l235 219v606q0 147 55 229q76 117 218 117q126 0 188.5 -78.5t62.5 -214.5q0 -172 -94 -315q-96 -146 -319 -338zM387 1284v-539q206 191 285 316
q82 125 82 266q0 225 -176 225q-99 0 -152 -92q-39 -68 -39 -176z" />
    <glyph glyph-name="uni2116" unicode="&#x2116;" horiz-adv-x="2646" 
d="M1421 121v1483h84v-1604h-96l-1085 1491v-1491h-84v1604h100zM2138 592q-165 0 -278 113q-111 114 -111 278q0 169 111 283q114 114 278 114q166 0 277 -114q112 -112 112 -279t-110 -280q-112 -115 -279 -115zM2136 1309q-134 0 -223 -95q-88 -91 -88 -227
q0 -135 90 -231q88 -94 223 -94q134 0 223 92q90 96 90 229q0 135 -90 231q-89 95 -225 95zM1759 307h731v-71h-731v71z" />
    <glyph glyph-name="trademark" unicode="&#x2122;" horiz-adv-x="2074" 
d="M82 1604h647v-72h-283v-852h-81v852h-283v72zM981 1528v-848h-76v924h123l367 -832l354 832h131v-924h-80v856h-4l-369 -856h-69l-373 848h-4z" />
    <glyph glyph-name="estimated" unicode="&#x212e;" horiz-adv-x="1792" 
d="M1702 827h-1268v-581q84 -90 214 -139.5t267 -49.5q212 0 370.5 88.5t246.5 253.5l65 -37q-88 -178 -267 -279t-415 -101q-367 0 -577 235q-211 236 -211 598q0 343 219 576q220 231 569 231q347 0 564 -227q220 -228 223 -568zM432 899h967v459q-85 90 -219 140t-269 50
q-279 0 -477 -186z" />
    <glyph glyph-name="uni2153" unicode="&#x2153;" horiz-adv-x="1746" 
d="M410 672h-76v850l-223 -131l-33 55l262 158h70v-932zM1243 1604h88l-1040 -1604h-90zM1313 -23q-117 0 -203.5 64t-122.5 174l72 31q30 -89 97.5 -142t158.5 -53q103 0 173.5 54t70.5 135q0 91 -65.5 142.5t-180.5 51.5h-111v68h113q99 0 161 52t62 138q0 75 -62.5 127.5
t-160.5 52.5q-76 0 -141 -41q-76 -55 -111 -151l-72 31q33 106 120 170.5t206 64.5q130 0 213 -74q84 -72 84 -178q0 -77 -51.5 -140.5t-126.5 -82.5q89 -19 143.5 -83t54.5 -155q0 -103 -92 -180q-88 -76 -229 -76z" />
    <glyph glyph-name="uni2154" unicode="&#x2154;" horiz-adv-x="2023" 
d="M113 670v71l327 271q124 104 176 175t52 148q0 92 -64 152.5t-162 60.5q-80 0 -139 -41q-76 -52 -113 -155l-71 30q32 106 118.5 173t202.5 67q135 0 219 -84q86 -83 86 -201q0 -90 -51 -170q-58 -85 -182 -186l-291 -240h533v-71h-641zM1520 1604h88l-1041 -1604h-92z
M1589 -23q-117 0 -203 64t-122 174l71 31q30 -89 97.5 -142t158.5 -53q103 0 173.5 54t70.5 135q0 91 -65.5 142.5t-180.5 51.5h-110v68h112q99 0 161.5 52t62.5 138q0 75 -63 127.5t-161 52.5q-76 0 -141 -41q-76 -55 -111 -151l-71 31q33 106 119.5 170.5t205.5 64.5
q130 0 213 -74q84 -72 84 -178q0 -77 -51.5 -140.5t-126.5 -82.5q89 -19 144 -83t55 -155q0 -103 -92 -180q-88 -76 -230 -76z" />
    <glyph glyph-name="oneeighth" unicode="&#x215b;" horiz-adv-x="1779" 
d="M410 1604v-932h-76v850l-223 -131l-33 55l262 158h70zM201 0l1042 1604h88l-1040 -1604h-90zM1323 -18q-150 0 -254 67q-104 70 -104 195q0 92 69 153.5t174 79.5q-95 27 -154 86t-59 131q0 124 99 191q98 67 227 67q126 0 227 -67t101 -191q0 -155 -213 -217
q105 -18 174 -79.5t69 -153.5q0 -124 -106 -193q-103 -69 -250 -69zM1321 883q-111 0 -181.5 -54t-70.5 -133q0 -80 71.5 -133t180.5 -53t181.5 53t72.5 133q0 79 -72.5 133t-181.5 54zM1321 442q-119 0 -201 -57t-82 -143q0 -84 80.5 -138.5t202.5 -54.5q123 0 202 53
t79 140q0 83 -82 141q-83 59 -199 59z" />
    <glyph glyph-name="threeeighths" unicode="&#x215c;" horiz-adv-x="1988" 
d="M424 653q-117 0 -203.5 64t-122.5 174l72 31q30 -89 97.5 -142t158.5 -53q104 0 174 53.5t70 134.5q0 91 -65.5 143t-180.5 52h-111v68h113q99 0 161 52t62 138q0 75 -62.5 127.5t-160.5 52.5q-76 0 -141 -41q-76 -55 -111 -151l-72 30q33 106 120 171t206 65
q130 0 213 -74q84 -72 84 -178q0 -77 -51.5 -140.5t-126.5 -82.5q89 -19 143.5 -83t54.5 -155q0 -103 -92 -180q-88 -76 -229 -76zM1460 1604h88l-1040 -1604h-90zM1540 -18q-150 0 -254 67q-104 70 -104 195q0 92 69 153.5t174 79.5q-95 27 -154 86t-59 131q0 124 99 191
q98 67 227 67q126 0 227 -67t101 -191q0 -155 -213 -217q105 -18 174 -79.5t69 -153.5q0 -124 -106 -193q-103 -69 -250 -69zM1538 883q-111 0 -181.5 -54t-70.5 -133q0 -80 71.5 -133t180.5 -53t181.5 53t72.5 133q0 79 -72.5 133t-181.5 54zM1538 442q-119 0 -201 -57
t-82 -143q0 -84 80.5 -138.5t202.5 -54.5q123 0 202 53t79 140q0 83 -82 141q-83 59 -199 59z" />
    <glyph glyph-name="fiveeighths" unicode="&#x215d;" horiz-adv-x="1974" 
d="M696 1534h-440l-57 -377q89 103 229 103q136 0 220.5 -81t84.5 -212q0 -138 -94 -226q-91 -88 -231 -88q-111 0 -197.5 62.5t-122.5 171.5l70 33q32 -91 98.5 -142t153.5 -51q106 0 176.5 67t70.5 171t-66 163.5t-179 59.5q-128 0 -213 -105l-76 31l72 490h501v-70z
M1446 1604h88l-1040 -1604h-93zM1526 -18q-152 0 -256 67q-105 71 -105 195q0 92 70.5 153.5t175.5 79.5q-95 27 -154 86t-59 131q0 124 98 191t228 67q128 0 225 -69q100 -66 100 -189q0 -156 -211 -217q105 -18 174.5 -79.5t69.5 -153.5q0 -124 -106 -193
q-103 -69 -250 -69zM1522 883q-109 0 -179.5 -54t-70.5 -133q0 -80 71.5 -133t180.5 -53t181.5 53t72.5 133q0 79 -72.5 133t-183.5 54zM1522 442q-118 0 -199.5 -57t-81.5 -143q0 -84 80.5 -138.5t202.5 -54.5t201 53.5t79 139.5q0 83 -82 141q-83 59 -200 59z" />
    <glyph glyph-name="seveneighths" unicode="&#x215e;" horiz-adv-x="1710" 
d="M715 1524l-410 -852h-84l418 862h-551v70h627v-80zM139 0l1043 1604h88l-1041 -1604h-90zM1264 -18q-152 0 -256 67q-105 71 -105 195q0 92 70.5 153.5t175.5 79.5q-95 27 -154 86t-59 131q0 124 98 191t228 67q128 0 225 -69q100 -66 100 -189q0 -156 -211 -217
q105 -18 174.5 -79.5t69.5 -153.5q0 -123 -107 -193q-103 -69 -249 -69zM1260 883q-109 0 -179.5 -54t-70.5 -133q0 -80 71.5 -133t180.5 -53t181.5 53t72.5 133q0 79 -72.5 133t-183.5 54zM1260 442q-118 0 -199.5 -57t-81.5 -143q0 -84 80.5 -138.5t202.5 -54.5t201 53.5
t79 139.5q0 83 -82 141q-83 59 -200 59z" />
    <glyph glyph-name="arrowleft" unicode="&#x2190;" horiz-adv-x="1359" 
d="M166 707l467 -484l-55 -53l-541 561v27l541 561l55 -53l-467 -484h1120v-75h-1120z" />
    <glyph glyph-name="arrowup" unicode="&#x2191;" horiz-adv-x="1359" 
d="M641 1243l-481 -467l-54 53l560 541h26l561 -541l-53 -53l-483 467v-1120h-76v1120z" />
    <glyph glyph-name="arrowright" unicode="&#x2192;" horiz-adv-x="1359" 
d="M1194 782l-467 484l53 53l543 -561v-27l-543 -561l-53 53l467 484h-1122v75h1122z" />
    <glyph glyph-name="arrowdown" unicode="&#x2193;" horiz-adv-x="1359" 
d="M719 250l481 467l53 -53l-561 -541h-26l-560 541l54 53l481 -465v1120h76z" />
    <glyph glyph-name="uni2196" unicode="&#x2196;" horiz-adv-x="1359" 
d="M350 1069l-12 -672h-76l14 781l19 18l778 12v-73l-670 -13l791 -792l-51 -54z" />
    <glyph glyph-name="uni2197" unicode="&#x2197;" horiz-adv-x="1359" 
d="M956 1122l-671 13l2 73l778 -12l18 -18l15 -781h-76l-12 672l-793 -793l-53 54z" />
    <glyph glyph-name="uni2198" unicode="&#x2198;" horiz-adv-x="1359" 
d="M1004 418l12 669h76l-15 -778l-18 -18l-778 -15l-2 76l671 10l-792 793l55 53z" />
    <glyph glyph-name="uni2199" unicode="&#x2199;" horiz-adv-x="1359" 
d="M410 362l669 -10v-76l-778 15l-18 18l-15 778h76l12 -669l793 790l51 -53z" />
    <glyph glyph-name="uni21A9" unicode="&#x21a9;" horiz-adv-x="2170" 
d="M2066 965q0 -263 -172 -426q-174 -160 -460 -160h-1235l467 -483l-56 -54l-540 561v27l540 559l56 -51l-467 -483h1233q246 0 399 135q154 136 154 375q0 244 -149 376t-411 132h-397v75h402q296 0 466 -159q170 -156 170 -424z" />
    <glyph glyph-name="uni21B0" unicode="&#x21b0;" horiz-adv-x="1546" 
d="M1407 0h-82v596q0 235 -118.5 333.5t-381.5 98.5h-624l467 -483l-56 -53l-540 561v26l540 559l56 -53l-467 -481h633q295 0 434 -123t139 -387v-594z" />
    <glyph glyph-name="uni21B1" unicode="&#x21b1;" horiz-adv-x="1546" 
d="M219 0h-80v594q0 263 139.5 386.5t434.5 123.5h633l-465 481l53 53l541 -559v-26l-541 -561l-53 53l465 483h-623q-265 0 -384.5 -98.5t-119.5 -333.5v-596z" />
    <glyph glyph-name="uni21B2" unicode="&#x21b2;" horiz-adv-x="1544" 
d="M1325 1604h82v-594q0 -263 -138.5 -385.5t-434.5 -122.5h-633l467 -484l-56 -53l-540 561v27l540 559l56 -51l-467 -483h624q263 0 381.5 98.5t118.5 333.5v594z" />
    <glyph glyph-name="uni21B3" unicode="&#x21b3;" horiz-adv-x="1544" 
d="M137 1604h82v-594q0 -235 119 -333.5t383 -98.5h625l-467 483l53 51l541 -559v-27l-541 -561l-53 53l467 484h-635q-296 0 -435 122.5t-139 385.5v594z" />
    <glyph glyph-name="uni21B4" unicode="&#x21b4;" horiz-adv-x="1792" 
d="M76 1524v80h594q263 0 386.5 -139.5t123.5 -434.5v-633l483 467l51 -53l-559 -543h-27l-561 543l54 53l483 -467v625q0 264 -98.5 383t-333.5 119h-596z" />
    <glyph glyph-name="partialdiff" unicode="&#x2202;" horiz-adv-x="1323" 
d="M1186 754q0 -343 -152 -557q-151 -213 -422 -213q-218 0 -358 149q-139 151 -139 375q0 217 149 360q152 146 375 146q260 0 461 -189q-3 331 -158 527q-149 192 -416 192q-139 0 -288 -57l-33 74q158 61 319 61q322 0 492 -238t170 -630zM1102 723q-136 136 -266 182
q-91 31 -195 31q-57 0 -116.5 -15t-118.5 -48.5t-104.5 -81.5t-74 -121.5t-28.5 -161.5q0 -198 123 -324q122 -125 292 -125q126 0 224.5 60.5t154.5 163.5q109 202 109 440z" />
    <glyph glyph-name="uni2206" unicode="&#x2206;" horiz-adv-x="1656" 
d="M874 1604l709 -1604h-1509l708 1604h92zM825 1511l-630 -1435h1263z" />
    <glyph glyph-name="product" unicode="&#x220f;" horiz-adv-x="1382" 
d="M342 0v1528h-266v76h1231v-76h-267v-1528h-84v1528h-530v-1528h-84z" />
    <glyph glyph-name="summation" unicode="&#x2211;" horiz-adv-x="1214" 
d="M762 823l-649 701v80h983v-76h-883l653 -705l-682 -745h916v-78h-1014v84z" />
    <glyph glyph-name="minus" unicode="&#x2212;" horiz-adv-x="1331" 
d="M170 731v76h993v-76h-993z" />
    <glyph glyph-name="radical" unicode="&#x221a;" horiz-adv-x="1472" 
d="M700 0l-426 1186h-231v74h291l411 -1156l611 1858h82l-647 -1962h-91z" />
    <glyph glyph-name="infinity" unicode="&#x221e;" horiz-adv-x="2060" 
d="M1532 258q-52 0 -105 18q-55 20 -91 41t-87 66l-75 70l-76 84l-66 73l-69 -78l-78 -83l-76 -70q-50 -44 -92 -66q-100 -55 -201 -55q-159 0 -274 115q-111 114 -111 291q0 174 115 292q114 117 280 117q50 0 103 -18q56 -19 94 -41.5t86 -65.5q41 -34 78 -71l76 -82
l69 -74l68 74l76 84l75 71q51 45 88 66q94 57 201 57q164 0 275 -117q112 -115 112 -292q0 -176 -115 -291t-280 -115zM981 666q-1 2 -41 45l-45 49q-9 15 -43 49q-39 39 -51 49q-74 68 -107 84q-95 57 -174 57q-138 0 -225 -100q-88 -98 -88 -235q0 -140 88 -234t225 -94
q112 0 215 82q80 67 84 71l88 95q52 60 74 82zM1855 664q0 131 -90 235q-87 100 -227 100q-110 0 -209 -86q-39 -31 -84 -71q-17 -15 -92 -97l-72 -79l72 -82l88 -95l84 -71q103 -82 213 -82q134 0 225 94q92 95 92 234z" />
    <glyph glyph-name="integral" unicode="&#x222b;" horiz-adv-x="735" 
d="M330 -102v1267q0 202 99 316t290 127v-72q-165 -24 -237 -113t-72 -256v-1267q0 -202 -99.5 -316t-290.5 -127v74q164 23 237 111.5t73 255.5z" />
    <glyph glyph-name="uni2236" unicode="&#x2236;" horiz-adv-x="532" 
d="M328 1137q-25 -26 -62 -26t-63 26t-26 63t26 62q26 26 63 26t62 -26q26 -25 26 -62t-26 -63zM328 188q-25 -25 -62 -25t-63 25q-26 26 -26 63.5t26 63.5t63 26t62 -26q26 -26 26 -63.5t-26 -63.5z" />
    <glyph glyph-name="approxequal" unicode="&#x2248;" horiz-adv-x="1261" 
d="M395 1139q110 0 264 -109l74 -49q86 -47 139 -47q87 0 175 88l49 -49q-86 -117 -226 -117q-91 0 -231 94l-86 56q-29 20 -77 38.5t-83 18.5q-92 0 -174 -88l-49 49q83 115 225 115zM395 684q107 0 264 -109l74 -51q91 -47 139 -47q87 0 175 88l49 -49q-88 -117 -226 -117
q-83 0 -231 97q-53 37 -86 55q-28 20 -76 37.5t-84 17.5q-92 0 -174 -88l-49 51q83 115 225 115z" />
    <glyph glyph-name="notequal" unicode="&#x2260;" horiz-adv-x="1280" 
d="M385 258l-61 33l112 198h-268v78h311l230 406h-541v78h582l155 272l64 -29l-142 -243h283v-78h-319l-232 -406h551v-78h-596z" />
    <glyph glyph-name="lessequal" unicode="&#x2264;" horiz-adv-x="1349" 
d="M1157 258l-1007 467v80l1007 469v-84l-924 -424l924 -422v-86zM150 0v74h1009v-74h-1009z" />
    <glyph glyph-name="greaterequal" unicode="&#x2265;" horiz-adv-x="1349" 
d="M1200 725l-1010 -467v84l926 424l-926 422v86l1010 -469v-80zM188 0v74h1012v-74h-1012z" />
    <glyph glyph-name="uni2318" unicode="&#x2318;" horiz-adv-x="1429" 
d="M1298 211q-64 -70 -163 -70q-96 0 -166 70t-70 166v162h-369v-162q0 -95 -69 -164q-69 -72 -166 -72q-96 0 -166 70q-68 71 -68 166q0 96 68 164q69 69 166 69h160v369h-158q-94 0 -166 72q-70 70 -70 163q0 97 70 164q70 70 166 70q93 0 164 -68q69 -72 69 -166v-161
h369v161q0 97 70 164q70 70 166 70t163 -70q70 -67 70 -164q0 -95 -70 -165t-163 -70h-160v-369h160q100 0 163 -69q70 -64 70 -164q0 -93 -70 -166zM297 1053h158v161q0 62 -47 115q-47 47 -111 47q-68 0 -116 -47.5t-48 -114.5q0 -66 49 -113.5t115 -47.5zM1247 1329
q-44 47 -112 47q-67 0 -113.5 -47t-46.5 -115v-161h160q63 0 112 49t49 112q0 69 -49 115zM899 979h-369v-369h369v369zM455 377v162h-160q-65 0 -115 -50q-37 -32 -44 -81t10.5 -92t58 -73t90.5 -28q69 0 113 47q47 47 47 115zM1249 489q-50 50 -114 50h-160v-162
q0 -68 46.5 -115t113.5 -47t114 47t47 115q0 65 -47 112z" />
    <glyph glyph-name="filledbox" unicode="&#x25a0;" horiz-adv-x="1859" 
d="M1659 0h-1452v1456h1452v-1456z" />
    <glyph glyph-name="uni25A1" unicode="&#x25a1;" horiz-adv-x="1957" 
d="M207 1456h1452v-1456h-1452v1456zM289 1380v-1302h1288v1302h-1288z" />
    <glyph glyph-name="triagup" unicode="&#x25b2;" horiz-adv-x="1716" 
d="M1716 0h-1716l862 1495z" />
    <glyph glyph-name="uni25B3" unicode="&#x25b3;" horiz-adv-x="1716" 
d="M14 0l844 1475l844 -1475h-1688zM858 1315l-708 -1237h1415z" />
    <glyph glyph-name="lozenge" unicode="&#x25ca;" horiz-adv-x="1466" 
d="M782 0h-86l-598 805l598 799h86l598 -799zM739 82l535 723l-535 721l-534 -721z" />
    <glyph glyph-name="circle" unicode="&#x25cb;" horiz-adv-x="1665" 
d="M1591 729q0 -315 -221 -536q-222 -222 -536 -222q-312 0 -539 222q-221 221 -221 536q0 313 221 539q223 223 539 223q317 0 536 -223q221 -221 221 -539zM834 1413q-281 0 -482 -201q-196 -199 -196 -483t196 -483q199 -199 482 -199q277 0 475 201q196 199 196 481
q0 284 -196 483q-198 201 -475 201z" />
    <glyph glyph-name="uni25CF" unicode="&#x25cf;" horiz-adv-x="1665" 
d="M74 729q0 318 221 539q219 223 536 223q318 0 537 -223q223 -223 223 -539q0 -317 -223 -536q-222 -222 -537 -222q-314 0 -536 222q-221 221 -221 536z" />
    <glyph glyph-name="uni2605" unicode="&#x2605;" horiz-adv-x="1716" 
d="M356 -39l193 584l-500 362h619l190 588l191 -588h618l-500 -362l191 -588l-500 362z" />
    <glyph glyph-name="uni2611" unicode="&#x2611;" horiz-adv-x="1957" 
d="M1829 1884l65 -39l-235 -407v-1438h-1452v1456h1372zM1534 1380h-1245v-1302h1288v1220l-606 -1042l-496 594l64 51l422 -508z" />
    <glyph glyph-name="uni2612" unicode="&#x2612;" horiz-adv-x="1859" 
d="M207 1456h1452v-1456h-1452v1456zM289 1380v-1302h1288v1302h-1288zM557 1163l375 -381l371 379l53 -51l-373 -383l373 -377l-53 -55l-371 377l-377 -385l-53 55l377 385l-375 383z" />
    <glyph glyph-name="uni2639" unicode="&#x2639;" horiz-adv-x="1665" 
d="M1591 729q0 -315 -221 -536q-222 -222 -536 -222q-312 0 -539 222q-221 221 -221 536q0 313 221 539q223 223 539 223q317 0 536 -223q221 -221 221 -539zM1505 729q0 284 -196 483q-198 201 -475 201q-281 0 -482 -201q-196 -199 -196 -483t196 -483q199 -199 482 -199
q277 0 475 201q196 199 196 481zM723 1016q32 -31 32 -76.5t-32 -77.5q-31 -31 -76.5 -31t-77.5 31q-31 32 -31 77.5t31 76.5q32 32 77.5 32t76.5 -32zM1094 1016q32 -31 32 -76.5t-32 -77.5q-31 -31 -76.5 -31t-77.5 31q-31 32 -31 77.5t31 76.5q32 32 77.5 32t76.5 -32z
M1155 340q-15 119 -106 201q-90 84 -215 84t-218 -84q-89 -83 -104 -201h-72q15 164 131 262q118 100 263 100t260 -100q118 -97 133 -262h-72z" />
    <glyph glyph-name="smileface" unicode="&#x263a;" horiz-adv-x="1665" 
d="M1591 729q0 -315 -221 -536q-222 -222 -536 -222q-312 0 -539 222q-221 221 -221 536q0 313 221 539q223 223 539 223q317 0 536 -223q221 -221 221 -539zM1505 729q0 284 -196 483q-198 201 -475 201q-281 0 -482 -201q-196 -199 -196 -483t196 -483q199 -199 482 -199
q277 0 475 201q196 199 196 481zM723 1016q32 -31 32 -76.5t-32 -77.5q-31 -31 -76.5 -31t-77.5 31q-31 32 -31 77.5t31 76.5q32 32 77.5 32t76.5 -32zM1094 1016q32 -31 32 -76.5t-32 -77.5q-31 -31 -76.5 -31t-77.5 31q-31 32 -31 77.5t31 76.5q32 32 77.5 32t76.5 -32z
M1155 680h72q-15 -164 -133 -264q-117 -99 -260 -99q-146 0 -263 99q-116 98 -131 264h72q15 -120 104 -203q91 -82 218 -82t215 82q91 82 106 203z" />
    <glyph glyph-name="invsmileface" unicode="&#x263b;" horiz-adv-x="1665" 
d="M1591 729q0 -315 -221 -536q-222 -222 -536 -222q-312 0 -539 222q-221 221 -221 536q0 313 221 539q223 223 539 223q317 0 536 -223q221 -221 221 -539zM723 862q32 32 32 77.5t-32 76.5q-31 32 -76.5 32t-77.5 -32q-31 -31 -31 -76.5t31 -77.5q32 -31 77.5 -31
t76.5 31zM1094 862q32 32 32 77.5t-32 76.5q-31 32 -76.5 32t-77.5 -32q-31 -31 -31 -76.5t31 -77.5q32 -31 77.5 -31t76.5 31zM1227 680h-72q-15 -121 -106 -203q-88 -82 -215 -82t-218 82q-89 83 -104 203h-72q15 -166 131 -264q117 -99 263 -99q143 0 260 99
q118 100 133 264z" />
    <glyph glyph-name="heart" unicode="&#x2665;" horiz-adv-x="1785" 
d="M6 983q0 198 133 334q135 135 334 135q120 0 218 -57.5t147 -159.5q49 104 147.5 160.5t222.5 56.5q197 0 328 -137q133 -139 133 -332q0 -121 -53 -249t-141 -236q-76 -97 -201 -209q-207 -184 -436 -318q-230 134 -439 318q-122 113 -198 209q-88 109 -141.5 237
t-53.5 248z" />
    <glyph glyph-name="uni2713" unicode="&#x2713;" horiz-adv-x="1929" 
d="M614 -10l-538 600l57 55l483 -534l1174 1296l55 -55z" />
    <glyph glyph-name="uni2715" unicode="&#x2715;" horiz-adv-x="1546" 
d="M129 1421l641 -641l635 641l51 -53l-635 -641l649 -645l-53 -55l-649 647l-641 -645l-51 53l641 645l-639 641z" />
    <glyph glyph-name="uni2E18" unicode="&#x2e18;" horiz-adv-x="1005" 
d="M623 1090q25 -23 25 -57.5t-25 -59.5q-23 -23 -55.5 -23t-57.5 25q-23 25 -23 57.5t23 57.5q25 25 57.5 25t55.5 -25zM524 -135v508h-2q-33 -56 -100 -123q-78 -74 -115 -105q-54 -45 -90.5 -119t-36.5 -159q0 -131 92 -223q93 -93 236 -93q119 0 214 76t138 205l74 -37
q-51 -148 -167.5 -234.5t-258.5 -86.5q-177 0 -297 114q-117 114 -117 279q0 120 51.5 207.5t169.5 185.5q119 101 162 168q44 67 47 174l2 117h82v-854h-84z" />
    <glyph glyph-name="uniE09D" unicode="&#xe09d;" horiz-adv-x="1318" 
d="M1239 1020h-293v-731q0 -123 44 -172t161 -49q36 0 88 8v-76q-36 -8 -94 -8q-151 0 -215 67.5t-64 221.5v739h-528v-1020h-82v1020h-201v74h201v268q0 137 78 224t207 87q58 0 108 -20v-76q-53 18 -108 18q-93 0 -148 -60.5t-55 -174.5v-266h528v313h80v-313h293v-74z
" />
    <glyph glyph-name="dollar.lowercase" unicode="&#xf653;" horiz-adv-x="991" 
d="M874 283q0 -125 -98 -207q-95 -80 -233 -92v-193h-82v193q-247 15 -361 254l72 38q99 -202 293 -217v463q-175 38 -253.5 103.5t-78.5 189.5t98 203q100 80 230 92v195h82v-195q227 -18 319 -227l-71 -39q-76 175 -252 190v-448q174 -39 254.5 -110t80.5 -193zM215 817
q0 -90 58 -137.5t192 -77.5v432q-99 -9 -174 -67q-76 -58 -76 -150zM539 504v-445q98 9 178 70q78 63 78 152q0 90 -57.5 138.5t-198.5 84.5z" />
    <glyph glyph-name="commaaccent" unicode="&#xf6c3;" horiz-adv-x="0" 
d="M123 -295q-32 0 -52 20t-20 52q0 35 21.5 56.5t52.5 21.5q41 0 65.5 -30.5t24.5 -84.5v-6q0 -143 -131 -234l-43 41q102 73 111 168q-12 -4 -29 -4z" />
    <glyph glyph-name="uniF730" unicode="&#xf730;" horiz-adv-x="1292" 
d="M645 -18q-225 0 -375 163q-149 162 -149 404q0 234 151 399q149 162 373 162q226 0 375 -162q154 -165 154 -399q0 -241 -150 -404t-379 -163zM645 1034q-191 0 -317 -141q-125 -137 -125 -342q0 -198 121 -346q124 -148 321 -148q200 0 324 148q123 147 123 346
q0 204 -129 342q-129 141 -318 141z" />
    <glyph glyph-name="uniF731" unicode="&#xf731;" horiz-adv-x="645" 
d="M440 1094v-1094h-80v1008l-266 -156l-35 59l306 183h75z" />
    <glyph glyph-name="uniF732" unicode="&#xf732;" horiz-adv-x="966" 
d="M115 0v70l411 366q125 111 176.5 191t51.5 159q0 106 -74.5 177t-194.5 71q-88 0 -153 -45q-87 -58 -131 -184l-74 31q38 124 133.5 199t226.5 75q152 0 250 -94q99 -92 99 -230q0 -93 -50 -176q-52 -91 -208 -229l-342 -305h608v-76h-729z" />
    <glyph glyph-name="uniF733" unicode="&#xf733;" horiz-adv-x="966" 
d="M471 -18q-131 0 -230 73.5t-141 194.5l68 33q45 -114 127 -174q79 -54 174 -54q123 0 206 66t83 166q0 107 -75.5 169t-209.5 62h-123v72l121 2q115 0 189.5 64.5t74.5 158.5q0 93 -73.5 156t-192.5 63q-91 0 -156 -45q-85 -58 -131 -180l-69 31q37 121 133.5 194.5
t224.5 73.5q159 0 250 -88q94 -88 94 -205q0 -85 -55 -157t-150 -97q110 -24 170 -98.5t60 -175.5q0 -128 -103 -217q-101 -88 -266 -88z" />
    <glyph glyph-name="uniF734" unicode="&#xf734;" horiz-adv-x="1056" 
d="M707 1094h86v-764h168v-74h-168v-256h-80v256h-639v86zM713 987l-553 -657h553v657z" />
    <glyph glyph-name="uniF735" unicode="&#xf735;" horiz-adv-x="962" 
d="M801 1020h-508l-68 -449q99 111 256 111q165 0 266 -93.5t101 -246.5q0 -158 -111 -260q-106 -100 -266 -100q-126 0 -217 67q-102 71 -148 195l68 37q47 -115 127 -172q73 -54 172 -54q113 0 203 78t90 207q0 124 -81 196t-208 72q-161 0 -270 -133l-68 27l88 592h574
v-74z" />
    <glyph glyph-name="uniF736" unicode="&#xf736;" horiz-adv-x="1011" 
d="M524 -18q-200 0 -319 168q-78 110 -78 333q0 270 119 447q120 178 346 178q165 0 305 -137l-43 -60q-132 123 -262 123q-127 0 -221 -76q-160 -133 -166 -460q42 80 102 123q105 79 223 79q156 0 263 -104q108 -102 108 -244q0 -144 -106 -256q-108 -114 -271 -114z
M520 629q-114 0 -209 -80q-94 -79 -94 -199q0 -122 92 -211q92 -86 211 -86q125 0 213 88t88 209q0 120 -88 199q-89 80 -213 80z" />
    <glyph glyph-name="uniF737" unicode="&#xf737;" horiz-adv-x="868" 
d="M795 1094v-90l-478 -1004h-90l488 1020h-645v74h725z" />
    <glyph glyph-name="uniF738" unicode="&#xf738;" horiz-adv-x="1073" 
d="M948 293q0 -141 -123 -227q-121 -86 -286 -86q-171 0 -295 83q-121 86 -121 230q0 107 84 182q81 75 194 90q-109 25 -175 93.5t-66 158.5q0 142 112 217q116 78 265 78q146 0 262 -78q114 -76 114 -217q0 -194 -241 -252q110 -15 192 -88q84 -75 84 -184zM834 819
q0 93 -84.5 155t-214.5 62q-132 0 -213.5 -61.5t-81.5 -155.5q0 -91 84 -157q85 -64 213 -64t212.5 62.5t84.5 158.5zM866 291q0 99 -96 168q-92 69 -235 69q-144 0 -236 -69q-94 -67 -94 -168t96 -170q97 -66 236 -66q136 0 233 66q96 69 96 170z" />
    <glyph glyph-name="uniF739" unicode="&#xf739;" horiz-adv-x="1011" 
d="M700 190q103 145 109 394q-52 -101 -142 -151t-184 -50q-160 0 -266 100t-106 254q0 142 108 256q112 115 270 115q201 0 320 -168q78 -110 78 -334q0 -264 -117 -446q-117 -178 -340 -178q-95 0 -166.5 35t-144.5 108l43 59q75 -70 135.5 -99.5t134.5 -29.5
q166 0 268 135zM492 1034q-121 0 -211 -90q-88 -88 -88 -207q0 -122 86 -202q89 -80 213 -80q119 0 210 82q95 83 95 202q0 121 -95 207q-91 88 -210 88z" />
    <glyph glyph-name="NULL" horiz-adv-x="0" 
 />
    <glyph glyph-name="CR" horiz-adv-x="681" 
 />
    <glyph glyph-name="circumflex.001" horiz-adv-x="669" 
d="M653 1280h-78l-237 291l-240 -291h-78l273 352h90z" />
    <glyph glyph-name="Aring.alt" horiz-adv-x="1538" 
d="M561 1913q0 85 60 145t145 60t145 -60t60 -145q0 -86 -60 -145.5t-145 -59.5t-145 59.5t-60 145.5zM766 2048q-58 0 -95.5 -38t-37.5 -97q0 -57 38 -96t95 -39t95 39t38 96q0 56 -39 95.5t-94 39.5zM815 1604l709 -1604h-92l-199 457h-930l-201 -457h-88l709 1604h92z
M338 535h860l-432 976z" />
    <glyph glyph-name="OE.alt" horiz-adv-x="2347" 
d="M1354 78h866v-78h-1243q-374 0 -615 223q-243 225 -243 578q0 345 243 573q242 230 615 230h1233v-76h-856v-672h786v-78h-786v-700zM1270 78v1450h-293q-334 0 -551 -205q-219 -207 -219 -520q0 -314 221 -520q220 -205 553 -205h289z" />
    <glyph glyph-name="Q.alt" horiz-adv-x="1814" 
d="M1753 78v-78h-846q-341 0 -565 233q-221 238 -221 576q0 339 219 575q220 236 561 236q339 0 559 -236q221 -235 221 -573q0 -251 -125 -449q-126 -197 -348 -284v-4zM899 1542q-300 0 -498 -213q-196 -211 -196 -516q0 -309 198 -522q201 -213 508 -213q119 0 217 33
q214 71 340 262q129 194 129 434q0 307 -198 520q-197 215 -500 215z" />
    <glyph glyph-name="O.slash" horiz-adv-x="1818" 
d="M1698 805q0 -347 -225 -584q-223 -235 -566 -235q-340 0 -563 235t-223 580q0 346 223 581q226 238 565 238q340 0 566 -238q223 -235 223 -577zM207 807q0 -319 203 -531l989 1063q-200 203 -492 203q-301 0 -501 -215q-199 -211 -199 -520zM911 61q302 0 502 215
q199 214 199 523q0 275 -162 479l-983 -1057q195 -160 444 -160z" />
    <glyph glyph-name="a.alt" horiz-adv-x="1376" 
d="M1182 0h-78v299q-60 -141 -182 -227q-122 -88 -281 -88q-236 0 -383 166q-145 168 -145 399q0 235 149 397q150 166 379 166q157 0 279.5 -84.5t183.5 -226.5v293h78v-1094zM645 61q201 0 330 144q131 143 131 340v6q0 194 -129 338q-130 145 -332 145q-201 0 -326 -137
q-124 -136 -124 -344v-2q0 -211 124 -350q128 -140 326 -140z" />
    <glyph glyph-name="aacute.alt" horiz-adv-x="1376" 
d="M854 1632h92l-248 -352h-73zM1182 0h-78v299q-60 -141 -182 -227q-122 -88 -281 -88q-236 0 -383 166q-145 168 -145 399q0 235 149 397q150 166 379 166q157 0 279.5 -84.5t183.5 -226.5v293h78v-1094zM645 61q201 0 330 144q131 143 131 340v6q0 194 -129 338
q-130 145 -332 145q-201 0 -326 -137q-124 -136 -124 -344v-2q0 -211 124 -350q128 -140 326 -140z" />
    <glyph glyph-name="abreve.alt" horiz-adv-x="1376" 
d="M887 1608h59q0 -151 -84 -239.5t-221 -88.5q-138 0 -222.5 88.5t-84.5 239.5h59q6 -119 70 -186.5t178 -67.5t177.5 68t68.5 186zM1182 0h-78v299q-60 -141 -182 -227q-122 -88 -281 -88q-236 0 -383 166q-145 168 -145 399q0 235 149 397q150 166 379 166
q157 0 279.5 -84.5t183.5 -226.5v293h78v-1094zM645 61q201 0 330 144q131 143 131 340v6q0 194 -129 338q-130 145 -332 145q-201 0 -326 -137q-124 -136 -124 -344v-2q0 -211 124 -350q128 -140 326 -140z" />
    <glyph glyph-name="acaron.alt" horiz-adv-x="1376" 
d="M891 1614h78l-273 -354h-90l-270 354h78l237 -291zM1182 0h-78v299q-60 -141 -182 -227q-122 -88 -281 -88q-236 0 -383 166q-145 168 -145 399q0 235 149 397q150 166 379 166q157 0 279.5 -84.5t183.5 -226.5v293h78v-1094zM645 61q201 0 330 144q131 143 131 340v6
q0 194 -129 338q-130 145 -332 145q-201 0 -326 -137q-124 -136 -124 -344v-2q0 -211 124 -350q128 -140 326 -140z" />
    <glyph glyph-name="acircumflex.alt" horiz-adv-x="1376" 
d="M963 1280h-80l-238 291l-237 -291h-80l270 352h92zM1182 0h-78v299q-60 -141 -182 -227q-122 -88 -281 -88q-236 0 -383 166q-145 168 -145 399q0 235 149 397q150 166 379 166q157 0 279.5 -84.5t183.5 -226.5v293h78v-1094zM645 61q201 0 330 144q131 143 131 340v6
q0 194 -129 338q-130 145 -332 145q-201 0 -326 -137q-124 -136 -124 -344v-2q0 -211 124 -350q128 -140 326 -140z" />
    <glyph glyph-name="adieresis.alt" horiz-adv-x="1376" 
d="M399 1450q0 35 23.5 59.5t56.5 24.5q32 0 55 -24.5t23 -59.5q0 -33 -23 -57.5t-55 -24.5t-56 25t-24 57zM723 1450q0 35 23 59.5t55 24.5q33 0 56.5 -24.5t23.5 -59.5q0 -32 -24 -57t-56 -25t-55 24.5t-23 57.5zM1182 0h-78v299q-60 -141 -182 -227q-122 -88 -281 -88
q-236 0 -383 166q-145 168 -145 399q0 235 149 397q150 166 379 166q157 0 279.5 -84.5t183.5 -226.5v293h78v-1094zM645 61q201 0 330 144q131 143 131 340v6q0 194 -129 338q-130 145 -332 145q-201 0 -326 -137q-124 -136 -124 -344v-2q0 -211 124 -350
q128 -140 326 -140z" />
    <glyph glyph-name="agrave.alt" horiz-adv-x="1376" 
d="M717 1280h-76l-248 352h92zM1104 1094h78v-1094h-78v299q-60 -141 -182 -227q-122 -88 -281 -88q-236 0 -383 166q-145 168 -145 399q0 235 149 397q150 166 379 166q157 0 279.5 -84.5t183.5 -226.5v293zM645 61q201 0 330 144q131 143 131 340v6q0 194 -129 338
q-130 145 -332 145q-201 0 -326 -137q-124 -136 -124 -344v-2q0 -211 124 -350q128 -140 326 -140z" />
    <glyph glyph-name="amacron.alt" horiz-adv-x="1376" 
d="M985 1313h-682v76h682v-76zM1182 0h-78v299q-60 -141 -182 -227q-122 -88 -281 -88q-236 0 -383 166q-145 168 -145 399q0 235 149 397q150 166 379 166q157 0 279.5 -84.5t183.5 -226.5v293h78v-1094zM645 61q201 0 330 144q131 143 131 340v6q0 194 -129 338
q-130 145 -332 145q-201 0 -326 -137q-124 -136 -124 -344v-2q0 -211 124 -350q128 -140 326 -140z" />
    <glyph glyph-name="aogonek.alt" horiz-adv-x="1376" 
d="M1008 -250q0 -90 69.5 -134t173.5 -38v-72q-27 -6 -57 -6q-116 0 -192 63t-76 169q0 136 178 268v299q-60 -141 -182 -227q-122 -88 -281 -88q-236 0 -383 166q-145 168 -145 399q0 235 149 397q150 166 379 166q157 0 279.5 -84.5t183.5 -226.5v293h78v-1094
q-75 -57 -124.5 -122.5t-49.5 -127.5zM645 61q201 0 330 144q131 143 131 340v6q0 194 -129 338q-130 145 -332 145q-201 0 -326 -137q-124 -136 -124 -344v-2q0 -211 124 -350q128 -140 326 -140z" />
    </font>
</defs>
</svg>
