<svg width="18" height="18" viewBox="0 0 18 18" fill="none" xmlns="http://www.w3.org/2000/svg">
<path d="M14.8334 2.33333H13.1667V1.5C13.1667 1.27899 13.079 1.06703 12.9227 0.910746C12.7664 0.754465 12.5544 0.666668 12.3334 0.666668C12.1124 0.666668 11.9004 0.754465 11.7442 0.910746C11.5879 1.06703 11.5001 1.27899 11.5001 1.5V2.33333H6.50008V1.5C6.50008 1.27899 6.41228 1.06703 6.256 0.910746C6.09972 0.754465 5.88776 0.666668 5.66675 0.666668C5.44573 0.666668 5.23377 0.754465 5.07749 0.910746C4.92121 1.06703 4.83341 1.27899 4.83341 1.5V2.33333H3.16675C2.50371 2.33333 1.86782 2.59673 1.39898 3.06557C0.93014 3.53441 0.666748 4.17029 0.666748 4.83333V14.8333C0.666748 15.4964 0.93014 16.1323 1.39898 16.6011C1.86782 17.0699 2.50371 17.3333 3.16675 17.3333H14.8334C15.4965 17.3333 16.1323 17.0699 16.6012 16.6011C17.07 16.1323 17.3334 15.4964 17.3334 14.8333V4.83333C17.3334 4.17029 17.07 3.53441 16.6012 3.06557C16.1323 2.59673 15.4965 2.33333 14.8334 2.33333ZM15.6667 14.8333C15.6667 15.0543 15.579 15.2663 15.4227 15.4226C15.2664 15.5789 15.0544 15.6667 14.8334 15.6667H3.16675C2.94573 15.6667 2.73377 15.5789 2.57749 15.4226C2.42121 15.2663 2.33341 15.0543 2.33341 14.8333V9H15.6667V14.8333ZM15.6667 7.33333H2.33341V4.83333C2.33341 4.61232 2.42121 4.40036 2.57749 4.24408C2.73377 4.0878 2.94573 4 3.16675 4H4.83341V4.83333C4.83341 5.05435 4.92121 5.26631 5.07749 5.42259C5.23377 5.57887 5.44573 5.66667 5.66675 5.66667C5.88776 5.66667 6.09972 5.57887 6.256 5.42259C6.41228 5.26631 6.50008 5.05435 6.50008 4.83333V4H11.5001V4.83333C11.5001 5.05435 11.5879 5.26631 11.7442 5.42259C11.9004 5.57887 12.1124 5.66667 12.3334 5.66667C12.5544 5.66667 12.7664 5.57887 12.9227 5.42259C13.079 5.26631 13.1667 5.05435 13.1667 4.83333V4H14.8334C15.0544 4 15.2664 4.0878 15.4227 4.24408C15.579 4.40036 15.6667 4.61232 15.6667 4.83333V7.33333Z" fill="#EF7F1B"/>
</svg>
